<?xml version="1.0" encoding="utf-8"?>
<!-- Generator: Adobe Illustrator 26.1.0, SVG Export Plug-In . SVG Version: 6.00 Build 0)  -->
<svg version="1.1" id="Layer_1" xmlns="http://www.w3.org/2000/svg" xmlns:xlink="http://www.w3.org/1999/xlink" x="0px" y="0px"
	 viewBox="0 0 1950 1950" style="enable-background:new 0 0 1950 1950;" xml:space="preserve">
<style type="text/css">
	.st0{fill:#495057;}
</style>
<path class="st0" d="M975.2,879.4c42.5,0,78.7,15.1,108.9,45.2s45.2,66.4,45.2,108.9s-15.1,78.7-45.2,108.9s-66.4,45.2-108.9,45.2
	c-42.5,0-78.7-15.1-108.9-45.2c-30.1-30.1-45.2-66.4-45.2-108.9c0-42.5,15.1-78.7,45.2-108.9C896.4,894.5,932.7,879.4,975.2,879.4
	 M1351.9,656.8c37.8,0,70.1,13.4,96.9,40.1c26.8,26.8,40.1,59,40.1,96.9v479.5c0,37.8-13.4,70.1-40.1,96.9s-59,40.1-96.9,40.1H598.5
	c-37.8,0-70.1-13.4-96.9-40.1s-40.1-59-40.1-96.9V793.8c0-37.8,13.4-70.1,40.1-96.9c26.8-26.8,59-40.1,96.9-40.1h119.9l27.3-72.8
	c6.8-17.5,19.2-32.6,37.2-45.2s36.5-19,55.4-19h274c18.9,0,37.4,6.3,55.4,19s30.4,27.7,37.2,45.2l27.3,72.8H1351.9 M975.2,1273.3
	c66,0,122.4-23.5,169.4-70.4s70.4-103.4,70.4-169.4s-23.5-122.4-70.4-169.4c-46.9-46.9-103.4-70.4-169.4-70.4
	s-122.4,23.5-169.4,70.4c-46.9,46.9-70.4,103.4-70.4,169.4s23.5,122.4,70.4,169.4S909.2,1273.3,975.2,1273.3"/>
</svg>
