<?xml version="1.0" encoding="utf-8"?>
<!-- Generator: Adobe Illustrator 25.0.0, SVG Export Plug-In . SVG Version: 6.00 Build 0)  -->
<svg version="1.1" id="Layer_1" xmlns="http://www.w3.org/2000/svg" xmlns:xlink="http://www.w3.org/1999/xlink" x="0px" y="0px"
	 viewBox="0 0 1280 275" style="enable-background:new 0 0 1280 275;" xml:space="preserve">
<style type="text/css">
	.st0{fill:none;stroke:#FEFEFE;stroke-width:8;stroke-linecap:round;stroke-linejoin:round;stroke-miterlimit:10;}
	.st1{fill:#FFFFFF;}
	.st2{fill:#ABABAB;stroke:#ABABAB;stroke-width:10;stroke-miterlimit:10;}
	.st3{fill:none;stroke:#FFFFFF;stroke-width:10;stroke-miterlimit:10;}
</style>
<g>
	<path class="st0" d="M245,137.8c-7.6,0-14.2,3.6-18.5,9.2c-4.3-5.5-10.9-9.2-18.5-9.2c-13,0-23.5,10.5-23.5,23.5
		c0,6.5,2.6,12.4,6.9,16.6c4.2,4.2,19.7,16.5,35.1,24.6c14-8.4,30.7-20.3,35-24.4c4.3-4.3,7-10.2,7-16.7
		C268.5,148.3,258,137.8,245,137.8z"/>
	<g>
		<path class="st1" d="M640,77.1c-51.3,0-93,41.6-93,93c0,51.3,41.6,93,93,93s93-41.6,93-93C733,118.8,691.3,77.1,640,77.1z
			 M623.3,206.4v-63.1l54.7,31.6L623.3,206.4z"/>
	</g>
	<g>
		<g id="Solid">
			<path class="st1" d="M1072.8,159.7c2.5-2.6,5.5-3.9,8.6-3.9h10.9l-4.1,4.1c-1.7,1.7-1.7,4.4,0,6.1c1.7,1.7,4.4,1.7,6.1,0l0,0
				l11.5-11.5c1.7-1.7,1.7-4.4,0-6.1c0,0,0,0,0,0l-11.5-11.5c-1.7-1.7-4.4-1.7-6.1,0c-1.7,1.7-1.7,4.4,0,6.1l4.1,4.1h-10.9
				c-6.4,0-12.3,3.2-16.6,8.6c1.9,2.8,3.4,6,4.4,9.3C1070.1,163.1,1071.3,161.3,1072.8,159.7L1072.8,159.7z"/>
			<path class="st1" d="M1053.2,180.5c-2.5,2.6-5.5,3.9-8.6,3.9H1028c-2.4,0-4.3,1.9-4.3,4.3c0,2.4,1.9,4.3,4.3,4.3h16.6
				c6.4,0,12.3-3.2,16.6-8.6c-1.9-2.8-3.4-6-4.4-9.3C1056,177.1,1054.7,179,1053.2,180.5L1053.2,180.5z"/>
			<path class="st1" d="M1094.2,174.2c-1.7-1.7-4.4-1.7-6.1,0c-1.7,1.7-1.7,4.4,0,6.1l4.1,4.1h-10.9c-3.1,0-6.1-1.4-8.6-3.9
				c-2.7-2.8-4.7-6.8-5.6-11.2c-2.5-13-11.8-22.1-22.6-22.1H1028c-2.4,0-4.3,1.9-4.3,4.3s1.9,4.3,4.3,4.3h16.6
				c3.1,0,6.1,1.4,8.6,3.9c2.7,2.8,4.7,6.8,5.6,11.2c2.5,13,11.8,22.1,22.6,22.1h10.9l-4.1,4.1c-1.7,1.7-1.7,4.4,0,6.1
				c1.7,1.7,4.4,1.7,6.1,0l0,0l11.5-11.5c1.7-1.7,1.7-4.4,0-6.1c0,0,0,0,0,0L1094.2,174.2z"/>
		</g>
	</g>
	<g>
		<g>
			<polygon class="st1" points="862,170.1 818.3,144.9 818.3,195.3 862,170.1 818.3,144.9 818.3,195.3 			"/>
			<rect x="860.7" y="144.9" class="st1" width="9.4" height="50.4"/>
		</g>
		<g>
			<polygon class="st1" points="418,170.1 461.7,144.9 461.7,195.3 418,170.1 461.7,144.9 461.7,195.3 			"/>
			
				<rect x="409.9" y="144.9" transform="matrix(-1 -1.224647e-16 1.224647e-16 -1 829.2776 340.2081)" class="st1" width="9.4" height="50.4"/>
		</g>
	</g>
</g>
<g>
	<line class="st2" x1="960.2" y1="30.6" x2="1112.1" y2="30.6"/>
	<line class="st3" x1="167.9" y1="30.6" x2="960.2" y2="30.6"/>
	<path class="st1" d="M977.9,30.6c0,9.8-7.9,17.7-17.7,17.7c-9.8,0-17.7-7.9-17.7-17.7c0-9.8,7.9-17.7,17.7-17.7
		C970,12.9,977.9,20.9,977.9,30.6z"/>
</g>
</svg>
