<?xml version="1.0" encoding="utf-8"?>
<!-- Generator: Adobe Illustrator 26.1.0, SVG Export Plug-In . SVG Version: 6.00 Build 0)  -->
<svg version="1.1" id="Layer_1" xmlns="http://www.w3.org/2000/svg" xmlns:xlink="http://www.w3.org/1999/xlink" x="0px" y="0px"
	 viewBox="0 0 1950 1950" style="enable-background:new 0 0 1950 1950;" xml:space="preserve">
<style type="text/css">
	.st0{fill:#495057;}
</style>
<path class="st0" d="M975.2,833.4c65.3,0,121.1,23.2,167.5,69.6c46.4,46.4,69.6,102.2,69.6,167.5c0,65.3-23.2,121.1-69.6,167.5
	c-46.4,46.4-102.2,69.6-167.5,69.6s-121.1-23.2-167.5-69.6c-46.4-46.4-69.6-102.2-69.6-167.5s23.2-121.1,69.6-167.5
	C854.1,856.5,909.9,833.4,975.2,833.4 M1554.6,491c58.2,0,107.8,20.6,149,61.7s61.7,90.8,61.7,149v737.5c0,58.2-20.6,107.8-61.7,149
	c-41.2,41.2-90.8,61.7-149,61.7H395.7c-58.2,0-107.8-20.6-149-61.7c-41.2-41.2-61.7-90.8-61.7-149V701.7c0-58.2,20.6-107.8,61.7-149
	s90.8-61.7,149-61.7h184.4l42-111.9c10.4-26.9,29.5-50.1,57.2-69.6c27.7-19.5,56.1-29.2,85.2-29.2h421.4c29.1,0,57.5,9.7,85.2,29.2
	c27.7,19.5,46.8,42.7,57.2,69.6l42,111.9H1554.6 M975.2,1439.1c101.5,0,188.3-36.1,260.5-108.2c72.2-72.2,108.2-159,108.2-260.5
	c0-101.5-36.1-188.3-108.2-260.5c-72.2-72.2-159-108.2-260.5-108.2s-188.3,36.1-260.5,108.2s-108.2,159-108.2,260.5
	c0,101.5,36.1,188.3,108.2,260.5C786.8,1403.1,873.7,1439.1,975.2,1439.1"/>
</svg>
