<?xml version="1.0" encoding="utf-8"?>
<!-- Generator: Adobe Illustrator 25.4.1, SVG Export Plug-In . SVG Version: 6.00 Build 0)  -->
<svg version="1.1" id="Layer_1" xmlns="http://www.w3.org/2000/svg" xmlns:xlink="http://www.w3.org/1999/xlink" x="0px" y="0px"
	 viewBox="0 0 50 50" style="enable-background:new 0 0 50 50;" xml:space="preserve">
<style type="text/css">
	.st0{display:none;fill:#999999;}
	.st1{fill:#FFFFFF;}
</style>
<g>
</g>
<rect class="st0" width="50" height="50"/>
<g>
	<path class="st1" d="M33.35,33.43c-0.34,0.56-1.08,0.74-1.64,0.4c-4.48-2.74-10.12-3.36-16.77-1.84c-0.64,0.15-1.28-0.25-1.42-0.89
		c-0.15-0.64,0.25-1.28,0.89-1.42c7.27-1.66,13.51-0.95,18.54,2.13C33.52,32.14,33.7,32.87,33.35,33.43z"/>
	<path class="st1" d="M35.69,28.23c-0.43,0.7-1.35,0.92-2.05,0.49c-5.13-3.15-12.95-4.07-19.02-2.22c-0.79,0.24-1.62-0.21-1.86-0.99
		c-0.24-0.79,0.21-1.62,0.99-1.86c6.93-2.1,15.55-1.08,21.44,2.54C35.9,26.62,36.12,27.53,35.69,28.23z"/>
	<path class="st1" d="M35.89,22.82c-6.15-3.65-16.3-3.99-22.17-2.21c-0.94,0.29-1.94-0.25-2.23-1.19c-0.29-0.94,0.25-1.94,1.19-2.23
		c6.74-2.05,17.95-1.65,25.03,2.55c0.85,0.5,1.13,1.6,0.62,2.45C37.83,23.05,36.74,23.33,35.89,22.82z"/>
</g>
</svg>
