<svg xmlns="http://www.w3.org/2000/svg" xmlns:xlink="http://www.w3.org/1999/xlink" width="1500" height="1500" version="1.1" id="Layer_1" x="0px" y="0px" viewBox="0 0 1280 1280" style="enable-background:new 0 0 1280 1280;" xml:space="preserve"> <style type="text/css"> .st0{fill:#FFFFFF;} </style> <g> <path class="st0" d="M640,1280H0V640C0,993.5,286.5,1280,640,1280z"></path> <path class="st0" d="M0,640V0h640C286.5,0,0,286.5,0,640z"></path> <path class="st0" d="M1280,0v640C1280,286.5,993.5,0,640,0H1280z"></path> <path class="st0" d="M1280,640v640H640C993.5,1280,1280,993.5,1280,640z"></path> </g> <g> <path class="st0" d="M640,65c317.6,0,575,257.4,575,575s-257.4,575-575,575S65,957.6,65,640S322.4,65,640,65 M640,49   c-79.8,0-157.2,15.6-230,46.5c-35,14.8-68.8,33.1-100.4,54.5c-31.3,21.1-60.7,45.4-87.5,72.2s-51,56.2-72.2,87.5   c-21.3,31.6-39.7,65.4-54.5,100.4C64.6,482.8,49,560.2,49,640s15.6,157.2,46.5,230c14.8,35,33.1,68.8,54.5,100.4   c21.1,31.3,45.4,60.7,72.2,87.5s56.2,51,87.5,72.2c31.6,21.3,65.4,39.7,100.4,54.5c72.9,30.8,150.3,46.5,230,46.5   s157.2-15.6,230-46.5c35-14.8,68.8-33.1,100.4-54.5c31.3-21.1,60.7-45.4,87.5-72.2s51-56.2,72.2-87.5   c21.3-31.6,39.7-65.4,54.5-100.4c30.8-72.9,46.5-150.3,46.5-230s-15.6-157.2-46.5-230c-14.8-35-33.1-68.8-54.5-100.4   c-21.1-31.3-45.4-60.7-72.2-87.5s-56.2-51-87.5-72.2c-31.6-21.3-65.4-39.7-100.4-54.5C797.2,64.6,719.8,49,640,49L640,49z"></path> </g> </svg>