<?xml version="1.0" standalone="no"?>
<!DOCTYPE svg PUBLIC "-//W3C//DTD SVG 1.1//EN" "http://www.w3.org/Graphics/SVG/1.1/DTD/svg11.dtd" >
<svg xmlns="http://www.w3.org/2000/svg" xmlns:xlink="http://www.w3.org/1999/xlink" version="1.1">
<metadata>
Created by FontForge 20170731 at Wed Nov 13 19:03:41 2019
 By Aleksey,,,
Holimount (c) (38-lineart). 2019. All Rights Reserved
</metadata>
<defs>
<font id="Holimount" horiz-adv-x="1698" >
  <font-face 
    font-family="Holimount"
    font-weight="400"
    font-stretch="normal"
    units-per-em="2048"
    panose-1="2 0 6 0 0 0 0 0 0 0"
    ascent="1638"
    descent="-410"
    x-height="260"
    cap-height="1185"
    bbox="-1386 -1014 5285 1647"
    underline-thickness="50"
    underline-position="-125"
    unicode-range="U+001D-E022"
  />
<missing-glyph horiz-adv-x="500" 
 />
    <glyph glyph-name="Holimount" unicode="Holimount" horiz-adv-x="5285" 
d="M1532 276q-6 0 -191 -9q-138 -194 -351.5 -551t-214.5 -393q-23 -21 -35 -21q-9 0 -9 12q0 101 547 946q-7 1 -27 1q-52 0 -195.5 -9t-164.5 -9q-255 -355 -317 -483q-20 -43 -75.5 -126.5t-79.5 -83.5q-6 0 -28 23q33 57 65.5 108.5t49 76.5t30 47.5t18 35.5t4.5 27
q0 58 -45.5 102.5t-115.5 70t-140 43t-136 31.5t-86 24q-35 15 -35 30q0 21 69 40t191 33t223.5 23t233.5 18t154 11q281 397 334 479q106 162 106 221q0 36 -32.5 50.5t-102.5 14.5q-61 0 -208.5 -14t-358.5 -28t-426 -14q-59 0 -59 24q0 16 29 31t70 15q16 0 20 -11.5
t15 -11.5q0 1 185 15t406.5 28.5t296.5 14.5q113 0 165 -20t52 -73q0 -39 -44.5 -127t-107.5 -186.5t-126.5 -191.5t-108.5 -154l-44 -60q19 0 195.5 7.5t184.5 9.5q11 5 177.5 261.5t336 510t191.5 253.5q5 0 14.5 -10t9.5 -13q0 -6 -39 -70q-24 -41 -70.5 -132.5t-78 -147
t-46.5 -55.5q-14 0 -14 45q-1 0 -25.5 -40t-131 -203.5t-263.5 -395.5q6 0 32 2t54.5 3.5t52.5 1.5q97 0 97 -23q0 -16 -10 -26t-24 -10q-123 0 -123 4zM602 -92q95 140 233 336q-55 -5 -206 -14t-277 -22t-258 -39q223 -50 291 -74q131 -46 188 -133q16 -24 29 -54z
M2309 373q0 16 19 16q13 0 22 -10t9 -21q0 -19 -18 -19q-13 0 -22.5 11t-9.5 23zM4697 477v-1q43 0 127.5 -4t194 -12.5t188 -26.5t78.5 -41q0 -10 -6.5 -16.5t-15.5 -6.5q-84 25 -232 43.5t-298 18.5q-49 0 -73 -1q-59 -59 -134.5 -122.5t-111.5 -84.5q-57 -116 -101 -226
h34q311 0 311 -28q0 -8 -26.5 -14t-55.5 -6q-27 0 -39 6q-13 9 -137 9h-64l-36 -1q-39 -112 -39 -166q0 -3 6 -21.5t6 -28.5q0 -23 -27 -23q-41 0 -41 57q0 52 46 181q-707 -4 -1449.5 -23t-913.5 -30q7 -9 7 -14q0 -13 -40 -14q-48 -1 -418 -15q-97 0 -97 13
q0 11 74.5 23.5t281 28t518.5 28.5t846 23.5t1203 13.5q34 88 77 183q-54 -33 -121 -61t-110 -28q-46 0 -46 39q0 17 6.5 43.5t6.5 30.5l-2 2q-22 0 -111 -63t-101 -63q-31 0 -31 28q0 22 19 60q-104 -59 -177 -59q-64 0 -64 54q0 10 1 15q-38 -42 -88.5 -67t-91.5 -25
q-61 0 -61 49q0 20 12 48q-24 -9 -49 -9q-19 0 -37.5 2t-31 4.5t-22.5 5.5t-15.5 5t-6.5 2q-68 -96 -110 -116q-20 -13 -39 -13q-33 0 -33 31q0 17 13 39q-76 -33 -114 -33q-44 0 -66.5 20.5t-22.5 52.5q0 36 27 68q-36 -21 -120 -85.5t-100 -70.5q-32 0 -32 27q0 22 23 72
l23 49q-5 0 -101 -74t-114 -74q-26 0 -26 23q0 21 22 57q-140 -75 -229 -75q-73 0 -73 62v8q-147 -112 -237 -112q-42 0 -64 25.5t-22 69.5q0 23 6 48q-40 -18 -74 -18q-19 0 -37.5 2t-31 4.5t-22.5 5.5t-15.5 5t-6.5 2q-68 -96 -110 -116q-23 -13 -40 -13q-32 0 -32 36
q0 32 58.5 93.5t96.5 61.5q12 0 19 -7q11 -10 47 -21.5t78 -11.5q12 0 25.5 3t22 6.5t20.5 9t15 6.5q37 114 127.5 257.5t189 246t154.5 102.5q52 0 52 -44q0 -61 -91 -189t-205.5 -243.5t-184.5 -156.5q-11 -20 -11 -48t12.5 -47.5t37.5 -19.5q34 0 90 28.5t83 47.5t75 54
q43 58 75 58q25 0 25 -29q0 -4 -2 -8.5t-7 -9t-9.5 -8t-12 -7.5t-11.5 -6.5t-12 -6.5l-10 -5q-16 -12 -16 -52q0 -23 33 -23q44 0 130.5 36t139.5 67q29 39 48 39q14 0 14 -19q0 -6 -24 -39t-24 -37q21 14 66 48t76.5 54t49.5 20q22 0 22 -33q0 -20 -15.5 -60t-15.5 -41
q178 132 218 132q15 0 15 -18q0 -13 -13 -55.5t-13 -60.5q0 -32 30 -32q50 0 189 81q41 37 73 37q17 0 55 -18t71 -18q42 0 99 25q19 23 24 23q31 0 31 -11q0 -7 -25.5 -41t-25.5 -56q0 -23 20 -23q48 0 191 116l9 3q9 0 16 -7t7 -17q0 -7 -7.5 -23.5t-7.5 -24.5
q0 -24 34 -24q38 0 102.5 25.5t107.5 51.5q16 19 30 19q13 0 13 -18q0 -7 -23.5 -38.5t-23.5 -40.5q0 -5 4 -5q9 0 94 54t114 54q27 0 27 -24q0 -11 -8.5 -42t-8.5 -46q0 -11 16 -11q34 0 118.5 38t120.5 62q56 112 106 185q-61 -7 -124 -18.5t-96 -18.5l-33 -8
q-9 0 -15.5 6.5t-6.5 15.5q0 13 40 26t98 22.5t100 15t68 7.5q31 62 165 220.5t181 158.5q50 0 50 -43q0 -54 -67 -153t-134 -171zM2298 800q-35 0 -118 -92t-164.5 -216.5t-113.5 -209.5q14 3 80 66t140.5 142.5t134 161.5t59.5 118q0 30 -18 30zM1513 116q21 13 41.5 35.5
t20.5 28.5q-8 0 -35 -29t-27 -35zM3089 116q21 13 41.5 35.5t20.5 28.5q-8 0 -35 -29t-27 -35zM4533 423l-90 -134q139 115 162 140q-18 -1 -72 -6zM4842 797q-17 0 -51.5 -31.5t-94.5 -108t-131 -186.5q11 1 40.5 2t40.5 1q98 106 152 191t54 118q0 14 -10 14z" />
    <glyph glyph-name=".notdef" horiz-adv-x="500" 
 />
    <glyph glyph-name=".notdef" horiz-adv-x="500" 
 />
    <glyph glyph-name=".null" horiz-adv-x="0" 
 />
    <glyph glyph-name="nonmarkingreturn" horiz-adv-x="682" 
 />
    <glyph glyph-name="space" unicode=" " horiz-adv-x="508" 
 />
    <glyph glyph-name="space" unicode="&#xa0;" horiz-adv-x="508" 
 />
    <glyph glyph-name="exclam" unicode="!" horiz-adv-x="623" 
d="M158 -4q0 -2 -4 -10q-8 -11 -8 -21q0 -7 -7.5 -12.5t-15.5 -5.5q-4 0 -6 1q-6 4 -11.5 20.5t-5.5 28.5q0 6 1 8q5 15 23 15q14 0 24 -10q10 -9 10 -14zM623 675q0 -20 -71 -105q-98 -118 -111 -118q-10 0 -90.5 -122t-110.5 -183q-26 -52 -39 -52q-5 0 -15 7q-8 6 -8 15
q0 20 54 111q163 272 297 415q51 54 75 54q14 0 18 -15q1 -2 1 -7z" />
    <glyph glyph-name="quotedbl" unicode="&#x22;" horiz-adv-x="563" 
d="M761 996q0 -13 -17 -27q-90 -66 -91 -78q-3 -21 -22 -21q-10 0 -23 11q-8 8 -8 16q0 19 60 64q70 53 83 53q5 0 9 -3q9 -6 9 -15zM863 996q0 -13 -17 -27q-90 -66 -91 -78q-3 -21 -22 -21q-10 0 -23 11q-8 8 -8 16q0 19 60 64q70 53 83 53q5 0 9 -3q9 -6 9 -15z" />
    <glyph glyph-name="numbersign" unicode="#" horiz-adv-x="559" 
d="M378 220l13 26h-56q-5 -10 -6 -14q-1 -3 -3 -7q-1 -1 -3 -5h55zM327 18q-28 0 -28 24q0 9 8 17q16 39 50 115h-58l-28 -49q-15 -17 -24 -17q-10 0 -19 17q0 3 -2 7q-3 4 -3 14q0 18 19 18l-3 10q-27 0 -33 3t-6 20q0 14 3 20t19 6q4 0 11 -3h37l12 23h-21q-21 0 -21 27
q0 14 15 17t46 3q7 21 37 51q11 11 19 11q18 0 18 -19q0 -10 -17 -40h48q0 7 8 15q17 14 36 52q6 9 17 9q9 0 17 -8t8 -17q-9 -17 -10 -19q-4 -8 -6 -11q-3 -6 -9 -21h22q16 0 20 -22q0 -20 -11 -22l-56 -1l-12 -28q19 0 24 -5t5 -21q0 -17 -4 -18q-2 -2 -47 -2
q-36 -81 -64 -145q-8 -11 -17 -11z" />
    <glyph glyph-name="dollar" unicode="$" horiz-adv-x="631" 
d="M274 -20h6q23 0 46 17q21 16 24 41v8q0 49 -56 182l-105 -205q39 -40 85 -43zM296 329l156 302q-45 22 -87 26l-15 1q-52 0 -79 -33q-27 -35 -31 -73v-11q0 -73 56 -212zM133 -60q-22 1 -22 22l27 56q-38 52 -38 98l1 12q1 13 23 13h6q15 -1 15 -14v-11q0 -25 14 -55
l113 216q-74 177 -74 262l1 16q4 37 23 71q18 33 52 54q29 16 73 16l20 -1q56 -5 103 -29l17 36q7 9 17 9q24 -3 24 -20q-4 -9 -6 -15t-2 -7q-1 -2 -4 -5l-5 -7q-1 -2 -5 -11q91 -59 125 -170v-4q0 -16 -30 -16q-10 3 -14 14q-26 89 -98 140l-171 -333q20 -46 56 -136
q20 -53 20 -96v-9q-4 -42 -42 -69q-31 -25 -70 -25h-13q-54 3 -100 43l-17 -34q-8 -11 -19 -11z" />
    <glyph glyph-name="percent" unicode="%" horiz-adv-x="1036" 
d="M343 549q0 -15 11 -29t28 -21q16 -8 27 -8q10 0 27 7q34 14 34 46q0 20 -13 44q-23 48 -42 48q-11 0 -31 -14q-14 -11 -27.5 -34t-13.5 -39zM655 14q-2 -2 -13 -12t-18.5 -17t-18.5 -18.5t-18 -20.5t-12 -19.5t-5 -17.5t4 -11q6 -7 13 -7t23 7t34 27.5t18 47.5q0 9 -7 41
zM765 102q45 0 45 -23q0 -22 -26 -22l-20 1q-23 0 -59 -14q-1 -96 -3 -111.5t-17 -34.5q-41 -50 -94 -50q-28 0 -47 16t-19 42q0 57 84 126q18 13 18 20q0 2 -1 2q-10 0 -27 14q-13 12 -13 15q0 4 8 12q10 12 18 12t65 -28l30 11q30 12 58 12zM385 672l6 1q0 1 -7 5
q-4 3 -9 3q-6 0 -19 -8.5t-23 -8.5q-18 0 -18 16t17 33t39 17q25 0 54 -24q17 -15 33.5 -24.5t21.5 -14t11.5 -18.5t15.5 -47q9 -36 9 -60q0 -44 -36 -73q-10 -8 -16 -11.5t-22 -6.5t-41 -3q-42 0 -71.5 29.5t-29.5 72.5q0 24 12 53q9 19 35 43.5t38 25.5zM1013 704
q7 0 15 -8t8 -16q0 -13 -24 -47q-26 -36 -41 -36q-4 0 -9.5 3.5t-7.5 3.5q-12 0 -170 -148.5t-355 -349t-289 -315.5q-9 -10 -18 -10t-15.5 7.5t-6.5 14.5q0 18 40.5 65t168.5 182q74 78 218.5 222t302 288t183.5 144z" />
    <glyph glyph-name="ampersand" unicode="&#x26;" horiz-adv-x="1028" 
d="M829 651l20 1q59 0 75 -35q4 -14 4 -21q0 -43 -89 -98q-37 -23 -204 -111l-9 -41q-7 -36 -7 -88q0 -56 9 -79q12 -23 13 -23l23 12q23 11 56 27t67 32t60 27.5t31 11.5q10 0 16.5 -7.5t6.5 -16.5q0 -11 -22 -39q-17 -22 -31 -22q-8 0 -15 8q-1 2 -6 2q-14 0 -157 -74
q41 -24 52.5 -32.5t11.5 -16.5q0 -4 -1.5 -9t-6.5 -9.5t-12 -4.5q-22 0 -93 53q-83 -36 -189.5 -66.5t-189.5 -30.5q-104 0 -134 55q-8 13 -8 24q0 29 35 67t72 64q85 62 386 208q46 96 70 129q67 93 166 103zM253 49q83 0 187.5 31.5t154.5 57.5q-2 6 -6 16t-5.5 13.5
t-4 10.5t-3 10t-2 9t-1.5 11t-0.5 11t-0.5 14q0 3 1.5 43t1.5 58q0 23 -2 23q-8 0 -111 -53t-208.5 -122.5t-105.5 -102.5q0 -5 12 -12t37.5 -12.5t55.5 -5.5zM856 604l-22 -1q-34 -4 -54 -13t-46 -32q-18 -16 -44.5 -53.5t-26.5 -46.5h1q15 0 115.5 59t100.5 78q0 9 -24 9z
" />
    <glyph glyph-name="quotesingle" unicode="'" horiz-adv-x="461" 
d="M761 405q0 -13 -17 -27q-90 -66 -91 -78q-3 -21 -22 -21q-10 0 -23 11q-8 8 -8 16q0 19 60 64q70 53 83 53q5 0 9 -3q9 -6 9 -15z" />
    <glyph glyph-name="parenleft" unicode="(" horiz-adv-x="447" 
d="M747 1042q0 -50 -141 -214q-45 -53 -57 -53q-5 0 -11 5.5t-6 11.5q0 13 54 79q111 138 111 162q0 5 -4 5q-21 0 -79 -35t-105 -76q-31 -26 -78.5 -81t-82.5 -103q-163 -227 -195 -536q-5 -43 -5 -52q0 -16 10 -26q10 -9 10 -15q0 -4 -3 -9q-4 -7 -14.5 -15.5t-15.5 -8.5
h-1q-1 0 -13 4q-21 5 -21 59q0 73 29 210.5t90 262.5q76 156 204.5 290.5t230.5 166.5q23 8 45 8q48 0 48 -40z" />
    <glyph glyph-name="parenright" unicode=")" horiz-adv-x="653" 
d="M653 929q0 -24 -15 -87q-39 -156 -93.5 -266t-152.5 -229q-48 -59 -153.5 -174.5t-113.5 -118.5q0 -1 -3 -1q-8 0 -15 6q-7 4 -7 13q0 20 66 90q159 172 225.5 259t113.5 181q77 156 88 268q9 87 39 87q6 0 9 -1q12 -6 12 -27z" />
    <glyph glyph-name="asterisk" unicode="*" horiz-adv-x="593" 
d="M417 584h58q72 0 95 -4.5t23 -20.5q0 -15 -22 -19.5t-95 -4.5q-95 0 -98 -6v-2q0 -9 9 -20q13 -17 24 -56q17 -60 17 -67q0 -8 -10 -18q-12 -12 -18 -12q-5 0 -16 11q-7 9 -7 15q0 2 1 2v4q0 15 -12.5 52.5t-19.5 40.5h-1q-12 0 -75.5 -55t-76.5 -55q-9 0 -16.5 6
t-7.5 14q0 4 10.5 16t30.5 31t36 34t39.5 36t28.5 26q-3 0 -18.5 1t-25.5 1q-47 0 -47 -17q0 -22 -28 -22q-23 0 -61 16q-34 17 -34 33q0 7 4 12q7 10 55.5 15t200.5 14q124 169 144 189q13 12 21 13q5 0 10 -4.5t5 -12.5q0 -18 -23 -51.5t-55.5 -74t-44.5 -60.5z" />
    <glyph glyph-name="plus" unicode="+" horiz-adv-x="524" 
d="M424 290q61 -4 80.5 -10.5t19.5 -20.5q0 -12 -11.5 -21.5t-24.5 -9.5q-9 0 -18 7q-7 8 -155 12q-15 -38 -28.5 -73t-21.5 -55t-15 -38l-10.5 -27t-7 -16.5t-5.5 -11t-4 -6.5q-10 -10 -22 -10q-16 0 -16 20l2 15q18 55 83 208q-30 -2 -63 -3.5t-48.5 -2.5t-24.5 -1
q-19 0 -26 7q-8 6 -8 18q0 10 7 16q8 5 183 10q52 108 52 113q0 11 12 25q9 10 12 10q4 0 12 -8q11 -9 11 -20q0 -14 -23 -61q-24 -52 -24 -55q0 -6 82 -11z" />
    <glyph glyph-name="comma" unicode="," horiz-adv-x="415" 
d="M269 75q0 -13 -17 -27q-90 -66 -91 -78q-3 -21 -22 -21q-10 0 -23 11q-8 8 -8 16q0 19 60 64q70 53 83 53q5 0 9 -3q9 -6 9 -15z" />
    <glyph glyph-name="hyphenminus" unicode="-" horiz-adv-x="535" 
d="M535 293q0 -9 -7 -16q-7 -4 -200 -8t-199 -7l-4 -1q-8 0 -17 9q-8 10 -8 13t10 13q20 20 343 20q64 0 71 -4q11 -5 11 -19z" />
    <glyph glyph-name="hyphenminus" unicode="&#xad;" horiz-adv-x="535" 
d="M535 293q0 -9 -7 -16q-7 -4 -200 -8t-199 -7l-4 -1q-8 0 -17 9q-8 10 -8 13t10 13q20 20 343 20q64 0 71 -4q11 -5 11 -19z" />
    <glyph glyph-name="period" unicode="." horiz-adv-x="331" 
d="M156 0q-4 1 -16.5 3t-19.5 4t-13.5 8.5t-6.5 17.5q0 15 13 25.5t30 10.5q4 0 14 -2q24 -9 24 -29q0 -13 -9 -25.5t-16 -12.5z" />
    <glyph glyph-name="slash" unicode="/" horiz-adv-x="858" 
d="M1284 1012q0 -18 -128.5 -116.5t-128.5 -117.5q0 -4 1 -7l1 -7q0 -19 -17 -19q-11 0 -20 8l-15 12q-96 -78 -242.5 -197t-224 -182.5t-162.5 -133.5t-121.5 -103t-36.5 -38q2 -2 2 -6q0 -15 -34 -36q-26 -18 -33 -18t-16 10.5t-9 20.5v3q4 14 49 56.5t131.5 115
t163.5 135.5t200 162.5t186 150.5q36 29 100.5 82.5t111 91.5t96 77.5t79.5 60.5t37 21q10 0 20 -9t10 -17z" />
    <glyph glyph-name="zero" unicode="0" horiz-adv-x="780" 
d="M612 585q-13 0 -45 -17t-40 -17l-6 1q-25 0 -133.5 -97.5t-159.5 -165.5q-81 -113 -81 -182q0 -27 15 -36q6 -5 24 -5q39 0 94 22q113 47 213.5 156t127.5 213q9 31 9 83q0 26 -3 36q-5 9 -15 9zM678 529q0 -63 -27 -132q-18 -44 -60.5 -105t-84.5 -103
q-59 -59 -130.5 -103.5t-135.5 -60.5q-35 -8 -50 -8q-20 0 -43 10q-47 22 -47 80q0 102 125 251q107 129 260 232.5t232 103.5q34 0 48.5 -24t14.5 -49q0 -28 -16 -35q-4 -3 -9 -3q-8 0 -14 7t-6 17l2 17q0 12 -7 20.5t-17 8.5q-12 0 -39.5 -8.5t-27.5 -14.5q0 -1 5 -8
q27 -30 27 -93z" />
    <glyph glyph-name="one" unicode="1" horiz-adv-x="606" 
d="M606 644q0 -5 -3 -11q-30 -56 -225 -333.5t-212 -312.5q-8 -18 -21 -31t-21 -13q-5 0 -14.5 10t-9.5 17t86 134.5t154 221.5q31 40 60 90q23 41 96.5 144.5t80.5 106.5q1 0 3 1q7 0 16.5 -8.5t9.5 -15.5z" />
    <glyph glyph-name="two" unicode="2" horiz-adv-x="755" 
d="M740 551q-24 -48 -107 -128t-163 -144t-182 -142.5t-120 -92.5q83 14 277 14l54 -2q21 -5 21 -20q0 -6 -6 -14q-7 -7 -35.5 -9.5t-127.5 -4.5q-55 -2 -103 -3.5t-69 -2.5t-30 -1q-13 0 -24 3q-25 8 -25 29q0 5 4 13q11 20 170 140q135 103 200.5 157t127.5 115
q47 46 77.5 84.5t30.5 51.5q0 3 -11 3q-40 0 -86 -18q-58 -22 -127 -61.5t-117 -78.5q-20 -17 -35.5 -37.5t-15.5 -30.5v-1l1 -2l2 -6q0 -8 -7.5 -16t-15.5 -8q-14 0 -21 25q-2 10 -2 15q0 11 13 34q39 66 185 149.5t222 83.5l13 -1q47 -8 47 -43q0 -20 -15 -50z" />
    <glyph glyph-name="three" unicode="3" horiz-adv-x="665" 
d="M558 228q0 -32 -36 -68t-106 -70q-70 -35 -148 -57.5t-124 -22.5q-34 0 -41 13q-3 6 -3 11q0 22 45 24q69 1 179.5 43.5t157.5 86.5q26 24 26 37q0 11 -25 24q-26 13 -125 15q-101 4 -107 8q-10 7 -10 22q0 10 6 18q5 8 68 46.5t121.5 78.5t58.5 57q0 5 -4 8q-6 3 -25 3
q-53 0 -127 -19q-53 -13 -75 -23.5t-27 -25.5q-6 -15 -18 -15q-9 0 -15.5 8.5t-6.5 18.5q0 38 93.5 69t174.5 31q36 0 51 -8q12 -6 20 -19.5t8 -27.5q0 -56 -211 -178l63 -4q79 -5 120.5 -27.5t41.5 -56.5z" />
    <glyph glyph-name="four" unicode="4" horiz-adv-x="607" 
d="M591 354q-28 -12 -202.5 -253.5t-206.5 -308.5q-5 -11 -19 -11q-10 0 -20 8q-10 10 -10 17q0 8 101.5 155.5t101.5 149.5t-1 2q-9 0 -71 12q-33 6 -58 13t-51.5 19.5t-40.5 33t-14 47.5q0 22 14.5 53.5t43.5 72.5t54.5 74.5t64.5 82t58 73.5q17 21 28 21h3q14 -3 14 -16
q0 -15 -20.5 -49.5t-20.5 -37.5q0 -4 -11 -8q-12 -4 -92 -111.5t-88 -144.5q-2 -12 -2 -13q0 -44 139 -65q59 -9 69 -16q6 -3 9 -3l47 59q47 58 97 118.5t56 65.5q9 9 16 9q2 0 12 -4q16 -8 16 -22q0 -15 -16 -23z" />
    <glyph glyph-name="five" unicode="5" horiz-adv-x="797" 
d="M502 455q0 -1 0.5 -3.5t0.5 -4.5l1 -8q0 -13 -8 -22.5t-17 -9.5q-14 0 -18 20q-5 23 -6 30q-3 11 -8 11q-8 0 -19 -20.5t-18 -50.5q-3 -16 -16 -131.5t-38 -174.5q-19 -43 -54 -68t-75 -25q-41 0 -84 27.5t-43 63.5q0 25 18 49.5t36 24.5l8 -2q11 -6 11 -16
q0 -12 -14 -32q-12 -15 -12 -23q0 -2 2 -8q7 -13 32.5 -24.5t48.5 -11.5q28 0 50 20q37 33 52 107t24 159.5t29 126.5q26 52 60 52q8 0 17 -3q10 -3 20 -3q12 0 25 5q66 23 216 23q91 0 108 -10q16 -11 16 -32q0 -20 -14 -29q-6 -5 -15 -5q-8 0 -14 5.5t-6 14.5q0 12 -74 12
q-139 0 -204 -19q-18 -7 -18 -15z" />
    <glyph glyph-name="six" unicode="6" horiz-adv-x="633" 
d="M633 538q0 -9 -10 -30q-14 -34 -27 -34q-5 0 -13 5q-8 8 -8 12q0 1 4 17q6 12 6 20l-1 2l-2 1q-16 0 -59 -24t-97 -68.5t-104 -98t-84 -121t-34 -129.5q16 9 41 21.5t82.5 34t91.5 21.5q19 0 33 -15.5t14 -26.5q0 -42 -65.5 -96t-133.5 -54q-10 0 -19 1t-17 4t-14 5
t-13 6.5t-10 6.5t-10 7t-8 6q-5 -4 -13.5 -10t-13 -9l-10.5 -7t-10.5 -5.5t-8.5 -1.5q-6 0 -10 3q-10 7 -10 17q0 8 7.5 17.5t15 15.5t18.5 13.5t12 8.5q0 82 37 165t91.5 144.5t115.5 110.5t111 74.5t75 25.5h8q19 -2 26 -5.5t11 -13.5q5 -10 5 -16zM223 37q0 -5 12 -9
t27 -4q53 0 96 32t55 53l2 4l1 3q0 3 -6 3q-29 0 -75.5 -19t-79 -39t-32.5 -24z" />
    <glyph glyph-name="seven" unicode="7" horiz-adv-x="758" 
d="M708 576q0 -15 -34 -47t-104 -89.5t-155.5 -131t-209.5 -194.5t-246 -257q-31 -35 -36 -35q-7 0 -17 12q-6 6 -6 12q0 13 30.5 47.5t144.5 155.5q245 256 549 497q-40 2 -71 2q-100 0 -241 -6.5t-159 -10.5l-35 1q-9 6 -9 17q0 13 12 19q20 10 229 20t268 10q90 0 90 -22
z" />
    <glyph glyph-name="eight" unicode="8" horiz-adv-x="882" 
d="M468 234q-10 0 -86.5 -52.5t-151 -116t-74.5 -85.5q0 -6 6 -9q9 -3 33 -3q37 0 63 6q81 19 152.5 85.5t71.5 123.5q0 51 -14 51zM813 653q69 0 69 -53q0 -32 -38 -78t-92.5 -89t-108.5 -81.5t-92 -61.5l-38 -24q0 -9 8 -35q7 -21 7 -44q0 -50 -32 -100.5t-90 -91.5
q-105 -76 -208 -76q-41 0 -65 15t-24 42q0 38 48 87q56 60 202 159q76 52 78 55q0 6 -26 27q-24 19 -38 19q-1 0 -3.5 -0.5t-4.5 -0.5l-8 -1q-13 0 -22.5 9t-9.5 20q0 10 7 16q8 8 22 8q46 0 99 -48l27 -25q219 147 265 185q32 26 55 52q33 38 33 56q0 14 -18 14
q-32 0 -107 -25.5t-167.5 -69t-193 -114t-168.5 -146.5q-44 -51 -58 -51q-6 0 -11 5q-10 10 -10 15q0 10 45.5 61t81.5 82q117 101 302.5 194.5t283.5 93.5z" />
    <glyph glyph-name="nine" unicode="9" horiz-adv-x="667" 
d="M666 486l1 -9q0 -29 -26 -66t-71 -84.5t-139.5 -169.5t-199.5 -279q-56 -86 -70 -86q-21 0 -21 14q0 22 56 105q95 140 189.5 264t142.5 177l47 54q-11 0 -148 -66q-222 -106 -275 -106q-24 0 -38 13.5t-14 32.5q0 48 77 117t185.5 120.5t188.5 51.5q37 0 63 -13
q29 -14 39.5 -28t12.5 -42zM602 475q23 9 23 12q0 8 -10 17.5t-24 14.5q-17 5 -36 5q-66 0 -164.5 -44t-171.5 -108q-21 -19 -47 -48.5t-26 -36.5q0 -4 11 -4q22 0 57 13q32 11 205 93t183 86z" />
    <glyph glyph-name="colon" unicode=":" horiz-adv-x="268" 
d="M173 67q0 -6 -13 -15.5t-29 -9.5q-15 0 -23 6.5t-8 14.5q0 10 12 17t27 7t26 -9q8 -8 8 -11zM268 280q0 -8 -6 -15q-9 -9 -12 -9q-2 1 -3 1q-8 0 -14 -6q-8 -5 -15 -5q-4 0 -9 3q-9 5 -9 15q0 13 17 32q15 15 22 15q3 0 8 -3q21 -10 21 -28z" />
    <glyph glyph-name="semicolon" unicode=";" horiz-adv-x="428" 
d="M428 266v-4q0 -4 -1 -9t-1.5 -8.5t-0.5 -4.5q0 -7 -13 -7q-9 0 -14 4q-20 16 -20 46q0 21 18 21q11 0 21.5 -11.5t10.5 -26.5zM263 77q10 0 16 -11q3 -6 3 -13q0 -35 -66.5 -82t-96.5 -47q-7 0 -13 6t-6 12q0 9 16.5 20.5t37.5 21.5t45.5 29.5t36.5 41.5q13 22 27 22z
" />
    <glyph glyph-name="less" unicode="&#x3c;" horiz-adv-x="557" 
d="M632 724q11 0 18 -6t7 -16q0 -11 -34 -43.5t-76.5 -72t-55.5 -60.5q-18 -28 -35 -28q-10 0 -14 13l-1 5q0 3 1 6.5t3.5 8.5l4.5 9t7.5 12t8.5 12.5t11 15.5t12 17q-157 -108 -334 -242q-1 -1 -1 -3q0 -11 40 -55t103.5 -110.5t96.5 -106.5q26 -32 34 -38q11 -11 11 -20
q0 -5 -7 -14q-8 -8 -16 -8q-17 0 -55 45q-64 77 -135.5 150.5t-98.5 104.5t-27 51q0 15 13 28q40 38 220 167q52 38 153 99.5t129 74.5q12 4 17 4z" />
    <glyph glyph-name="equal" unicode="=" horiz-adv-x="507" 
d="M484 190q0 -11 -7 -14q-20 -5 -225 -5q-114 0 -120 6q-3 5 -3 9q0 15 15 20q30 12 185 12q125 0 145 -9q10 -7 10 -19zM463 275l-17 1q-49 0 -177 -7t-136 -10q-7 -4 -13 -4q-9 0 -14.5 6.5t-5.5 15.5q0 22 25 26q21 4 164 12t187 8h11q20 -6 20 -19q0 -10 -13 -19.5
t-31 -9.5z" />
    <glyph glyph-name="greater" unicode="&#x3e;" horiz-adv-x="539" 
d="M539 380q0 -22 -54.5 -72t-152.5 -130t-151 -130q-48 -48 -55 -48q-6 0 -16 9.5t-10 17.5q0 17 194 180.5t194 169.5q0 8 -70 90t-84 91q-12 8 -41 49t-29 51q0 7 7 11.5t15 4.5q7 0 10 -2q15 -9 129 -143.5t114 -148.5z" />
    <glyph glyph-name="question" unicode="?" horiz-adv-x="781" 
d="M146 -33q10 0 17.5 -6.5t7.5 -11.5q0 -6 -11 -14q-15 -13 -15 -29q0 -17 -15 -17q-12 0 -21 13q-9 12 -9 25q0 15 15 27q16 13 31 13zM647 698q93 0 125 -67q9 -18 9 -38q0 -87 -199 -190q-116 -61 -181 -118t-159 -182q-31 -41 -43.5 -54.5t-20.5 -13.5q-5 0 -15 8
q-9 13 -9 17q0 8 102 137q55 70 126 128t129.5 92t111 64t82 58t29.5 58q0 27 -36 43q-23 11 -57 11q-77 0 -154.5 -47.5t-77.5 -100.5q0 -13 -6 -23t-13 -10q-9 0 -16.5 13t-7.5 29q1 66 94 126t187 60z" />
    <glyph glyph-name="at" unicode="@" horiz-adv-x="754" 
d="M480 327q-6 0 -46 -23.5t-55 -37.5l-15 -15v-1q3 0 62 37q54 35 54 40zM754 373q0 -53 -28 -112q-30 -62 -83.5 -105.5t-97.5 -43.5q-18 0 -33 10q-32 21 -32 74q0 24 9 50q8 21 8 27l-1 1q-4 0 -58 -34q-104 -67 -136 -67q-19 0 -26.5 8t-7.5 27q0 29 55.5 74.5
t129.5 80.5t123 36h11q15 0 21.5 -3t17.5 -15q19 -22 19 -52q0 -23 -13 -38q-8 -6 -14 -6q-15 0 -18 38q-1 19 -5.5 25.5t-17.5 6.5q-10 0 -57 -7q2 -1 9.5 -5t9.5 -5.5t6.5 -5t6 -6t3 -7t1.5 -9.5q0 -16 -13 -49q-16 -45 -16 -69q0 -20 9 -29q6 -6 11 -6q7 0 32 13
q54 26 91 85.5t37 116.5q0 52 -34 84t-106 32q-101 0 -223.5 -80t-169.5 -177q-26 -51 -26 -104q0 -42 17.5 -73.5t49.5 -43.5q15 -7 41 -7q58 0 258 56q32 9 46 9q23 0 23 -26q0 -9 -8.5 -17t-16.5 -8l-6 1q-14 0 -66 -15q-164 -48 -230 -48q-67 0 -111.5 48t-44.5 124
q0 93 73.5 192t218.5 170q100 48 174 48q87 0 137.5 -45.5t50.5 -118.5z" />
    <glyph glyph-name="A" unicode="A" 
d="M1445 221l-547 -1008q-38 -71 -63 -71q-5 0 -13.5 7t-8.5 14q0 8 27 48q24 36 161 288t262 486l125 234l-591 -29q-5 -3 -91 -114t-98 -111q-9 0 -16.5 7t-7.5 16q0 5 6.5 16t20.5 30t29.5 39.5t40 53.5t45.5 61q-154 -9 -336.5 -14t-248.5 -9t-73 -17q-6 -10 -19 -10
q-16 0 -32.5 11t-16.5 21q0 9 6 15t22 10t25 5t32 4q173 18 302 18q65 0 199.5 6t159.5 10q18 2 45 41q139 200 436 598.5t328 398.5q6 0 15 -14q6 -10 6 -13q0 -11 -18 -41t-81 -126q-26 -38 -49 -74.5t-34 -54.5t-21 -33t-15 -19.5t-10 -4.5q-8 0 -14 6.5t-6 14.5
q0 5 3 11q3 4 3 7q-7 0 -146 -187t-163 -222q44 48 116 125t235.5 244.5t259.5 252.5q167 148 233 148q45 0 45 -52q0 -78 -101.5 -299.5t-338.5 -672.5l78 1q21 0 32 -0.5t22.5 -3t16 -8t4.5 -14.5q0 -12 -9.5 -22.5t-20.5 -10.5q-6 0 -13 5q-4 5 -46 5zM891 246
q58 0 189 6t233 12l102 6q10 18 26 49t63.5 122t90.5 175.5t95.5 192t90.5 190t64 150t26 90.5q0 8 -3 11l-3 1q-17 0 -74.5 -40.5t-121.5 -96.5q-146 -129 -350 -344t-337 -366t-133 -156q0 -2 42 -2z" />
    <glyph glyph-name="B" unicode="B" horiz-adv-x="3299" 
d="M3191 308q0 -82 -79 -161t-228 -142q-121 -52 -307 -93t-365.5 -63.5t-368.5 -37.5t-308.5 -19.5t-192.5 -4.5q-85 -132 -85 -141q0 -10 -13.5 -19.5t-27.5 -9.5q-8 0 -16 7.5t-8 20.5q0 21 31 68q36 56 36 62t-19 6q-80 0 -322.5 5t-306.5 13q-8 1 -84 7.5t-149.5 14.5
t-157.5 19.5t-141.5 27.5t-69.5 33q-9 13 -9 27q0 27 44.5 51t144.5 53q126 36 307.5 66.5t346 48.5t320.5 30.5t242 17t100 4.5h5q46 0 59 10.5t62 83.5l37 51q36 52 78 111.5t81.5 118t47.5 73.5q-148 -2 -164 -2q-52 0 -68.5 4t-16.5 15q0 6 3 15q3 14 17 17.5t96 11.5
q60 6 128 18t72 17q3 3 57.5 84t65.5 98v1q0 5 -25 5q-30 0 -93.5 -6t-133.5 -14.5t-135 -17.5t-108.5 -15t-44.5 -6q-16 0 -25 -13q-9 -10 -14 -10t-20 5q-37 14 -37 36q0 6 3 11q7 14 100 31.5t222.5 32.5t208.5 23t123 12q112 152 164 220t68 84t26 16q28 0 28 -27
q0 -22 -22 -57q-3 0 -159 -237q90 0 213 -11t168 -20q33 -7 51 -11.5t41 -14t33.5 -22.5t10.5 -31q0 -45 -103 -75t-388 -86q-14 -2 -21.5 -3.5l-20 -4l-22.5 -4.5q255 -15 456.5 -55t326.5 -95.5t190 -121t65 -136.5zM2145 932q-2 -2 -59.5 -88t-57.5 -88h3q40 0 317 59
t277 72q-11 14 -84.5 24.5t-169 14t-150.5 5t-76 1.5zM1313 -152q2 2 103 143t101 142q0 2 -23 2q-97 0 -392.5 -26t-596.5 -68q-121 -18 -274.5 -58.5t-153.5 -54.5l1 -1q11 -9 128 -27.5t361.5 -37t514.5 -18.5h61q168 2 170 4zM2563 -28q170 38 294.5 85.5t201 111
t76.5 133.5q0 79 -95 148t-245 113.5t-331 70t-358 25.5q-89 0 -137 -11q-10 -2 -22 -15t-37 -49l-259 -370l18 -1q114 0 139 5q275 11 454 11q128 0 225 -6q76 -5 106 -14t32 -26l1 -7q0 -10 -11.5 -14t-46.5 -4q-24 0 -119 4t-205 4q-210 0 -423.5 -10t-222.5 -19
q-6 -4 -96 -128.5t-98 -136.5q-6 -8 -6 -13q0 -10 36 -10q12 0 32 1t51.5 3t57.5 3q617 32 988 116z" />
    <glyph glyph-name="C" unicode="C" horiz-adv-x="1421" 
d="M1440 223q0 -12 -56 -53q-92 -68 -212 -140.5t-264 -145.5t-294 -119.5t-265 -46.5q-141 0 -245 76.5t-104 204.5q0 98 82 220t211 236t290 224.5t317.5 192t294.5 131.5t220 50q60 0 99 -31t39 -90q0 -61 -50.5 -142.5t-128.5 -161t-174 -158t-186.5 -138t-166 -96.5
t-111.5 -37q-20 0 -37.5 14.5t-17.5 33.5q0 58 105 181.5t241 225.5t211 102q46 0 46 -35q0 -11 -5.5 -19t-14.5 -8q-7 0 -14.5 5.5t-7.5 8.5q0 7 -9 7q-57 0 -180.5 -97.5t-223.5 -210t-100 -154.5q0 -6 13 -6q45 0 169.5 76t257 181t235.5 228t103 204q0 68 -92 68
q-82 0 -218 -49t-286.5 -129t-305 -187t-277.5 -216.5t-201 -224.5t-78 -206q0 -107 91.5 -167t218.5 -60q100 0 238 42.5t275.5 109.5t261 140t219.5 143q61 45 68 45q5 0 12 -7.5t7 -14.5z" />
    <glyph glyph-name="D" unicode="D" horiz-adv-x="2418" 
d="M349 -485q-60 0 -115 7t-111.5 24t-90 52.5t-33.5 86.5q0 54 34 105.5t88.5 92t131.5 79t152 66t162 53t150.5 41t127.5 28.5q56 12 66 25q15 21 201 244t361.5 435t175.5 222l-5 1q-93 0 -346 -48t-481 -131q-59 -22 -114.5 -47t-59.5 -33v-1q0 -5 14 -12q34 -15 34 -31
q0 -5 -3 -8q-8 -9 -20 -9t-30 9q-48 24 -48 47q0 25 61.5 61t171.5 75t245.5 75t301 64.5t321.5 39.5l51 54q53 53 59 53q7 0 17.5 -9t10.5 -22q0 -19 -19 -50l-11 -20q76 -4 140 -9.5t144 -18.5t143 -31t126 -48.5t105.5 -68.5t68.5 -93.5t26 -122.5q0 -117 -101 -257.5
t-268 -274.5t-393 -261t-466 -222.5t-497.5 -153.5t-477.5 -58zM46 -312q0 -36 27 -62t70 -38.5t85.5 -18t85.5 -5.5q239 0 504.5 58.5t503.5 153.5t457.5 220t378 254.5t253 259t94.5 232.5q0 75 -43 135.5t-111.5 98t-160.5 62t-183 34.5t-185 10q-10 0 -29 -0.5t-28 -0.5
q0 -1 -23 -37t-38.5 -61.5t-43 -71.5t-46.5 -82t-38.5 -75.5t-29.5 -71t-10 -50.5q0 -13 -6.5 -21t-15.5 -8q-4 0 -9 3q-11 6 -11 18q0 4 2 22q5 51 46 141.5t80 154.5l38 65q0 -1 -337.5 -408t-338.5 -408l-13 -17q156 31 364.5 47.5t374.5 16.5q151 0 175 -12
q15 -8 20.5 -15t5.5 -23q0 -12 -7.5 -17.5t-14.5 -5.5q-6 0 -17 10q-18 18 -168 18q-155 0 -372 -19.5t-406 -54.5q-142 -194 -165 -240q-4 -7 -4 -19v-7q1 -1 1 -3q0 -11 -14 -25t-26 -14t-20 8.5t-8 20.5l1 7q4 16 44.5 79.5t78.5 118.5l38 55h-3q-12 0 -93 -18
t-201 -55.5t-233.5 -85t-194.5 -115.5t-81 -138z" />
    <glyph glyph-name="E" unicode="E" horiz-adv-x="1245" 
d="M675 366q0 15 -68.5 41.5t-166.5 60.5t-196 74t-166.5 93t-68.5 106q0 78 135 178.5t345.5 192.5t445.5 171.5t455.5 127t355.5 47.5q25 0 47 -3.5t42.5 -11.5t33 -23.5t12.5 -36.5q0 -68 -60.5 -172t-147.5 -206t-177 -193.5t-157 -148.5t-79 -57q-60 0 -60 24
q0 17 11 32.5t31 15.5q8 0 20 5t20 11l8 5q31 19 115 98.5t178 182t166 214t72 177.5q0 39 -69 39q-187 0 -482 -78.5t-557 -185t-453 -220.5t-191 -179q0 -38 55.5 -78.5t142 -75.5t175.5 -66t173 -62t117 -51q10 -6 17 -17t7 -19q0 -36 -27 -54q-332 -235 -467 -346
q-199 -165 -199 -224q0 -22 36 -22q63 0 147.5 21t170 54.5t184 79.5t181 90t169 93t141 82t103.5 63t50 31q5 3 8 3q10 0 10 -18q0 -20 -18 -24q-11 -6 -93.5 -59.5t-168.5 -107.5t-212.5 -124t-238 -122.5t-231.5 -89t-206 -36.5q-95 0 -95 77q0 44 50 107.5t125 126.5
t162.5 129.5t162.5 118t125 90.5t50 49z" />
    <glyph glyph-name="F" unicode="F" horiz-adv-x="1307" 
d="M414 -546q-5 0 -17 9t-12 16l2 5q33 36 172 223t261 355l122 169q-435 -24 -435 -30q45 -6 45 -27q0 -3 -9 -12t-15 -9q-99 36 -177 36q-24 0 -34 0.5t-21.5 2t-15.5 6t-4 12.5q0 16 27 21q40 8 211 22.5t322 24.5l151 10q18 24 48 65t107.5 150.5t136 200.5t107 183
t48.5 130q0 21 -31 33t-61 14l-31 1q-161 0 -380.5 -48.5t-409.5 -118.5t-324 -156t-134 -154q0 -45 131 -82.5t328 -37.5q105 0 258 6t159 6q87 0 87 -30q0 -18 -24 -18q-36 6 -63 6q-18 0 -154.5 -7.5t-271.5 -7.5q-95 0 -179 7.5t-163 25t-125 51.5t-46 81q0 87 143 184
t347.5 170.5t435 122t400.5 48.5q162 0 162 -93q0 -64 -105 -244.5t-210 -329.5l-105 -149q87 9 132 9q44 0 55 -3t11 -18q0 -19 -20 -29t-31 -10q-27 3 -66 3q-57 0 -120 -9q-582 -786 -615 -786z" />
    <glyph glyph-name="G" unicode="G" horiz-adv-x="1374" 
d="M555 -762q-27 0 -27 30t17 54t37 24l549 921q-204 -160 -495.5 -291.5t-477.5 -131.5h-2q-78 0 -117 36t-39 99q0 108 63.5 242t166 261.5t233.5 250.5t262.5 214.5t257 148t214.5 56.5q135 0 135 -126q0 -50 -33 -124.5t-80.5 -144t-95.5 -132.5t-82 -101t-36 -38
q-7 0 -15.5 7t-8.5 14q12 14 33 39t73.5 94.5t93 132t73.5 135.5t33 121q0 78 -87 78q-81 0 -200.5 -54.5t-246 -143t-254 -207t-227 -241t-162 -251t-62.5 -231.5q0 -43 23.5 -65t81.5 -22q87 0 209.5 38.5t236.5 93t215.5 109t162.5 93.5l61 38q-49 0 -311 -55.5
t-274 -56.5q-36 0 -36 22q0 16 19 23.5t65 12.5q33 4 184 37.5t314.5 63t251.5 29.5q32 0 61 -15.5t29 -39.5q0 -21 -18.5 -43.5t-32.5 -22.5q-18 0 -18 18q0 8 3 22.5t3 18.5q0 14 -41 14q-11 0 -22 -5t-12 -11q-5 -20 -79 -143t-190 -313.5t-181 -302.5
q-159 -279 -198 -279z" />
    <glyph glyph-name="H" unicode="H" horiz-adv-x="1624" 
d="M756 -706q-25 0 -25 20q0 40 142 277.5t285 454.5l142 217l-14 1q-31 0 -125 -4.5t-176 -9.5l-82 -4q-268 -367 -325 -484q-28 -57 -78 -128t-69 -79q-10 -4 -12 -4q-6 0 -29 23q34 57 67.5 109t50.5 77t31 47.5t18.5 35.5t4.5 27q0 49 -34.5 88.5t-85.5 63.5
t-116.5 44.5t-122.5 31.5t-108.5 22.5t-69.5 20.5q-25 11 -25 28q0 11 12 21q22 19 107.5 35.5t205 28.5t225.5 20.5t212 15t121 7.5q17 24 65.5 90t83.5 114t85.5 119t85.5 125.5t69 110.5t51.5 97t17.5 63q0 17 -9.5 26t-47.5 15.5t-110 6.5q-83 0 -194 -6t-326 -21
t-334 -23q-119 -7 -143 -7q-36 0 -47 5t-11 19q0 15 10 22.5t40 15.5q32 8 49 8t20.5 -11.5t15.5 -11.5q0 1 189.5 15t417 28.5t304.5 14.5q116 0 169 -20t53 -73q0 -66 -82 -200t-274 -397q-86 -118 -86 -123h8q40 0 208 7.5t174 9.5q12 5 182.5 262t344.5 511t196 254
q5 0 15 -10t10 -13q0 -5 -40 -70q-61 -101 -109 -191t-63 -117.5t-24 -27.5q-20 0 -20 22q0 5 1 12.5t1 8.5v2q-2 0 -27 -40t-134.5 -204.5t-269.5 -395.5q127 6 177 6q39 0 52 -4.5t13 -17.5q0 -16 -10.5 -26t-24.5 -10q-3 0 -18 4.5t-41 4.5q-42 0 -181 -6
q-142 -195 -361 -552.5t-220 -393.5q-1 -13 -9 -21.5t-19 -8.5zM607 -90q97 140 239 337q-54 -5 -211 -14t-285.5 -22.5t-263.5 -39.5q12 -3 61.5 -13t69 -14.5t65.5 -16t69 -20t61.5 -22t61 -27.5t48.5 -31.5t43 -39t28 -45.5z" />
    <glyph glyph-name="I" unicode="I" horiz-adv-x="975" 
d="M444 -129q-21 0 -21 21q0 11 27 57l600 846q36 46 36 62v13q0 28 40 78.5t79.5 91.5t39.5 46q-70 -6 -516 -6q-58 0 -72.5 2.5t-14.5 15.5q0 16 42 30q14 3 144.5 5t286.5 4t193 3q51 45 69 45q8 0 13 -6.5t5 -14.5t-2.5 -15t-4.5 -9l-2 -3q243 -6 258 -21l6 -12
q0 -24 -41 -44.5t-69 -20.5q-3 0 -3 3t5.5 14t5.5 15q0 6 -51.5 9.5t-102.5 3.5l-52 1q-39 -43 -433 -584.5t-414 -596.5q-7 -13 -22 -23t-29 -10zM43 -204q-26 0 -34.5 5t-8.5 19q0 42 309 42l270 2q19 0 34.5 -7t15.5 -23t-23 -20.5t-108 -4.5l-31 1q-150 0 -285.5 -7
t-138.5 -7z" />
    <glyph glyph-name="J" unicode="J" horiz-adv-x="1161" 
d="M1646 1076q0 -3 -12 -17q-8 -8 -15 -8q-6 0 -14 4q-6 3 -11 3q-8 0 -34 -29q-106 -119 -282 -355q-101 -138 -285 -400q-198 -282 -318.5 -424t-188.5 -173q-45 -21 -80 -21q-13 0 -25 3q-96 24 -229 270q-6 10 -25.5 45.5t-28.5 51.5q-60 109 -79.5 151.5t-19.5 68.5
q0 9 4 29q29 103 282 211q115 49 391.5 133.5t373.5 100.5q15 3 27 3q47 0 57 -27l1 -9q0 -9 -6 -15t-15 -6q-10 0 -19 6q-5 3 -16 3q-55 0 -382 -98t-456 -162q-80 -40 -133 -81t-60 -69l-2 -18q0 -20 63 -145t147.5 -253.5t130.5 -141.5q13 -3 27 -3q51 0 133 79
q76 72 180.5 207.5t287.5 398.5q295 421 454 605l50 59h-23q-80 0 -661 -42t-613 -42q-52 0 -57 17l-2 12q0 16 25 25t87 14q40 3 61 3q24 0 33 -4q10 -3 27 -3q31 0 96 8q479 22 917 55l160 12l34 32q54 51 71 51q6 0 12 -3q14 -8 14 -19q0 -16 -27 -52t-27 -41z" />
    <glyph glyph-name="K" unicode="K" horiz-adv-x="840" 
d="M1317 -411l-43 -1q-76 0 -161.5 23.5t-180 75.5t-183 125.5t-172 182.5t-145.5 239q-265 -314 -301 -353q-57 -60 -83 -64q-47 0 -48 55q0 98 127 394t260.5 549t156.5 259q12 0 18 -6q6 0 6 -15v-7q0 -36 -15.5 -84t-29.5 -50q-31 -5 -217 -372q-91 -180 -171.5 -376.5
t-80.5 -262.5v-18q16 5 104.5 103.5t169.5 193.5l80 96q-3 11 -5.5 18t-3.5 8.5t-2 7t-2 18.5q0 16 13 20q11 0 45 -21q134 153 238 265q35 38 35 44q-1 3 -6.5 8.5t-5.5 12.5q0 9 20 22.5t64.5 45t86.5 70.5q222 227 401.5 374t245.5 152q25 0 25 -21q0 -63 -195 -238.5
t-435 -317.5q-2 -1 -18 -11t-21.5 -14t-26.5 -21t-39 -35t-52.5 -53.5t-74 -79t-97 -109t-127.5 -145.5q18 -49 57 -116.5t113.5 -159t163 -167.5t216 -132.5t263.5 -63.5q12 0 21 -1.5t14 -3.5t8.5 -5.5t4.5 -5.5t2 -6t1 -5q0 -5 -7 -13t-11 -8zM1005 852q14 2 131.5 91
t231.5 188t114 120h-3q-23 -5 -141 -103t-225.5 -194.5t-107.5 -101.5z" />
    <glyph glyph-name="L" unicode="L" horiz-adv-x="1290" 
d="M96 -453q-7 4 -33 8t-44.5 11t-18.5 20q0 28 108 83t216 95l108 41q15 22 131 191.5t251 365t276 398.5t239 336.5t108 133.5q36 0 36 -36q0 -51 -84 -172.5t-300 -365.5l-585 -833q38 12 100 30.5t207 49.5t236 31q58 0 100 -18t64 -49t31.5 -65.5t9.5 -75.5
q0 -42 -9 -85t-19 -67t-15 -24q-11 0 -20.5 7t-9.5 14q0 3 4.5 26t9 57.5t4.5 64.5q0 167 -135 167q-97 0 -219.5 -25t-240.5 -59t-143 -39q-12 -19 -31 -49q-34 -54 -45 -68.5t-20 -14.5q-7 0 -15.5 7.5t-8.5 16.5q0 5 10 22.5t22.5 38t15.5 26.5q-225 -99 -306 -141
q3 -2 9 -5t9 -5.5t7.5 -6t6 -7.5t1.5 -9q0 -9 -5.5 -15t-12.5 -6z" />
    <glyph glyph-name="M" unicode="M" horiz-adv-x="1706" 
d="M1473 885q-15 0 -252.5 -208t-484.5 -421.5t-281 -223.5h-5q-12 0 -22.5 11t-10.5 25q0 33 84 169.5t185.5 285t185.5 291.5t84 188q0 27 -41.5 38.5t-142.5 11.5q-124 0 -276.5 -15t-243.5 -29l-90 -15q-4 0 -6 -16t-23 -16q-11 0 -19 2q-16 3 -49 4t-49 6t-16 18
q0 6 4 13q6 9 147 32.5t336 44.5t318 21q89 0 125 -11q72 -21 72 -86q0 -53 -57.5 -155.5t-221.5 -350.5q-76 -116 -160.5 -253t-84.5 -146q8 0 167.5 138.5t348.5 305.5t360 306t199 139q7 0 15 -6q12 -9 12 -18q0 -14 -23 -49.5t-91 -128.5q-116 -161 -282 -413t-166 -265
q1 0 214 203.5t437.5 415.5t249.5 227q17 9 28 9q23 0 23 -25q0 -14 -10 -34q-29 -63 -229.5 -348.5t-451.5 -637t-344 -493.5q-48 -73 -49 -93q-2 -24 -21.5 -49t-37.5 -25q-14 0 -18 4q-4 6 -4 12q0 48 248 405.5t521.5 737.5t306.5 442l-202 -194
q-202 -195 -420.5 -399.5t-251.5 -221.5q-18 -9 -28 -9t-19 8t-9 24q0 19 12 40q31 60 158.5 254.5t239.5 358.5z" />
    <glyph glyph-name="N" unicode="N" horiz-adv-x="1997" 
d="M2162 861q-9 -13 -104 -179.5t-193 -333t-196.5 -309.5t-129.5 -143q-17 0 -29.5 12t-12.5 31q0 11 48.5 224.5t97.5 421.5l49 208l-2 3q-107 -132 -287 -400q-111 -165 -197 -277t-144 -174t-111 -94t-86.5 -39.5t-82.5 -7.5q-108 0 -412 104t-349 147q-21 19 -21 39
q0 19 20 36q48 43 287.5 70.5t476.5 45t268 33.5q8 3 14 3q10 0 16.5 -8t6.5 -18q0 -24 -31 -29q-56 -11 -317.5 -33t-468.5 -49t-207 -56q9 -16 157.5 -72t325 -106.5t245.5 -50.5q47 0 97.5 24.5t105.5 77t106 111.5t118.5 152.5t122.5 173t138 200t147 209.5
q103 143 114 174q68 179 83 189q6 5 14 5q21 0 21 -23q0 -11 -70 -219q-222 -878 -222 -940q13 0 67.5 81.5t126 201t140 237t121.5 209.5t58 100q122 189 156 234q112 152 232 212q110 55 257 55q36 0 36 -22q0 -9 -7 -15.5t-19 -7.5q-47 -3 -87 -8.5t-76 -16t-64 -20
t-58 -29.5t-50.5 -34.5t-47.5 -45t-44 -51t-46.5 -62t-47.5 -69.5t-53 -82z" />
    <glyph glyph-name="O" unicode="O" horiz-adv-x="1525" 
d="M1455 1119q1 0 20 -5.5t26 -8.5t26 -10t28 -14.5t25 -19t24.5 -25.5t18 -32t13.5 -40.5t4 -49.5q0 -94 -55 -231t-143.5 -279.5t-203.5 -286.5t-229.5 -255.5t-227 -181.5t-191.5 -70q-78 0 -107 47.5t-29 136.5q1 100 37.5 225t94 243.5t127 239t138.5 221t126.5 179
t92.5 122.5l36 45q0 6 -17 6q-136 0 -386 -48.5t-449 -109t-212 -92.5q-6 -19 -21 -19q-9 0 -15 7.5t-6 20.5q0 45 168 106.5t443 115t547 70.5q2 2 33 33.5t50 50.5t55 53t63.5 56t59 45.5t57.5 35.5t45 12q40 0 40 -39q0 -21 -12.5 -56.5t-24 -60t-37.5 -74.5t-32 -63z
M1517 1368q-65 -32 -119 -77.5t-169 -156.5q6 0 32.5 -1.5t66 -3.5t62.5 -3h3q16 0 65 102t59 140zM590 -339q70 0 174 67t213 174.5t218.5 245.5t195.5 275t139.5 269t53.5 223q0 43 -10 72t-33 45.5t-46.5 25t-63.5 16.5q-188 -337 -221 -337q-5 0 -12.5 6t-7.5 14
q0 13 30 55q53 68 163 270h-201q-112 -133 -224.5 -293.5t-216.5 -339.5t-169 -356.5t-65 -307.5q0 -124 83 -124z" />
    <glyph glyph-name="P" unicode="P" horiz-adv-x="2064" 
d="M2442 797q0 -148 -209 -299q-78 -56 -181 -105.5t-210 -83.5t-211.5 -61.5t-205.5 -45.5t-171.5 -29t-129 -18.5t-60.5 -7.5q-10 -2 -62.5 -94t-109 -182t-78.5 -90q-8 0 -16.5 6t-8.5 16q0 12 14 26q23 22 101.5 148.5t78.5 154.5q0 6 -4 6q-195 -18 -386 -18
q-360 0 -360 78q0 36 71.5 69.5t165.5 54t188 29.5q60 5 76 5q4 0 8 -0.5t5 -0.5q10 -4 10 -17q0 -11 -7 -17q-9 -6 -111 -19q-89 -11 -220.5 -41.5t-131.5 -57.5q0 -8 39.5 -16.5t115 -14t164.5 -5.5l112 2q243 10 292 21q14 3 45 62q26 49 69 121t105.5 168t123 161.5
t95.5 65.5q37 0 37 -40q0 -35 -48.5 -135.5t-97 -190.5t-48.5 -99t-6 -15.5t-14 -6.5q-9 0 -15.5 8t-6.5 18q0 18 82.5 176.5t99.5 213.5l1 8q0 4 -3 4q-13 0 -63 -61t-130 -184.5t-157 -266.5q199 20 380 57.5t324 84.5t259.5 103.5t193 115.5t118 119.5t41.5 116.5
q0 127 -205.5 206.5t-610.5 79.5q-229 0 -461.5 -25t-400.5 -59.5t-307 -72t-207.5 -61.5t-74.5 -29q-8 -6 -48.5 -13.5t-50.5 -7.5q-29 0 -29 24q0 19 59 30q22 4 120.5 36t231.5 67.5t305.5 73t400 62t458.5 24.5q218 0 387 -26t272 -71.5t155.5 -105t52.5 -129.5z" />
    <glyph glyph-name="Q" unicode="Q" horiz-adv-x="1847" 
d="M1978 838q0 70 -41.5 107t-119.5 37q-66 0 -159 -29q-25 -8 -31 -14t-14 -31q-21 -67 -76 -166t-111 -170q-58 -76 -137 -151.5t-98 -75.5h-1q-14 3 -14 10q0 16 84 100q126 125 208 259q27 44 56.5 103.5t34.5 80.5l4 17l-50 -25q-162 -82 -321 -212.5t-203 -216.5
q-13 -24 -15.5 -39t-2.5 -57q0 -55 12.5 -89t65.5 -126q46 -77 61.5 -115.5t19.5 -82.5q2 -44 5 -44t52 31q312 196 537.5 442t250.5 418q3 21 3 39zM2030 837q0 -99 -77.5 -231.5t-202.5 -264.5t-282.5 -259t-318.5 -223q-16 -9 -22 -13.5t-13.5 -16t-13.5 -24.5
t-25.5 -49.5t-45.5 -80.5q-78 -128 -78 -161q0 -20 26 -34q17 -8 40.5 -10t98.5 -2q116 0 123 -5q7 -4 7 -14q0 -14 -11 -20q-12 -6 -103 -6q-136 0 -165 9q-54 18 -64 66q0 2 -0.5 6t-0.5 7q0 44 81 181q1 1 31.5 52.5t30.5 52.5q-19 -10 -51.5 -27t-128 -60.5t-185 -76.5
t-203.5 -60t-202 -27q-124 0 -199.5 50t-75.5 157q0 110 83 269t214.5 323t299.5 328.5t332 292t318 207.5t253 80q69 0 107 -38q42 -43 42 -123q0 -23 -1.5 -42.5t-3 -30.5t-1.5 -14q0 -6 3 -6q2 0 20 6.5t57.5 13.5t92.5 7t69 -2.5t37 -13.5q108 -58 108 -173zM919 365
q0 78 53 158q62 93 222 216.5t320 202.5l71 35q16 59 16 113v4q0 40 -8.5 62t-31.5 39q-18 12 -55 12q-48 0 -102 -18q-116 -38 -265.5 -133.5t-298 -220.5t-292 -274t-253 -291.5t-177 -277.5t-67.5 -227q0 -89 59.5 -131.5t159.5 -42.5q140 0 332.5 66.5t353.5 148.5
q96 49 111 63t15 60v11q0 44 -25.5 99.5t-56 101t-56 107.5t-25.5 117z" />
    <glyph glyph-name="R" unicode="R" horiz-adv-x="1380" 
d="M2172 1036q0 -17 -14.5 -33.5t-42.5 -32t-65.5 -29.5t-88 -28.5t-105.5 -27.5t-122 -27t-133.5 -27.5t-144.5 -28.5q-30 -6 -47 -9t-43 -8.5t-48 -9.5q-114 -23 -193 -39t-156.5 -33t-126.5 -29.5t-95 -27t-71 -26.5t-44.5 -26.5t-27 -29t-7.5 -31.5q0 -48 80 -157.5
t204 -236.5t297 -261.5t338 -220.5q23 -13 29.5 -18.5t6.5 -14.5q0 -16 -15 -16q-20 0 -79 28q-153 71 -323 202t-297.5 264t-211.5 254.5t-84 179.5q0 60 7.5 85t36.5 76q5 9 8 14q71 124 71 129q-2 0 -150.5 -196.5t-303 -404t-167.5 -230.5q-10 -19 -24 -19q-8 0 -14 7
t-6 15q0 9 13 34q15 26 318.5 431t371.5 489q59 73 84 99t38 26q8 0 18 -13q3 -5 3 -8q0 -13 -62 -120l-168 -288l-13 -21l41 20q72 36 252 79t380.5 81t392.5 76t317.5 75t125.5 66q0 25 -100 55t-236 46q-126 14 -425 14q-202 0 -460 -24.5t-429 -54.5t-171 -46
q0 -9 17 -26q10 -7 10 -18q0 -10 -9 -18q-5 -3 -9 -3q-16 0 -37.5 27.5t-21.5 45.5q0 35 106 59q202 48 500 77t582 29q134 0 260 -9t237 -28t178.5 -52t67.5 -76z" />
    <glyph glyph-name="S" unicode="S" horiz-adv-x="1224" 
d="M1122 213q-10 0 -13 3.5t-3.5 9t-4 11t-20 9t-46.5 3.5q-23 0 -51.5 -5.5t-45.5 -10.5l-17 -5h1q64 -54 87 -127q9 -30 9 -59q0 -61 -44.5 -132t-124.5 -137.5t-179.5 -121.5t-221.5 -88.5t-239 -33.5q-100 0 -154.5 34t-54.5 101q0 64 44.5 130.5t115 122t156.5 107.5
t172 91.5t156.5 69.5t115.5 45l44 16q-71 41 -162.5 90t-144 77t-111.5 65t-89.5 65.5t-51 65.5t-20.5 78q0 53 38 114t106.5 121.5t173 116t229 98t283.5 68t328 25.5q108 0 192 -8.5t134 -22.5t82.5 -32t44.5 -35.5t12 -36.5q0 -48 -45.5 -99t-76.5 -51q-8 0 -13 6
q-3 5 -3 10q0 11 21 32t42 47.5t21 51.5v3q-2 20 -47 39t-142 32t-225 13q-170 0 -326.5 -26t-273.5 -68.5t-214 -95.5t-157.5 -108t-93.5 -105.5t-33 -88.5q0 -46 34 -87.5t97.5 -80.5t132 -73.5t159 -83.5t156.5 -95q113 33 181 33h8q55 -3 75.5 -16.5t20.5 -40.5
q0 -12 -6.5 -21t-17.5 -9zM213 -417q129 0 266.5 45t240.5 112t169.5 147t66.5 148q0 46 -26 89t-49 63t-26 20q-10 -3 -28 -9.5t-72.5 -26.5t-107 -42t-124.5 -55.5t-134 -67t-125 -75.5t-107 -83.5t-72 -88.5t-28 -92q0 -38 54.5 -61t101.5 -23z" />
    <glyph glyph-name="T" unicode="T" horiz-adv-x="1434" 
d="M2291 1228q336 0 413 -105q33 -43 33 -62q0 -8 -6.5 -14t-12.5 -6q-14 0 -30 27q-21 37 -62 60.5t-101.5 34t-115 14t-132.5 3.5q-341 0 -674.5 -28t-571 -68.5t-424.5 -84t-280 -75.5t-93 -43q10 0 28 -0.5t70 -5.5t102.5 -13.5t119 -27t127 -43.5t118.5 -66t102 -91
t68.5 -122t26.5 -156v-5q0 -96 -39 -256.5t-79 -273.5l-39 -113q5 0 139 220.5t272.5 450t151.5 243.5q10 11 23 11q8 0 14.5 -5.5t6.5 -12.5q0 -19 -138 -272.5t-138 -286.5q0 -9 11 -15q13 -6 13 -17q0 -18 -29 -18q-37 0 -37 44q0 7 3 40l-15 -26q-112 -189 -247 -397
q-47 -68 -57 -75q-12 -6 -21 -6q-13 0 -19 10t-6 21l10 31q10 31 26.5 82t36 116t39 137t36 139.5t26.5 130t10 102.5q0 90 -36.5 166t-96.5 128t-136.5 91t-159 59t-161 28.5t-144.5 2.5t-108 -23l-87 -35l-8.5 8.5t-7 7.5t-3.5 5.5t-2 7.5q0 48 114 105.5t329.5 114
t491 103t633.5 75.5t723 29z" />
    <glyph glyph-name="U" unicode="U" horiz-adv-x="1375" 
d="M755 -574q-7 0 -15.5 8t-8.5 15q0 27 115.5 251t263.5 484q81 142 209.5 353.5t221.5 371.5q-29 -27 -103 -113t-166 -193t-204.5 -234.5t-231.5 -246t-234 -217t-224.5 -158t-190.5 -59.5q-43 0 -72.5 17.5t-41.5 46t-16 50t-4 44.5v12q1 97 54.5 222.5t132.5 242
t171 239t170 218.5t130.5 175.5t52.5 113.5q0 17 -2.5 23t-12.5 10q-15 5 -35 5q-86 0 -261.5 -67t-317.5 -155q-38 -24 -50 -34t-12 -19q0 -24 -20 -24q-11 0 -19 9t-8 24q0 31 106.5 96t256 127t260.5 84q37 7 63 7q100 0 100 -85q0 -34 -39 -99.5t-101.5 -148t-138 -179
t-151 -201.5t-138.5 -205t-103.5 -200t-42.5 -177v-4q0 -14 2 -29t8.5 -38.5t24.5 -38.5t44 -15q85 1 204 71.5t243 182.5t255 247.5t249.5 270.5t215.5 246.5t164.5 181.5t85.5 70q6 0 16 -10q5 -5 5 -15q0 -32 -49.5 -120.5t-176 -297t-221.5 -373.5q-113 -195 -235 -424
t-145 -289q-19 -50 -33 -50z" />
    <glyph glyph-name="V" unicode="V" horiz-adv-x="855" 
d="M2059 1076q0 15 -87.5 22.5t-145.5 7.5q-120 0 -264.5 -18.5t-225.5 -35t-90 -20.5q-5 -5 -5 -14q0 -35 -82 -146q0 -1 -35 -49t-81.5 -112.5t-115.5 -158.5t-140.5 -190.5t-153 -204.5t-157 -204.5t-148.5 -185.5t-130.5 -153.5t-101 -103t-61.5 -38.5q-7 0 -21 14
q-14 15 -14 29l2 20q3 28 30.5 114t69 201.5t91 248t99 260t90 231t65.5 167.5l25 64q0 9 -14 9q-38 0 -143.5 -16t-158.5 -31q-41 -10 -41 -14q0 -1 12.5 -9t12.5 -20q0 -8 -10 -15q-2 -1 -8 -1q-21 0 -51.5 14.5t-30.5 30.5q0 35 165.5 70.5t245.5 35.5q69 0 69 -49
q0 -17 -8.5 -41t-25.5 -61t-26 -61q-125 -327 -267.5 -715t-142.5 -409q0 -5 1 -6q36 0 305 337.5t533.5 700t303.5 440.5h-16q-17 0 -28 8t-11 17q0 12 19 19.5t92 24.5q303 72 580 72h11q33 0 54.5 -0.5t57.5 -2.5t59.5 -7t47.5 -12.5t36 -21t12 -31.5q0 -25 -22.5 -49.5
t-35.5 -24.5q-6 0 -12.5 5t-6.5 12q0 10 14.5 30.5t14.5 25.5z" />
    <glyph glyph-name="W" unicode="W" horiz-adv-x="1001" 
d="M-346 -504q-54 0 -54 63q0 66 170 569.5t213 598.5q87 196 87 206l-3 3q-3 0 -9 -3q-24 -7 -31 -10.5t-7 -10.5q0 -2 1 -7t1 -8q0 -11 -17 -16.5t-63 -7.5q-15 0 -23 6.5t-8 15.5q0 33 103 69q38 15 61 15q38 0 38 -38q0 -20 -11 -53q-1 -4 -57 -154t-117 -318.5
t-127.5 -357t-109.5 -327t-43 -170.5q0 -6 1 -6q31 0 108.5 118t173 291.5t195 351t195 317.5t151.5 169h4q18 0 23.5 -6.5t5.5 -19.5q0 -4 -22.5 -71.5t-54.5 -170.5t-64 -218.5t-54.5 -236.5t-22.5 -204q0 -11 5 -11q21 0 116.5 112.5t214 290t180.5 320.5q97 227 97 319
q0 36 -7.5 81t-7.5 51q0 54 125 100.5t299.5 74t335 42.5t255.5 15q152 0 152 -50q0 -17 -12 -33.5t-24 -16.5q-8 0 -14.5 6t-6.5 13q0 4 4 12.5t4 10.5q0 11 -79 11q-88 0 -234 -12.5t-241 -26.5q-165 -25 -290.5 -60.5t-172 -58t-46.5 -31.5q0 -1 4 -25t8.5 -52.5
t4.5 -39.5q0 -107 -61.5 -258t-152 -294t-186.5 -269.5t-172.5 -203.5t-102.5 -77t-37.5 12t-11.5 44q0 31 21 156.5t69.5 322.5t106.5 341q-36 -32 -118.5 -168.5t-177.5 -305t-191 -333.5t-175.5 -276.5t-113.5 -111.5z" />
    <glyph glyph-name="X" unicode="X" horiz-adv-x="1251" 
d="M1016 495q-37 -191 -37 -389q0 -179 29 -354.5t74 -307t93.5 -227t92.5 -144.5q23 -26 23 -34q0 -4 -5 -11q-10 -9 -15 -9t-24 12q-29 18 -67 70t-81.5 147.5t-79.5 214t-59.5 285t-23.5 345.5q0 186 26 384q-206 -147 -416.5 -293t-306 -213t-150.5 -115
q-57 -48 -69 -48q-3 0 -15 6q-7 4 -7 12q0 18 58 66q123 100 247 232t224.5 264.5t192.5 268.5t161.5 254.5t120.5 211t81 149.5t32 60q15 22 33 22q11 0 21 -10q9 -9 9 -36q0 -46 -73.5 -371.5t-73.5 -348.5q9 0 209.5 160t348.5 284q194 163 242 201.5t61 38.5q9 0 12 -3
q9 -5 9 -12q0 -13 -22.5 -42.5t-54 -65t-40.5 -48.5q-10 -16 -27 -16q-9 0 -15 7q-1 1 -2 3q-2 3 -4 3q-429 -351 -609 -486q-80 -62 -100.5 -81.5t-22.5 -35.5zM341 108l-9 -10q10 0 322 217t320 238l150 694q-9 -21 -27.5 -59.5t-86.5 -161t-150 -249t-222 -311
t-297 -358.5z" />
    <glyph glyph-name="Y" unicode="Y" horiz-adv-x="2799" 
d="M3112 1125q-24 -60 -174.5 -339.5t-214.5 -381.5q-117 -188 -255.5 -313t-325.5 -203.5t-436 -110.5q-106 -15 -270 -15q-291 0 -626.5 45.5t-573.5 121t-238 151.5q0 82 202.5 136t624.5 106q352 44 773 83t688 39q47 0 117 -2q76 -5 98.5 -10t22.5 -18v-4
q0 -10 -26 -12t-159 -3h-39q-91 0 -333 -14t-567.5 -42.5t-623 -65t-504.5 -89t-207 -107.5q0 -65 248 -129t558.5 -100.5t529.5 -36.5q163 0 302.5 17t250.5 43t212 78.5t174.5 99t149.5 131.5t127 150t117.5 179t109.5 194.5t114 218.5q47 92 72 140q-438 -425 -580 -520
q-77 -52 -129 -52q-62 0 -62 80q0 46 52.5 181.5t104.5 248.5l52 112q-6 0 -82 -93t-76 -111v-1q1 -2 1 -5q0 -8 -7.5 -14.5t-16.5 -6.5t-17 7t-8 19q0 11 5 21q20 42 122.5 165t121.5 128l11 1q23 0 26 -25v-2q0 -39 -105 -257q-67 -143 -96 -218t-33.5 -99.5t-8.5 -82.5
q75 0 225 124t411 381q142 138 150 138q9 0 22 -13q9 -9 9 -14q0 -6 -10 -29z" />
    <glyph glyph-name="Z" unicode="Z" horiz-adv-x="2707" 
d="M2738 659q0 -76 -41 -151t-107 -135t-145.5 -114t-160.5 -94.5t-147 -70t-111 -47t-46 -18.5q0 -1 75 -13t181.5 -32.5t213 -45.5t181.5 -59t75 -67q0 -4 -3 -8q-4 -10 -14 -10q-12 0 -57 22q-71 37 -158.5 65.5t-201 49.5t-191 32.5t-215.5 28.5q-390 -118 -723 -162
t-571 -44q-81 0 -193 11t-229.5 42.5t-138.5 75.5q-9 18 -9 23t9 20q25 43 143.5 73t278.5 42.5t271.5 17t196.5 4.5q76 0 156.5 -2t143.5 -4t143.5 -7t124.5 -8t122.5 -9.5t101 -8.5t95.5 -9t74 -7q70 24 135.5 49t151 63t157.5 77t145 89.5t123.5 101.5t82 112.5
t31.5 123.5v13q0 103 -100.5 184.5t-260 123.5t-341.5 42q-210 0 -400.5 -44.5t-231.5 -88.5q-10 -11 -20 -11q-15 0 -15 17q0 11 7 22q30 52 243 102t436 50q95 0 193.5 -14.5t196 -47t173.5 -78.5t123 -115.5t47 -151.5zM1724 2l-6 3q-68 16 -290 27t-479 11
q-174 0 -326.5 -5.5t-284.5 -18t-208.5 -34.5t-76.5 -51q0 -11 55 -33t181 -43.5t277 -21.5q185 0 372.5 16.5t322.5 40t244 48.5t164 41.5t55 19.5z" />
    <glyph glyph-name="bracketleft" unicode="[" horiz-adv-x="743" 
d="M115 -57q-15 5 -15 17v4q3 9 6 12l6 6q255 348 483 714q8 10 14 10l4 -1l111 -18q19 -7 19 -22l-1 -8q-4 -15 -21 -15h-6l-93 18q-204 -339 -441 -660q18 0 36 -6q15 -4 32 -13t34 -26q13 -11 13 -22l-1 -5q-9 -15 -15 -15l-5 -1q-8 0 -19 4q-24 27 -51 33q-18 7 -34 7
q-1 0 -3 -0.5t-5 -1t-6 -0.5q-7 -1 -30 -11h-12z" />
    <glyph glyph-name="backslash" unicode="\" horiz-adv-x="379" 
d="M358 806q14 0 18 -9q3 -6 3 -23q0 -47 -11 -58q-10 -12 -58 -191t-99 -394q-27 -110 -62 -223q-12 -37 -30 -37q-4 0 -10 3q-9 4 -9 16q0 14 23 96q16 54 79.5 307.5t100.5 373.5q38 129 41 133q3 6 14 6z" />
    <glyph glyph-name="bracketright" unicode="]" horiz-adv-x="743" 
d="M728 675q15 -6 15 -17v-4q-3 -9 -6 -12l-6 -6q-255 -348 -483 -714q-7 -10 -15 -10l-3 1l-111 18q-19 6 -19 22l1 8q5 15 21 15h6l93 -18q204 339 441 660q-18 0 -36 6q-15 4 -32 13t-34 26q-13 9 -13 22l1 5q9 15 15 15l5 1q3 0 19 -4q24 -27 51 -33q18 -7 34 -7
q7 0 13 2q8 1 31 11h12z" />
    <glyph glyph-name="asciicircum" unicode="^" horiz-adv-x="359" 
d="M121 360q-21 0 -21 31q81 138 166 252q7 12 18 25q18 24 30 53q8 11 18 11q27 0 27 -26q-32 -137 -35 -274q7 -7 8 -12q1 -3 1 -9v-5q-8 -38 -33 -38q-23 0 -23 24q0 116 13 203q-81 -113 -143 -217q-5 -18 -26 -18z" />
    <glyph glyph-name="underscore" unicode="_" horiz-adv-x="678" 
d="M494 -21q113 0 143 -2.5t37 -9.5q4 -5 4 -13q0 -17 -16 -23q-114 0 -243 3q-190 2 -245 5.5t-64 12.5q-10 6 -10 16q0 12 13 20q17 9 94 9q79 0 98 -9q9 -4 189 -9z" />
    <glyph glyph-name="grave" unicode="`" horiz-adv-x="252" 
d="M229 357q-8 0 -68.5 39.5t-60.5 50.5q0 10 6.5 17t15.5 7q18 -1 69 -28.5t61 -53.5q0 -11 -7 -21t-16 -11z" />
    <glyph glyph-name="a" unicode="a" horiz-adv-x="486" 
d="M-156 75q-23 0 -35.5 17t-12.5 40q0 37 46.5 77.5t106.5 65.5t102 25t42 -31q0 -9 -4 -16t-8 -7l-4 -37q0 -59 46 -59q36 0 101.5 24t112.5 48l47 24q5 0 14.5 -10.5t9.5 -16.5q0 -7 -53.5 -34.5t-125 -53.5t-109.5 -26q-27 0 -46 10.5t-26 27t-9.5 28t-2.5 21.5v3
l-46 -42q-45 -42 -78 -60t-68 -18zM-143 121q10 0 26.5 8.5t31.5 19t35 26.5t32 27t28.5 26t18.5 17h-1q-29 0 -72.5 -15.5t-79 -43.5t-35.5 -55q0 -10 16 -10z" />
    <glyph glyph-name="b" unicode="b" horiz-adv-x="408" 
d="M298 246q8 0 14 -5.5t6 -13.5q0 -9 -8 -17h-3q-22 -16 -67.5 -32t-116.5 -35l-71 -19q-40 -57 -87 -98t-83 -41q-16 0 -23.5 12.5t-7.5 27.5q0 25 11.5 46t36 36.5t40 23.5t47 19t33.5 12q11 26 11 44q0 21 -12 21q-19 0 -61.5 -30t-68.5 -53q-34 -59 -50 -77.5
t-37 -18.5q-6 0 -13.5 7t-7.5 17q0 27 57 84q41 86 145.5 250.5t209.5 303.5t136 139q13 0 23 -8.5t10 -27.5q0 -43 -25.5 -107t-74.5 -142t-135 -168.5t-194 -170.5l-8 -12q75 59 103 59q24 0 37.5 -16.5t13.5 -40.5l-8 -38q153 26 228 69zM301 780q-7 0 -28 -25t-56.5 -77
t-70 -104t-89 -134.5t-93.5 -139.5q153 141 248.5 269t95.5 195q0 16 -6 16h-1zM-95 40q18 0 77 59q-29 -10 -53 -28t-24 -31z" />
    <glyph glyph-name="c" unicode="c" horiz-adv-x="408" 
d="M358 225v-9l-54 -36q-67 -44 -161.5 -85t-177.5 -41h-12q-55 0 -75 23t-20 66q0 53 70.5 105t129.5 52q48 0 48 -36q0 -8 -8 -13t-16 -5q-10 0 -17 6t-10 6h-3q-31 0 -87.5 -38.5t-56.5 -75.5q0 -45 57 -45h6q34 0 84 15t97.5 37t89.5 43.5t68 36.5l27 15q9 0 15 -6
t6 -15z" />
    <glyph glyph-name="d" unicode="d" horiz-adv-x="507" 
d="M87 303q40 98 132 224.5t178.5 213t117.5 86.5q23 0 23 -25q0 -44 -100 -178.5t-200 -247.5l-100 -112l-1 -3q-1 -3 -3 -8.5t-3.5 -11.5t-2.5 -14t-1 -16q0 -28 16 -47.5t52 -19.5q20 0 49 10.5t55.5 25.5t50.5 30t40 26l15 10q9 0 9 -15t-9 -24q-2 -1 -31 -22.5
t-54.5 -38t-64 -32t-69.5 -15.5q-115 0 -115 102l1 18q-6 -7 -15.5 -17.5t-38 -38.5t-55 -49t-60.5 -38.5t-60 -17.5q-20 0 -33.5 12.5t-13.5 30.5q0 45 41.5 94.5t86.5 78.5t64 29q18 0 18 -24q0 -13 -8 -25.5t-25 -16.5q-32 -8 -77.5 -50t-45.5 -63q0 -6 8 -6q28 0 85 46
t101 92zM160 353q6 0 184 226q34 43 64 84t44.5 63t14.5 24q-2 0 -21 -19t-53 -58t-68 -82t-74.5 -101t-65.5 -96.5t-25 -40.5z" />
    <glyph glyph-name="e" unicode="e" horiz-adv-x="348" 
d="M275 229q0 -13 -10 -26l-7 -5q-7 -5 -19 -13.5t-28.5 -20t-37 -24t-42.5 -24.5t-47.5 -23.5t-50 -20t-50.5 -13.5t-49 -5q-48 0 -75 22t-27 53q0 57 76.5 113.5t133.5 56.5q18 0 32 -9.5t14 -28.5q0 -39 -49 -66t-104 -34q-25 -2 -37 -13t-12 -20q0 -25 68 -25
q54 0 129 35.5t128 71t54 35.5q10 0 10 -13v-3zM24 252q-12 0 -54.5 -21t-42.5 -29q19 1 62.5 17.5t43.5 25.5q0 7 -9 7z" />
    <glyph glyph-name="f" unicode="f" horiz-adv-x="291" 
d="M-1053 -564q-6 0 -19.5 13.5t-13.5 16.5q72 140 270 432q0 7 -31.5 18.5t-31.5 31.5v1q1 58 192 117q99 138 327 417t258 279q24 0 24 -24q0 -95 -121 -242.5t-283 -259.5q-1 0 -23 -23t-54 -59.5t-53 -63.5q181 49 361 155q8 0 14 -7.5t6 -18.5q0 -6 -50.5 -36.5
t-155 -77.5t-217.5 -81q-105 -140 -108 -168q-11 -59 -77.5 -163t-132.5 -180.5t-81 -76.5zM-443 310q106 75 207.5 200.5t103.5 179.5zM-783 -63l48 63l-84 -42z" />
    <glyph glyph-name="g" unicode="g" horiz-adv-x="411" 
d="M-767 -555q-20 0 -34.5 18.5t-14.5 35.5q0 58 25.5 119.5t66 114t90 103t99 89t90 68.5t65.5 45l26 16q54 99 54 153q0 3 -3 3q-175 -144 -207 -144q-13 0 -23 9.5t-10 20.5q0 49 82.5 117.5t151.5 68.5q29 0 49 -14t20 -34q0 -31 -10.5 -66t-21.5 -55l-10 -20
q23 16 94 54t131 69l60 30q6 0 13.5 -7t7.5 -14q0 -5 -82.5 -54.5t-165.5 -96.5l-82 -47q-13 -24 -35 -63t-84.5 -139.5t-117.5 -177t-119 -139.5t-105 -63zM-473 137q3 0 50 38t47 42h-1q-11 0 -53.5 -37.5t-42.5 -42.5zM-765 -504q34 0 128.5 120.5t172.5 241.5l77 121
q-15 -10 -40.5 -28t-91 -73.5t-115 -110t-90.5 -130t-41 -141.5z" />
    <glyph glyph-name="h" unicode="h" horiz-adv-x="522" 
d="M418 246q15 0 15 -15q0 -12 -15 -24q-252 -135 -297 -135q-46 0 -46 50q0 26 16 79q-20 0 -149 -101q-98 -74 -123 -74q-27 0 -27 21q0 48 80 166q387 636 465 636q33 0 33 -36t-22.5 -94.5t-69 -136.5t-135 -173t-202.5 -184q-12 -15 -87 -126q216 156 243 156
q46 0 46 -39q0 -14 -8 -46t-8 -44l3 -3q72 0 246 102q36 21 42 21zM310 780q-19 -4 -213 -296q-76 -114 -123 -184q46 42 96.5 94.5t110 121.5t97.5 136.5t38 112.5q0 15 -6 15z" />
    <glyph glyph-name="i" unicode="i" horiz-adv-x="336" 
d="M118 342q-9 0 -20.5 11.5t-11.5 22.5q0 16 19 16q12 0 22 -9t10 -24q0 -17 -19 -17zM-19 92q-32 0 -47.5 20t-15.5 42q0 54 40 94q8 14 26 26.5t36 12.5q11 0 19.5 -7t8.5 -21q0 -6 -4.5 -12t-13 -12t-16 -10.5t-18 -10t-14.5 -7.5q-16 -11 -16 -52q0 -7 8 -14.5t23 -7.5
q57 0 148.5 39t149.5 74q9 0 9 -12q0 -22 -9 -27q-57 -40 -148.5 -77.5t-165.5 -37.5z" />
    <glyph glyph-name="j" unicode="j" horiz-adv-x="246" 
d="M-645 297h-2q-11 0 -13 17v4q0 20 10 26l14 6h3q16 0 22 -11l1 -4v-2q0 -11 -12 -23t-23 -13zM-1329 -801h-8q-48 0 -49 54q0 79 133 260.5t434 468.5q26 54 51.5 110t38 83t24.5 51.5t19 33.5t14 10q30 0 33 -24q0 -28 -27 -42l-72 -147q188 129 291 189q21 0 21 -15
q0 -17 -21 -24q-76 -47 -181 -127t-155 -125l-66 -129q-31 -58 -63 -115t-92.5 -155t-112.5 -169t-111 -127.5t-101 -60.5zM-1326 -750q30 3 87.5 68t117.5 154.5t115.5 179t91.5 151.5l35 62q-36 -22 -148 -150.5t-213 -268.5t-101 -181q0 -15 15 -15z" />
    <glyph glyph-name="k" unicode="k" horiz-adv-x="420" 
d="M-121 111q-8 0 -17 16q-4 5 -4 19q0 12 3 30q11 45 88 112q133 208 224 337q147 207 190 207q36 0 36 -37q0 -34 -17 -83q-14 -11 -22 -11q-12 0 -16 16q9 29 9 41t-9 12q-11 0 -70 -80q-58 -76 -144 -209l-98 -148q131 76 192 76q35 0 35 -31q0 -9 -7 -20
q-8 -12 -18 -21q-10 -10 -23 -10q-2 1 -6 5q-5 3 -16 3q-45 0 -119 -33l-45 -39q53 -76 99 -83q104 0 207 57q15 9 18 9q15 0 15 -16q-3 -23 -7 -23q-3 0 -6 -3q-99 -72 -224 -72q-63 0 -142 99l-8 -6q-72 -114 -98 -114z" />
    <glyph glyph-name="l" unicode="l" horiz-adv-x="360" 
d="M338 246q15 0 15 -27q0 -9 -54 -50t-127.5 -81t-115.5 -40q-47 0 -73.5 29t-26.5 65q0 72 59.5 194.5t140 234.5t167.5 195t137 83q21 0 34 -18t13 -41q0 -54 -65 -148.5t-150.5 -182t-163 -157t-109.5 -87.5q-11 -22 -11 -58q0 -19 13.5 -38.5t37.5 -19.5
q32 0 79.5 21.5t84.5 46t73.5 50.5t41.5 29zM443 801q-41 0 -129 -98t-168 -220.5t-109 -197.5q21 5 124 104t202 218.5t99 166.5q0 27 -19 27z" />
    <glyph glyph-name="m" unicode="m" horiz-adv-x="684" 
d="M77 87q-33 0 -33 27q0 22 24 72l23 50q-5 0 -103.5 -74.5t-116.5 -74.5q-11 0 -19 7.5t-8 16.5q0 34 48 96q2 3 8 11t9.5 13t9.5 12.5t10.5 12t10 9t10.5 7t9 2.5q6 0 12 -5t6 -13q0 -6 -24.5 -39.5t-24.5 -36.5q42 26 86 59.5t66 48t38 14.5q10 0 20 -10t10 -23
q0 -19 -16 -60t-16 -42q189 138 209 138q9 0 21 -11t12 -25q0 -1 -18.5 -35.5t-18.5 -55.5q0 -36 57 -36q28 0 85 26t100 52l43 26q9 0 9 -18q0 -30 -99 -78t-150 -48q-88 0 -88 70q0 44 24 72q-36 -21 -122 -86t-103 -71z" />
    <glyph glyph-name="n" unicode="n" horiz-adv-x="487" 
d="M-123 81q-14 0 -23.5 9t-9.5 24q0 25 36 81.5t54 56.5t18 -18q0 -7 -24.5 -39t-24.5 -41q0 -7 10 -7q1 0 88.5 55.5t119.5 55.5q27 0 27 -23q0 -15 -8.5 -48.5t-8.5 -41.5q0 -11 12 -11q43 0 144.5 46t121.5 66q16 -13 16 -22q-41 -43 -148 -88t-147 -45
q-24 0 -35.5 12.5t-11.5 27.5q0 17 6.5 44t6.5 30l-2 2q-23 0 -114 -63t-103 -63z" />
    <glyph glyph-name="o" unicode="o" horiz-adv-x="278" 
d="M-221 66q-31 0 -31 35q0 34 64 96.5t93 62.5q10 0 22 -10q11 -10 47.5 -21.5t80.5 -11.5q26 0 61 14.5t36 14.5q23 0 23 -23q0 -4 -18.5 -15t-49 -22t-56.5 -11q-20 0 -39 2t-32 5t-23 6t-15.5 5t-6.5 2q-9 0 -16 -17q-11 -21 -44 -55.5t-53 -44.5q-21 -12 -43 -12z
M-199 118q22 13 43 35.5t21 28.5h-1q-6 0 -26 -20q-37 -35 -37 -44z" />
    <glyph glyph-name="p" unicode="p" horiz-adv-x="447" 
d="M-786 -441q-10 0 -17 6.5t-7 14.5q0 37 96 195q209 337 310 476t137 139q13 0 21.5 -8t8.5 -19q0 -15 -17.5 -37.5t-34.5 -37.5l-17 -15q15 9 39 9q19 0 33 -13.5t14 -37.5q0 -35 -9 -53q111 9 173.5 24.5t97.5 43.5q8 -1 16 -14.5t8 -19.5q-104 -66 -318 -89
q-2 -5 -7 -12.5t-20 -27t-31.5 -34.5t-41.5 -28t-50 -14q-23 0 -37 12.5t-14 27.5q0 36 41.5 65t83.5 40l42 11q19 37 19 55q0 8 -7.5 12t-13.5 4q-28 0 -65 -31t-85.5 -96.5t-87.5 -125t-101 -158.5q-49 -77 -86.5 -147.5t-50 -93.5t-22.5 -23zM-390 60q15 0 34 10t30 20
l12 11q-78 -19 -78 -39z" />
    <glyph glyph-name="q" unicode="q" horiz-adv-x="399" 
d="M-594 -531q-18 0 -30 13t-12 29q0 56 55 141.5t109 143.5l55 57q14 24 33.5 57t31 53.5t27 46.5t24.5 42t19.5 35t16.5 30.5t11.5 22.5t8 18t2.5 10q-8 -8 -32 -27t-65 -42.5t-68 -23.5q-14 0 -26.5 8t-12.5 19q0 49 65.5 105.5t132.5 56.5q7 0 45 -15q10 9 24 25
t22.5 21t22.5 5q9 0 12 -5t3 -24q-14 -19 -72 -131.5t-105 -181.5q34 33 58 55.5t52.5 46t39.5 33t47 34t45.5 31t62.5 41t73 47.5q21 0 21 -24q-85 -52 -201.5 -151t-190.5 -172l-73 -73q-19 -36 -48.5 -97t-49 -99t-44 -79.5t-46.5 -61.5t-43 -20zM-372 132q5 0 35 20
t57 40l28 21l-5 1q-23 0 -73 -40q-42 -32 -42 -42z" />
    <glyph glyph-name="r" unicode="r" horiz-adv-x="372" 
d="M296 247q23 0 23 -19q0 -14 -52 -35t-98 -21l-112 9q-25 0 -95 -54t-76 -54q-21 0 -31 12q-7 9 -7 12q0 6 13 29q9 16 24.5 46.5t27 53t17.5 28.5q7 8 16 8q12 0 18 -14v-2q1 -2 1 -3q0 -7 -9.5 -25.5t-18.5 -34.5l-9 -16q1 0 23 15t52.5 31t49.5 16q8 0 48 -5
q29 -4 57 -4q24 0 46.5 3t38 7t27.5 7.5t18.5 6.5t7.5 3z" />
    <glyph glyph-name="s" unicode="s" horiz-adv-x="312" 
d="M-158 45q-23 0 -41.5 13.5t-18.5 36.5q0 30 29 47.5t57 19.5l29 3q0 3 -4 18.5t-7 33t-3 28.5q0 28 11 47.5t28 27.5t30 11t23 3q18 0 28 -11t10 -20q0 -26 -40 -52l-31 -20q-4 -10 2 -32.5t6 -30.5q74 5 123.5 20t129.5 58q7 0 13.5 -5t6.5 -13q0 -5 -2.5 -8.5t-9.5 -8
t-9 -6.5q-39 -33 -110 -54t-142 -25q-17 -81 -108 -81zM-150 92q20 0 33.5 9.5t13.5 23.5q-23 1 -42.5 -5.5t-19.5 -13.5q0 -14 15 -14z" />
    <glyph glyph-name="t" unicode="t" horiz-adv-x="364" 
d="M-29 48q-47 0 -73.5 29t-26.5 65q0 57 23.5 119.5t84.5 157.5q-29 -2 -89.5 -9.5t-87.5 -7.5q-24 0 -24 30q0 16 60.5 45.5t77.5 29.5q15 -5 15 -18q0 -7 -6 -13.5t-12 -10t-18 -9t-15 -6.5q68 11 134 19q245 380 361 380q21 0 34 -18t13 -41q0 -48 -78.5 -164.5
t-119.5 -148.5h19q46 0 66.5 -6t20.5 -27q0 -15 -18.5 -25.5t-38.5 -10.5q-6 0 -9.5 3.5t-6 8t-15 8t-33.5 3.5l-28 -3q-208 -191 -247 -213q-11 -22 -11 -58q0 -19 13.5 -38.5t37.5 -19.5q32 0 79.5 21.5t84.5 46t73.5 50.5t41.5 29q15 0 15 -27q0 -9 -54 -50t-127.5 -81
t-115.5 -40zM168 478q40 33 124.5 152.5t84.5 143.5q0 27 -19 27q-34 0 -115.5 -95.5t-171.5 -233.5zM-48 285q8 2 50 37t80 70l38 34l-85 -6z" />
    <glyph glyph-name="u" unicode="u" horiz-adv-x="508" 
d="M-34 87q-37 0 -55.5 13.5t-18.5 35.5q0 35 31 81.5t43 46.5q30 0 30 -18q0 -6 -6 -16.5t-12 -10.5q-2 0 -10 -10.5t-15.5 -26.5t-7.5 -27q0 -20 24 -20q25 0 62 20t60 38t70 56l10 3q9 0 16 -7t7 -17q0 -7 -7.5 -23.5t-7.5 -24.5q0 -24 36 -24q49 0 106 22.5t94.5 45
t39.5 22.5q15 0 15 -18q0 -6 -40.5 -33.5t-105.5 -55.5t-115 -28q-72 0 -72 50l3 19q-30 -32 -84.5 -61.5t-89.5 -31.5z" />
    <glyph glyph-name="v" unicode="v" horiz-adv-x="453" 
d="M-72 48q-30 0 -30 36q0 54 35.5 133.5t54.5 79.5q33 0 33 -24q0 -18 -15.5 -42t-32.5 -24q-27 -67 -27 -93q0 -12 12 -12q17 0 56 26t70 52l30 27q-12 16 -12 37q0 17 13 30.5t35 13.5q13 0 24.5 -11t11.5 -28q0 -12 -4.5 -22.5t-9.5 -14.5l-4 -5q18 -12 48 -12
q60 0 99.5 9t86.5 42q6 0 10.5 -11.5t4.5 -21.5q0 -4 -26 -16.5t-76.5 -25t-101.5 -12.5q-19 0 -37 5.5t-26 10.5l-9 5q-16 -15 -41.5 -37t-82.5 -58.5t-89 -36.5z" />
    <glyph glyph-name="w" unicode="w" horiz-adv-x="630" 
d="M153 60q-69 0 -69 75q0 23 2 38.5t4.5 22.5t2.5 8q-5 0 -36 -27q-59 -50 -86 -68.5t-43 -18.5q-10 0 -20 10t-10 23q0 25 41.5 104t63.5 79q24 0 24 -24t-10 -49.5t-32 -25.5q-8 0 -20.5 -25t-12.5 -32q5 0 40.5 31.5t78 63t64.5 31.5q15 -10 15 -33q0 -15 -9 -54t-9 -54
q0 -27 18 -27q20 0 51.5 21.5t52.5 43.5l22 22q-18 21 -18 45q0 31 14.5 54.5t48.5 23.5q22 0 35 -13t13 -32q0 -17 -7.5 -36t-15.5 -29l-7 -10q24 -12 54 -12q54 0 95 12.5t91 47.5q6 0 10.5 -11.5t4.5 -21.5q0 -4 -26 -20t-74.5 -32.5t-94.5 -16.5l-15 -1q-19 0 -38 5.5
t-28 11.5l-9 5q-11 -12 -28.5 -29.5t-59 -46.5t-68.5 -29zM309 228q12 15 12 27q0 14 -10 14q-11 0 -11 -17q0 -8 2 -14t4 -8z" />
    <glyph glyph-name="x" unicode="x" horiz-adv-x="453" 
d="M-219 45q-21 0 -21 24q0 16 14.5 26t47.5 26t58 35q-5 16 -5 43l5 47q2 14 15 25t30 11q16 0 16 -25q0 -20 -16 -35q-3 -3 -3 -14l3 -28q18 11 62.5 39.5t68 42.5t28.5 14t13 -6t8 -12q0 -10 -19.5 -25.5t-86.5 -59.5q-38 -25 -62 -41q0 -1 1 -3.5t5 -8t9.5 -10t15.5 -8
t23 -3.5q39 0 124.5 36.5t151.5 73.5l66 37q8 0 13 -6.5t5 -14.5l-3 -12q-1 0 -12.5 -7.5t-25.5 -16t-35.5 -21.5t-44 -25t-48.5 -25.5t-51.5 -24.5t-50 -20t-48 -14t-41.5 -5q-23 0 -41 5.5t-28 13.5t-16.5 16t-8.5 13l-2 6q-99 -63 -114 -63z" />
    <glyph glyph-name="y" unicode="y" horiz-adv-x="538" 
d="M40 227q0 -11 -59 -53t-143.5 -102t-126.5 -100q-10 -17 -27.5 -47t-71.5 -117t-106 -165.5t-122.5 -175t-130.5 -165.5t-121 -116.5t-102 -47.5q-20 0 -32 13t-12 33q0 57 70 163.5t170 216.5t200 212.5t170 167.5l70 65q78 153 78 214q0 18 -13 18q-16 0 -67 -43.5
t-108 -86.5t-89 -43q-17 0 -28 10t-11 25q0 52 62 139q20 27 40 27q16 0 16 -16t-19 -38q-13 -15 -32 -48.5t-19 -42.5l1 -2q24 0 93 52q9 7 40 32t50.5 40t43.5 29t37 14q25 0 38 -14.5t13 -53.5q0 -20 -7 -47.5t-15.5 -49t-16 -39.5t-7.5 -19q-1 0 66 43.5t138 88.5t80 48
q10 -8 10 -19zM-377 -90q-24 -23 -63.5 -62.5t-141 -145t-179.5 -193.5t-141.5 -179t-63.5 -130q0 -7 6 -7q41 0 116 74t153 179t150 210.5t118 179.5z" />
    <glyph glyph-name="z" unicode="z" horiz-adv-x="435" 
d="M-297 -54q-16 0 -30.5 14.5t-14.5 30.5q0 26 20 48.5t56 39.5t68.5 28.5t72.5 24.5q12 3 17 5l36 52l-51 -18q-11 0 -17.5 5.5t-6.5 12.5q0 22 60 36l45 11q39 43 39 55q0 3 -6 3q-9 0 -81 -43.5t-81 -43.5q-4 0 -4 9l4 30q0 2 34 25t76 45.5t58 22.5q20 0 32.5 -12.5
t12.5 -32.5q0 -8 -5 -18.5t-11 -17.5l-5 -6q75 21 96 21t21 -21q0 -23 -93 -39q-42 -7 -64 -22q-6 -4 -15.5 -15.5t-15.5 -21.5l-7 -10q21 8 143 38.5t178 63.5q10 0 15.5 -9t5.5 -18q0 -3 -2 -4t-8.5 -4t-13.5 -7q-53 -31 -189.5 -64.5t-157.5 -42.5q-75 -88 -117.5 -119.5
t-93.5 -31.5zM-148 88q-143 -52 -149 -85v-2q0 -13 12 -13q28 1 62 25.5t54.5 48t20.5 26.5z" />
    <glyph glyph-name="braceleft" unicode="{" horiz-adv-x="687" 
d="M1037 1019q0 -14 -6.5 -25.5t-15.5 -11.5q-8 0 -15.5 8.5t-7.5 16.5l2 8q0 9 -18 24.5t-29 15.5q-73 0 -253 -233q-260 -339 -365 -399q-18 -12 -24.5 -19.5t-10.5 -24.5q-4 -18 -41.5 -100t-70.5 -167t-33 -124q0 -24 19.5 -66t19.5 -52q0 -6 -2 -8q-8 -12 -20 -12
t-21 12q-15 24 -29 59.5t-16 55.5v9q0 71 104 298q28 62 37 88.5t10 56.5q0 7 22 18q40 17 95.5 66.5t124.5 132t97 117.5t83 107q83 109 152.5 168.5t114.5 59.5q34 0 65.5 -24t31.5 -55z" />
    <glyph glyph-name="bar" unicode="|" horiz-adv-x="868" 
d="M868 1073q0 -14 -116 -169q-98 -132 -173 -234q-136 -183 -241.5 -343t-144.5 -228.5t-39 -74.5q0 -5 -12.5 -14.5t-18.5 -9.5q-4 0 -13.5 9t-9.5 13q0 9 71.5 129.5t123.5 200.5q79 118 249 349.5t218 299.5q39 55 55.5 74t27.5 19q6 0 14 -8q9 -9 9 -13z" />
    <glyph glyph-name="braceright" unicode="}" horiz-adv-x="913" 
d="M878 897q20 0 29 -15q6 -9 6 -15q0 -8 -11 -31q-11 -24 -72 -108t-112.5 -171t-55.5 -139l-1 -19q0 -15 15 -22q17 -11 17 -24q0 -19 -28 -50q-42 -47 -87.5 -108t-77 -103.5t-72.5 -87t-95.5 -78t-125.5 -55.5q-67 -21 -84 -21q-13 0 -19 11q-4 5 -4 13q0 16 21 21
q61 15 130 41q67 26 121.5 79.5t169.5 207.5q73 99 88 114l2 4q0 5 -7 19q-12 20 -12 46q0 50 38.5 127.5t85 141.5t85 116t38.5 57h-1q-16 0 -57.5 -27t-51.5 -44q-10 -18 -24 -18q-10 0 -17 12q-2 6 -2 9q0 32 66.5 74.5t104.5 42.5z" />
    <glyph glyph-name="asciitilde" unicode="~" horiz-adv-x="367" 
d="M290 372q-29 0 -54.5 16t-45.5 32.5t-34 16.5q-5 0 -15 -6t-15 -6q-12 0 -18 5t-7 9t-1 10q0 13 18.5 24.5t44.5 13.5q19 0 60.5 -33t56.5 -33q18 0 33.5 18.5t32.5 18.5q11 0 16 -10t5 -19q0 -14 -24.5 -34t-52.5 -23z" />
    <glyph glyph-name="exclamdown" unicode="&#xa1;" horiz-adv-x="623" 
d="M565 81q0 2 4 10q8 10 8 21q0 7 7.5 12.5t15.5 5.5q2 0 6 -2q6 -4 11.5 -20.5t5.5 -28.5q0 -6 -1 -8q-4 -15 -23 -15q-14 0 -24 10q-10 9 -10 15zM100 -599q0 20 71 105q98 118 111 118q10 0 90.5 122t110.5 183q27 53 39 53q3 0 15 -8q8 -6 8 -15q0 -20 -54 -111
q-167 -276 -297 -414q-51 -55 -75 -55q-13 0 -18 15q-1 2 -1 7z" />
    <glyph glyph-name="cent" unicode="&#xa2;" horiz-adv-x="681" 
d="M-38 251l-4 4q-2 0 -4 2q-1 1 -5 1h-3q-16 0 -51 -16q-34 -16 -64 -44q-29 -27 -29 -54q0 -10 3 -19q54 44 93 73q42 34 64 53zM-165 102q12 -3 24 -3h6q53 0 126 29q76 30 135 61q63 33 93 51l12 6q9 0 15 -6t6 -15v-9l-54 -36q-47 -32 -145 -79q-99 -47 -194 -47h-12
q-38 0 -58 10q-77 -65 -77 -67q3 -3 3 -6q0 -9 -27 -27q-15 -12 -24 -12q-2 0 -7 3t-8 8q-3 4 -3 10v3q14 30 116 115q-11 24 -11 53q0 54 72 105t129 51q30 0 39 -10l6 -11q37 30 78 63l129 93q10 0 17 -6t7 -12l-78 -63q-72 -58 -178 -142q-31 -24 -137 -110z" />
    <glyph glyph-name="sterling" unicode="&#xa3;" horiz-adv-x="905" 
d="M846 771q30 0 47 -20q12 -13 12 -32q0 -9 -1 -16q-3 -40 -25.5 -77t-78.5 -93q-93 -93 -206 -163t-143 -70q-6 0 -8 2q-11 6 -11 13q0 9 19.5 22t55 33t77 45.5t95 68t99.5 91.5q36 37 58 74.5t22 58.5q0 17 -15 17q-32 0 -117 -61q-80 -59 -395 -398q243 -17 277 -34
q18 -8 18 -27q0 -10 -7 -18t-18 -8q-12 0 -23 9q-14 14 -135 24.5t-153 10.5q-36 -39 -58.5 -63.5t-58.5 -63.5h27q63 0 137 -13q77 -14 125 -14q44 0 75 18t89 76q59 58 73 58h2q13 -3 16 -17v-2q0 -14 -63 -77q-65 -65 -98 -82.5t-93 -18.5h-12q-62 0 -127.5 12.5
t-96.5 12.5q-25 0 -50 -4q-37 -5 -44 -5q-12 0 -23 10q-10 12 -10 16q0 6 7 17q3 7 13.5 20.5t25 30.5t26.5 30.5t27 29t17 18.5l-21 9q-27 10 -27 24q0 10 17.5 17.5t46.5 7.5q27 0 36 3t19 14q38 45 148.5 160.5t159.5 162.5q166 161 251 161z" />
    <glyph glyph-name="yen" unicode="&#xa5;" horiz-adv-x="852" 
d="M441 396q-2 -2 -5 -15t-3 -22t6 -9q8 0 75 38q-54 9 -67 9zM852 613v-4q-3 -12 -55 -61t-100 -84l-53 -39l33 -6q53 -11 53 -33q0 -10 -12 -20q-16 -14 -32 -14q-14 0 -25 11q-15 14 -43 19q-8 1 -19 1q-7 0 -13.5 -2.5t-13 -7t-25 -16.5t-39.5 -25q-37 -23 -37 -26
q15 0 118 -5q76 -3 95 -5.5t24 -9.5q5 -6 5 -14q0 -9 -8.5 -15.5t-22.5 -6.5t-277 9q-25 -38 -64 -98q-61 -93 -78.5 -117.5t-27.5 -24.5q-3 0 -11 4q-10 6 -10 17q0 4 12.5 25.5t32 52t37.5 57.5t35.5 53.5t19.5 29.5q-68 0 -138.5 -5.5t-77.5 -5.5q-22 0 -29 8q-6 5 -6 12
q0 17 35 23q13 2 76.5 6t119.5 8t59 7q2 4 2 20q0 32 -4 68q-151 -5 -176.5 -7t-32.5 -12q-7 -13 -20 -13t-24.5 11t-11.5 23q0 19 30 26.5t125 11.5q114 7 118 11q3 4 12 62q4 31 4 46q0 14 -7 21q-9 11 -9 29q0 22 11.5 41t26.5 19q9 0 17 -7q11 -11 11 -50q0 -33 -9 -95
t-9 -67q0 -8 135 -15q133 98 195 159q53 53 58 53q7 0 13.5 -11.5t6.5 -21.5z" />
    <glyph glyph-name="brokenbar" unicode="&#xa6;" horiz-adv-x="700" 
d="M297 527q8 0 12 -7q5 -7 5 -12q0 -11 -37 -63q-28 -38 -68 -105t-45 -82q-3 -10 -18 -24t-22 -14q-6 0 -15 9q-9 11 -9 13q0 8 59 103.5t92 139.5q30 42 46 42zM392 682v9q0 5 -2.5 10t-2.5 8q0 13 55 84q28 36 89 120t95 126t47 42q5 0 16 -9t11 -14q0 -16 -96 -135
q-157 -194 -157 -248v-4q0 -7 -5 -15q-3 -6 -15 -6q-17 0 -27 12q-8 8 -8 20z" />
    <glyph glyph-name="section" unicode="&#xa7;" horiz-adv-x="624" 
d="M575 511q33 0 46 -22q3 -5 3 -10q0 -12 -7 -25.5t-17 -18.5q-4 -3 -10 -3q-8 0 -13.5 6t-5.5 16q0 11 -11 11q-24 0 -62 -38l-21 -23q5 -88 5 -124q0 -44 -7.5 -71.5t-26.5 -55.5q-43 -63 -98 -63q-35 0 -105 34q-7 -39 -8 -74q0 -27 -8.5 -63t-18.5 -52q-24 -35 -66 -35
q-18 0 -31 7.5t-13 17.5q0 9 7.5 16t18.5 7q3 0 9 -0.5t9 -0.5q22 0 31.5 24.5t13 63.5t9 80t28 80.5t61.5 59.5q41 22 90 22q29 0 42 -8l20 -9q-6 75 -6 109q0 60 47 101t95 41zM374 234q-33 0 -67 -17q-37 -18 -37 -35q0 -18 37 -35q28 -14 39 -14q8 0 24 8q18 9 36 31
t18 35q0 11 -14 19t-36 8z" />
    <glyph glyph-name="dieresis" unicode="&#xa8;" horiz-adv-x="240" 
d="M205 380q-11 0 -19 6t-8 13q0 9 10 15.5t23 6.5q10 0 19.5 -7.5t9.5 -13.5q0 -7 -12 -13.5t-23 -6.5zM127 380q-11 0 -19 6t-8 13q0 9 10 15.5t23 6.5q10 0 19.5 -7.5t9.5 -13.5q0 -7 -12 -13.5t-23 -6.5z" />
    <glyph glyph-name="copyright" unicode="&#xa9;" horiz-adv-x="712" 
d="M498 498q31 0 46 -14.5t15 -35.5q0 -18 -9.5 -32t-21.5 -14q-16 0 -16 16q0 4 2 14.5t2 15.5q0 8 -15 8q-39 -1 -90 -44t-51 -86q0 -27 87 -27q49 0 49 -21q0 -6 -3 -14q-3 -9 -9 -11.5t-26 -2.5q-43 0 -73 5q-33 7 -53 26t-20 44q0 49 59 111t127 62zM662 535
q0 -8 25 -47.5t25 -73.5q-1 -32 -39.5 -84t-88.5 -89q-63 -46 -150 -75.5t-160 -29.5q-78 0 -126 38.5t-48 99.5q0 96 116 189q39 30 105 66t109 49q38 13 54 27t27 14q16 0 71 -11t68 -18q18 -10 18 -32q0 -9 -4 -16q-2 -4 -2 -7zM594 309q29 26 49 58t20 53q0 19 -21.5 52
t-55.5 65q-23 22 -37 22q-62 0 -168 -49.5t-171 -114.5q-62 -62 -62 -120q0 -41 33.5 -66t93.5 -25q94 0 184 41.5t135 83.5z" />
    <glyph glyph-name="ordfeminine" unicode="&#xaa;" horiz-adv-x="504" 
d="M131 462q-15 0 -23 10.5t-8 23.5q0 33 61.5 67t106.5 34q28 0 28 -18q0 -14 -8 -14l-3 -22q0 -36 30 -36q24 0 67.5 14.5t74.5 28.5l31 15q3 0 9.5 -6.5t6.5 -10.5t-35.5 -20.5t-82.5 -32t-72 -15.5q-18 0 -30.5 6.5t-17.5 16.5t-6.5 16.5t-1.5 12.5v2q-6 -4 -24.5 -19.5
t-31.5 -25t-33 -18.5t-38 -9zM140 490q25 1 113 74q-32 0 -78 -22t-46 -46q2 -8 11 -6z" />
    <glyph glyph-name="guillemotleft" unicode="&#xab;" horiz-adv-x="733" 
d="M133 491q21 0 85 -64q43 -43 112.5 -132t69.5 -101q0 -8 -7.5 -15t-15.5 -7q-11 0 -30 26.5t-73 96t-124 143.5q-23 -29 -29 -29t-13.5 11.5t-7.5 26.5q0 18 11 31t22 13zM708 949q11 0 18 -6t7 -16q0 -11 -34 -43.5t-76.5 -72t-55.5 -60.5q-18 -28 -35 -28q-10 0 -14 13
l-1 5q0 3 1 6.5t3.5 8.5l4.5 9t7.5 12t8.5 12.5t11 15.5t12 17q-157 -108 -334 -242q-1 -1 -1 -3q0 -11 40 -55t103.5 -110.5t96.5 -106.5q26 -32 34 -38q11 -11 11 -20q0 -5 -7 -14q-8 -8 -16 -8q-17 0 -55 45q-64 77 -135.5 150.5t-98.5 104.5t-27 51q0 15 13 28
q40 38 220 167q52 38 153 99.5t129 74.5q12 4 17 4z" />
    <glyph glyph-name="registered" unicode="&#xae;" horiz-adv-x="660" 
d="M491 555q-5 0 -14 -1t-15 -1q-12 0 -22 10t-26 10q-15 0 -48 -9q-93 -27 -155.5 -99.5t-62.5 -143.5q0 -57 46 -93t141 -36q43 0 79 11q71 22 135 76.5t64 120.5q0 60 -60 119q-37 36 -62 36zM404 530q32 0 51.5 -11.5t19.5 -31.5q0 -8 -5 -20q-4 -10 -14.5 -18.5
t-20.5 -14t-27 -11.5t-26 -9t-26 -7t-20 -5q104 -88 114 -101q6 -9 6 -16v-2q-3 -17 -19 -17t-74 51q-51 45 -71 61q-1 2 -5 2q-8 0 -35 -36q-31 -44 -31 -52q0 -7 -9.5 -13.5t-18.5 -6.5q-7 0 -15 8q-12 10 -12 15t24.5 40t49.5 66q29 36 29 50q0 17 25 39.5t54 31.5
q27 8 56 8zM602 539l-2 2l4 -6q5 -6 15.5 -20.5t20.5 -31.5q13 -22 16.5 -35t3.5 -44q0 -54 -25 -96t-83 -86q-104 -78 -226 -78q-38 0 -66 8q-80 19 -120 65.5t-40 106.5q0 51 28 104t75 95.5t117 70t147 27.5q72 0 122 -20t50 -49q0 -4 -2 -12q-5 -9 -16 -9q-9 0 -19 8z
M399 487l-16 -1q-29 -6 -34 -19q-4 -7 -4 -11q0 -2 4 -2q27 0 55 15q13 6 13 12t-18 6z" />
    <glyph glyph-name="macron" unicode="&#xaf;" horiz-adv-x="355" 
d="M355 446q0 -9 -4 -16q-4 -4 -117 -8t-117 -7l-3 -1q-4 0 -9 9q-5 10 -5 13q0 2 6 13q12 20 201 20q38 0 41 -4q7 -4 7 -19z" />
    <glyph glyph-name="degree" unicode="&#xb0;" horiz-adv-x="246" 
d="M151 859q-21 0 -36 12t-15 29q0 27 34 54t60 27q20 0 20 -19v-4l2 -3l5 1q8 0 16.5 -11.5t8.5 -22.5q0 -19 -32 -41t-63 -22zM152 892q16 0 38 10.5t22 20.5q0 3 -3 9.5t-3 10.5l2 6q0 3 -13 3l-28 -9q-10 -6 -23 -20t-13 -20q2 -11 21 -11z" />
    <glyph glyph-name="plusminus" unicode="&#xb1;" horiz-adv-x="576" 
d="M447 290q61 -4 80.5 -10.5t19.5 -20.5q0 -12 -11.5 -21.5t-24.5 -9.5q-9 0 -18 7q-7 8 -155 12q-15 -38 -28.5 -73t-21.5 -55t-15 -38l-10.5 -27t-7 -16.5t-5.5 -11t-4 -6.5q-10 -10 -22 -10q-16 0 -16 20l2 15q18 55 83 208q-30 -2 -63 -3.5t-48.5 -2.5t-24.5 -1
q-19 0 -26 7q-8 6 -8 18q0 10 7 16q8 5 183 10q52 108 52 113q0 11 12 25q9 10 12 10q4 0 12 -8q11 -9 11 -20q0 -14 -23 -61q-24 -52 -24 -55q0 -6 82 -11zM477 -39q0 -9 -7 -16q-7 -4 -200 -8t-199 -7l-4 -1q-8 0 -17 9q-8 10 -8 13t10 13q20 20 343 20q64 0 71 -4
q11 -5 11 -19z" />
    <glyph glyph-name="twosuperior" unicode="&#xb2;" horiz-adv-x="417" 
d="M131 1239q-15 0 -22 10q-9 11 -9 18q0 3 25 39q26 36 72 76q47 41 115 79q7 4 21 10q9 4 16 9q6 6 6 14q0 27 -30 27q-42 0 -91 -64q-4 -3 -10 -7q-4 -3 -9 -3q-32 0 -32 30q0 13 43 57q43 46 99 46q46 0 69 -29t23 -57q0 -37 -25 -56q-21 -16 -53 -31q-77 -39 -138 -105
l89 9q30 0 30 -31q0 -24 -28 -31q-96 -10 -161 -10z" />
    <glyph glyph-name="threesuperior" unicode="&#xb3;" horiz-adv-x="378" 
d="M189 1220q-11 0 -36 7q-22 7 -37 18q-16 10 -16 20q0 31 31 31q37 -14 60 -14q36 0 58 20q22 21 22 42q0 22 -16 22q-9 0 -23 -7t-33 -7q-15 0 -26 4q-11 5 -11 27q0 7 5 14q6 6 63 33q55 26 72 38q14 11 14 24q0 10 -20 10q-24 0 -58 -42q-13 -16 -20 -16q-37 0 -37 31
q0 6 16 26q17 22 43 42q27 21 56 21q34 0 57 -19q25 -18 25 -53q0 -56 -68 -89q23 -25 23 -59q0 -46 -39 -85t-105 -39z" />
    <glyph glyph-name="acute" unicode="&#xb4;" horiz-adv-x="253" 
d="M125 358q-10 0 -17.5 9t-7.5 20l2 9q0 6 60.5 38.5t70.5 32.5q8 0 14 -7.5t6 -16.5q0 -12 -50 -45t-78 -40z" />
    <glyph glyph-name="paragraph" unicode="&#xb6;" horiz-adv-x="500" 
 />
    <glyph glyph-name="periodcentered" unicode="&#xb7;" horiz-adv-x="169" 
d="M148 232q-3 1 -14 2.5t-17 3t-11.5 7t-5.5 14.5q0 12 11.5 21.5t25.5 9.5q4 0 12 -2q20 -8 20 -25q0 -11 -7.5 -21t-13.5 -10z" />
    <glyph glyph-name="periodcentered" unicode="&#x2219;" horiz-adv-x="169" 
d="M148 232q-3 1 -14 2.5t-17 3t-11.5 7t-5.5 14.5q0 12 11.5 21.5t25.5 9.5q4 0 12 -2q20 -8 20 -25q0 -11 -7.5 -21t-13.5 -10z" />
    <glyph glyph-name="cedilla" unicode="&#xb8;" horiz-adv-x="293" 
d="M169 -190q-20 0 -45 11q-24 12 -24 27q6 26 30 26q6 -2 10 -6t11 -6q7 -3 18 -3q38 0 56 29q19 30 19 60q-11 0 -37 -20q-5 -5 -15 -5q-21 0 -24 25q0 8 26 51q4 10 22 10q21 0 24 -12q26 0 39 -18q14 -20 14 -42q0 -45 -36 -86t-88 -41z" />
    <glyph glyph-name="onesuperior" unicode="&#xb9;" horiz-adv-x="285" 
d="M133 1257q-13 0 -22 13q-11 13 -11 22q0 3 2 7q1 1 3 3.5t3 3.5q8 13 118 252q12 18 31 18q28 0 28 -31l-123 -267q-4 -21 -29 -21z" />
    <glyph glyph-name="ordmasculine" unicode="&#xba;" horiz-adv-x="376" 
d="M191 1317q53 0 88 51t35 85q0 31 -22 31l-11 -3q-27 0 -30 23q-35 -16 -62 -55q-27 -41 -27 -91q0 -41 29 -41zM191 1255q-91 0 -91 103q0 89 61 153q60 63 122 63q53 0 72 -42q21 -42 21 -79q0 -31 -24 -79q-22 -46 -64 -83q-42 -36 -97 -36z" />
    <glyph glyph-name="guillemotright" unicode="&#xbb;" horiz-adv-x="560" 
d="M539 588q0 -22 -54.5 -72t-152.5 -130t-151 -131q-49 -47 -55 -47t-16 9.5t-10 17.5q0 17 194 180.5t194 169.5q0 7 -70 89t-84 92q-12 8 -41 49t-29 51q0 7 7 11.5t15 4.5q7 0 10 -2q15 -9 129 -143.5t114 -148.5zM560 438v-5q-3 -16 -42 -40q-79 -48 -255 -210
q-64 -60 -83 -60q-6 0 -9 4q-4 4 -4 17q0 29 233 217q75 60 101.5 79t37.5 19q6 0 13.5 -5.5t7.5 -15.5z" />
    <glyph glyph-name="onequarter" unicode="&#xbc;" horiz-adv-x="1015" 
d="M850 467q6 0 14 -8q10 -10 10 -16q0 -5 -6 -19t-10 -18t-12 -4h-4q-8 0 -68 -86.5t-86 -135.5q-36 -62 -53 -62q-7 0 -17 8q-5 7 -5 11q0 8 15 34q17 30 39.5 64t33 51.5t10.5 24.5q0 6 -8 6q-12 0 -47.5 19t-43.5 30q-9 16 -9 26q0 30 70 110q31 36 42 55q15 25 27 25
q9 0 18 -16l1 -7q0 -13 -9.5 -34t-18.5 -24q-10 -4 -45 -49.5t-35 -54.5q0 -8 31 -23.5t49 -15.5q16 0 55 49q50 60 62 60zM1015 1089q0 -18 -50 -64q-178 -160 -330 -308t-234.5 -236.5t-145 -156.5t-92 -96t-44.5 -28l-8 2q-11 6 -11 19q0 17 15 27q16 10 154 159
q148 159 292.5 302t214.5 207t76 67q5 2 5 15q0 12 47 50q76 58 92 58q6 0 8 -2q11 -6 11 -15zM402 760h-1q-7 3 -15 6q-12 4 -12 19q0 35 80 153q62 91 83 91q10 0 14 -13v-2q0 -13 -22.5 -54t-33.5 -48q-11 -6 -42.5 -58.5t-31.5 -64.5q0 -6 -7.5 -17.5t-11.5 -11.5z" />
    <glyph glyph-name="onehalf" unicode="&#xbd;" horiz-adv-x="961" 
d="M580 791h-3q-11 0 -17 10q-3 6 -3 11q0 8 13 33q15 30 17 45q1 16 46.5 80.5t57.5 69.5l5 2q9 0 30 -21q-37 -54 -71 -114.5t-49.5 -87.5t-25.5 -28zM675 740q41 42 70 72t55 55.5t41 40.5t31.5 29t22.5 19.5t18 13.5t14.5 9.5t15.5 8t18 8.5q-4 -57 -7 -61q-3 -3 -14 -3
q-13 -1 -39 -25.5t-146 -148.5q-112 -117 -195 -202q-377 -386 -406 -446q-12 -23 -31 -23q-23 0 -23 15q0 34 114 158t461 480zM773 240q0 -14 -16 -20q-12 -5 -57 -5q-54 0 -99 10.5t-50 34.5q-2 4 -2 11q0 25 52 66q72 58 72 69q0 2 -2 2q-12 0 -25.5 -7.5t-15.5 -16.5
q-5 -16 -21 -16l-9 1q-10 4 -10 20q0 23 15 36q10 10 38.5 20.5t45.5 10.5q10 0 25.5 -14.5t15.5 -23.5q0 -13 -25.5 -44.5t-57.5 -57.5q-41 -34 -41 -41q0 -4 27 -7.5t56 -3.5q33 0 37 4t10 4t18 -6q19 -11 19 -26z" />
    <glyph glyph-name="threequarters" unicode="&#xbe;" horiz-adv-x="899" 
d="M457 967q0 -8 -3.5 -15.5t-11.5 -15t-14.5 -12.5t-19 -12t-17.5 -10t-17 -9l-13 -6q5 -7 10.5 -15.5t8 -13t5.5 -9t4 -8t1 -6.5q0 -8 -11 -25q-21 -34 -86.5 -53.5t-117.5 -19.5q-20 0 -28 4q-11 6 -11 19q0 8 5 16t54 10q83 5 133 37q11 7 11 11t-4 8q-5 6 -23 17
t-18 27q0 11 9.5 19t47.5 27q58 29 58 34q0 6 -12 6q-25 0 -40 -15q-10 -11 -20 -11q-17 0 -17 19q0 12 8 23q22 28 60 28q32 0 55 -21q14 -14 14 -28zM877 1098h4q18 -4 18 -14q0 -8 -18.5 -38.5t-48 -75.5t-35.5 -55q-12 -21 -23 -21l-6 1q-18 0 -171.5 -179t-298 -358.5
t-144.5 -184.5q0 -6 -11 -16t-18 -10q-6 0 -15.5 9.5t-9.5 15.5q0 19 234 302t363 428q129 146 154 177q12 19 26 19zM718 462q12 -5 12 -16t-16.5 -37t-25.5 -29q-10 -2 -24.5 -20.5t-22.5 -38.5q-7 -16 -13 -16q-7 0 -107 -140t-100 -151q0 -6 -6.5 -10t-15.5 -4
q-4 0 -10 2q-10 6 -10 18q0 22 49 94q68 99 146 201v2q0 7 -30 23q-54 28 -54 62q0 8 3 17q7 22 25.5 50.5t30.5 35.5q5 4 11 4q5 0 13 -8t8 -13q0 -6 -13 -29q-11 -22 -23 -40q-8 -8 -8 -15q0 -2 1 -4.5t3 -4.5l4 -4t6.5 -4.5t7.5 -4.5t9.5 -5.5t11 -5.5t12.5 -6l14 -7
q38 47 74 85q21 22 29 22q5 0 9 -3z" />
    <glyph glyph-name="questiondown" unicode="&#xbf;" horiz-adv-x="781" 
d="M735 90q-10 0 -17.5 6.5t-7.5 11.5q0 6 11 14q15 13 15 29q0 17 15 17q12 0 21 -13q9 -12 9 -25q0 -15 -15 -27q-16 -13 -31 -13zM234 -641q-93 0 -125 67q-9 18 -9 38q0 87 199 190q116 61 181 118t159 182q31 41 43.5 54.5t20.5 13.5q5 0 15 -8q9 -13 9 -17
q0 -8 -102 -137q-55 -70 -126 -128t-129.5 -92t-111 -64t-82 -58t-29.5 -58q0 -26 36 -43q23 -11 57 -11q77 0 154.5 47.5t77.5 100.5q0 13 6 23t13 10q9 0 16.5 -13t7.5 -29q-1 -66 -94 -126t-187 -60z" />
    <glyph glyph-name="Agrave" unicode="&#xc0;" 
d="M1445 221l-547 -1008q-38 -71 -63 -71q-5 0 -13.5 7t-8.5 14q0 8 27 48q24 36 161 288t262 486l125 234l-591 -29q-5 -3 -91 -114t-98 -111q-9 0 -16.5 7t-7.5 16q0 5 6.5 16t20.5 30t29.5 39.5t40 53.5t45.5 61q-154 -9 -336.5 -14t-248.5 -9t-73 -17q-6 -10 -19 -10
q-16 0 -32.5 11t-16.5 21q0 9 6 15t22 10t25 5t32 4q173 18 302 18q65 0 199.5 6t159.5 10q18 2 45 41q139 200 436 598.5t328 398.5q6 0 15 -14q6 -10 6 -13q0 -11 -18 -41t-81 -126q-26 -38 -49 -74.5t-34 -54.5t-21 -33t-15 -19.5t-10 -4.5q-8 0 -14 6.5t-6 14.5
q0 5 3 11q3 4 3 7q-7 0 -146 -187t-163 -222q44 48 116 125t235.5 244.5t259.5 252.5q167 148 233 148q45 0 45 -52q0 -78 -101.5 -299.5t-338.5 -672.5l78 1q21 0 32 -0.5t22.5 -3t16 -8t4.5 -14.5q0 -12 -9.5 -22.5t-20.5 -10.5q-6 0 -13 5q-4 5 -46 5zM891 246
q58 0 189 6t233 12l102 6q10 18 26 49t63.5 122t90.5 175.5t95.5 192t90.5 190t64 150t26 90.5q0 8 -3 11l-3 1q-17 0 -74.5 -40.5t-121.5 -96.5q-146 -129 -350 -344t-337 -366t-133 -156q0 -2 42 -2zM2009 1418q-8 0 -68.5 39.5t-60.5 50.5q0 10 6.5 17t15.5 7
q18 -1 69 -28.5t61 -53.5q0 -11 -7 -21t-16 -11z" />
    <glyph glyph-name="Aacute" unicode="&#xc1;" 
d="M1445 221l-547 -1008q-38 -71 -63 -71q-5 0 -13.5 7t-8.5 14q0 8 27 48q24 36 161 288t262 486l125 234l-591 -29q-5 -3 -91 -114t-98 -111q-9 0 -16.5 7t-7.5 16q0 5 6.5 16t20.5 30t29.5 39.5t40 53.5t45.5 61q-154 -9 -336.5 -14t-248.5 -9t-73 -17q-6 -10 -19 -10
q-16 0 -32.5 11t-16.5 21q0 9 6 15t22 10t25 5t32 4q173 18 302 18q65 0 199.5 6t159.5 10q18 2 45 41q139 200 436 598.5t328 398.5q6 0 15 -14q6 -10 6 -13q0 -11 -18 -41t-81 -126q-26 -38 -49 -74.5t-34 -54.5t-21 -33t-15 -19.5t-10 -4.5q-8 0 -14 6.5t-6 14.5
q0 5 3 11q3 4 3 7q-7 0 -146 -187t-163 -222q44 48 116 125t235.5 244.5t259.5 252.5q167 148 233 148q45 0 45 -52q0 -78 -101.5 -299.5t-338.5 -672.5l78 1q21 0 32 -0.5t22.5 -3t16 -8t4.5 -14.5q0 -12 -9.5 -22.5t-20.5 -10.5q-6 0 -13 5q-4 5 -46 5zM891 246
q58 0 189 6t233 12l102 6q10 18 26 49t63.5 122t90.5 175.5t95.5 192t90.5 190t64 150t26 90.5q0 8 -3 11l-3 1q-17 0 -74.5 -40.5t-121.5 -96.5q-146 -129 -350 -344t-337 -366t-133 -156q0 -2 42 -2zM1880 1419q-10 0 -17.5 9t-7.5 20l2 9q0 6 60.5 38.5t70.5 32.5
q8 0 14 -7.5t6 -16.5q0 -12 -50 -45t-78 -40z" />
    <glyph glyph-name="Acircumflex" unicode="&#xc2;" 
d="M1445 221l-547 -1008q-38 -71 -63 -71q-5 0 -13.5 7t-8.5 14q0 8 27 48q24 36 161 288t262 486l125 234l-591 -29q-5 -3 -91 -114t-98 -111q-9 0 -16.5 7t-7.5 16q0 5 6.5 16t20.5 30t29.5 39.5t40 53.5t45.5 61q-154 -9 -336.5 -14t-248.5 -9t-73 -17q-6 -10 -19 -10
q-16 0 -32.5 11t-16.5 21q0 9 6 15t22 10t25 5t32 4q173 18 302 18q65 0 199.5 6t159.5 10q18 2 45 41q139 200 436 598.5t328 398.5q6 0 15 -14q6 -10 6 -13q0 -11 -18 -41t-81 -126q-26 -38 -49 -74.5t-34 -54.5t-21 -33t-15 -19.5t-10 -4.5q-8 0 -14 6.5t-6 14.5
q0 5 3 11q3 4 3 7q-7 0 -146 -187t-163 -222q44 48 116 125t235.5 244.5t259.5 252.5q167 148 233 148q45 0 45 -52q0 -78 -101.5 -299.5t-338.5 -672.5l78 1q21 0 32 -0.5t22.5 -3t16 -8t4.5 -14.5q0 -12 -9.5 -22.5t-20.5 -10.5q-6 0 -13 5q-4 5 -46 5zM891 246
q58 0 189 6t233 12l102 6q10 18 26 49t63.5 122t90.5 175.5t95.5 192t90.5 190t64 150t26 90.5q0 8 -3 11l-3 1q-17 0 -74.5 -40.5t-121.5 -96.5q-146 -129 -350 -344t-337 -366t-133 -156q0 -2 42 -2zM1940 1407q-12 0 -20 8q-4 4 -8 16.5t-6 23.5l-1 11l-117 -53
q-11 0 -20.5 6.5t-9.5 13.5q0 3 28 17t69 34t44 21q15 15 24 15q10 0 14 -14t9.5 -41t14.5 -45q0 -5 -7 -9t-14 -4z" />
    <glyph glyph-name="Atilde" unicode="&#xc3;" 
d="M1445 221l-547 -1008q-38 -71 -63 -71q-5 0 -13.5 7t-8.5 14q0 8 27 48q24 36 161 288t262 486l125 234l-591 -29q-5 -3 -91 -114t-98 -111q-9 0 -16.5 7t-7.5 16q0 5 6.5 16t20.5 30t29.5 39.5t40 53.5t45.5 61q-154 -9 -336.5 -14t-248.5 -9t-73 -17q-6 -10 -19 -10
q-16 0 -32.5 11t-16.5 21q0 9 6 15t22 10t25 5t32 4q173 18 302 18q65 0 199.5 6t159.5 10q18 2 45 41q139 200 436 598.5t328 398.5q6 0 15 -14q6 -10 6 -13q0 -11 -18 -41t-81 -126q-26 -38 -49 -74.5t-34 -54.5t-21 -33t-15 -19.5t-10 -4.5q-8 0 -14 6.5t-6 14.5
q0 5 3 11q3 4 3 7q-7 0 -146 -187t-163 -222q44 48 116 125t235.5 244.5t259.5 252.5q167 148 233 148q45 0 45 -52q0 -78 -101.5 -299.5t-338.5 -672.5l78 1q21 0 32 -0.5t22.5 -3t16 -8t4.5 -14.5q0 -12 -9.5 -22.5t-20.5 -10.5q-6 0 -13 5q-4 5 -46 5zM891 246
q58 0 189 6t233 12l102 6q10 18 26 49t63.5 122t90.5 175.5t95.5 192t90.5 190t64 150t26 90.5q0 8 -3 11l-3 1q-17 0 -74.5 -40.5t-121.5 -96.5q-146 -129 -350 -344t-337 -366t-133 -156q0 -2 42 -2zM1928 1433q-22 0 -46 24t-32 24q-3 0 -9 -4.5t-9 -4.5q-15 0 -15 18
q0 10 11 18t26 9q11 0 35 -24t33 -24q10 0 19 13.5t20 13.5q12 0 12 -21q0 -10 -14 -25t-31 -17z" />
    <glyph glyph-name="Adieresis" unicode="&#xc4;" 
d="M1445 221l-547 -1008q-38 -71 -63 -71q-5 0 -13.5 7t-8.5 14q0 8 27 48q24 36 161 288t262 486l125 234l-591 -29q-5 -3 -91 -114t-98 -111q-9 0 -16.5 7t-7.5 16q0 5 6.5 16t20.5 30t29.5 39.5t40 53.5t45.5 61q-154 -9 -336.5 -14t-248.5 -9t-73 -17q-6 -10 -19 -10
q-16 0 -32.5 11t-16.5 21q0 9 6 15t22 10t25 5t32 4q173 18 302 18q65 0 199.5 6t159.5 10q18 2 45 41q139 200 436 598.5t328 398.5q6 0 15 -14q6 -10 6 -13q0 -11 -18 -41t-81 -126q-26 -38 -49 -74.5t-34 -54.5t-21 -33t-15 -19.5t-10 -4.5q-8 0 -14 6.5t-6 14.5
q0 5 3 11q3 4 3 7q-7 0 -146 -187t-163 -222q44 48 116 125t235.5 244.5t259.5 252.5q167 148 233 148q45 0 45 -52q0 -78 -101.5 -299.5t-338.5 -672.5l78 1q21 0 32 -0.5t22.5 -3t16 -8t4.5 -14.5q0 -12 -9.5 -22.5t-20.5 -10.5q-6 0 -13 5q-4 5 -46 5zM891 246
q58 0 189 6t233 12l102 6q10 18 26 49t63.5 122t90.5 175.5t95.5 192t90.5 190t64 150t26 90.5q0 8 -3 11l-3 1q-17 0 -74.5 -40.5t-121.5 -96.5q-146 -129 -350 -344t-337 -366t-133 -156q0 -2 42 -2zM1938 1441q-11 0 -19 6t-8 13q0 9 10 15.5t23 6.5q10 0 19.5 -7.5
t9.5 -13.5q0 -7 -12 -13.5t-23 -6.5zM1860 1441q-11 0 -19 6t-8 13q0 9 10 15.5t23 6.5q10 0 19.5 -7.5t9.5 -13.5q0 -7 -12 -13.5t-23 -6.5z" />
    <glyph glyph-name="Aring" unicode="&#xc5;" 
d="M1445 221l-547 -1008q-38 -71 -63 -71q-5 0 -13.5 7t-8.5 14q0 8 27 48q24 36 161 288t262 486l125 234l-591 -29q-5 -3 -91 -114t-98 -111q-9 0 -16.5 7t-7.5 16q0 5 6.5 16t20.5 30t29.5 39.5t40 53.5t45.5 61q-154 -9 -336.5 -14t-248.5 -9t-73 -17q-6 -10 -19 -10
q-16 0 -32.5 11t-16.5 21q0 9 6 15t22 10t25 5t32 4q173 18 302 18q65 0 199.5 6t159.5 10q18 2 45 41q139 200 436 598.5t328 398.5q6 0 15 -14q6 -10 6 -13q0 -11 -18 -41t-81 -126q-26 -38 -49 -74.5t-34 -54.5t-21 -33t-15 -19.5t-10 -4.5q-8 0 -14 6.5t-6 14.5
q0 5 3 11q3 4 3 7q-7 0 -146 -187t-163 -222q44 48 116 125t235.5 244.5t259.5 252.5q167 148 233 148q45 0 45 -52q0 -78 -101.5 -299.5t-338.5 -672.5l78 1q21 0 32 -0.5t22.5 -3t16 -8t4.5 -14.5q0 -12 -9.5 -22.5t-20.5 -10.5q-6 0 -13 5q-4 5 -46 5zM891 246
q58 0 189 6t233 12l102 6q10 18 26 49t63.5 122t90.5 175.5t95.5 192t90.5 190t64 150t26 90.5q0 8 -3 11l-3 1q-17 0 -74.5 -40.5t-121.5 -96.5q-146 -129 -350 -344t-337 -366t-133 -156q0 -2 42 -2zM1881 1410q-21 0 -36 12t-15 29q0 27 34 54t60 27q20 0 20 -19v-4l2 -3
l5 1q8 0 16.5 -11.5t8.5 -22.5q0 -19 -32 -41t-63 -22zM1882 1443q16 0 38 10.5t22 20.5q0 3 -3 9.5t-3 10.5l2 6q0 3 -13 3l-28 -9q-10 -6 -23 -20t-13 -20q2 -11 21 -11z" />
    <glyph glyph-name="AE" unicode="&#xc6;" horiz-adv-x="2218" 
d="M891 246q81 0 248 9q209 11 276 15q3 0 154 295q302 586 302 674q0 11 -6 12q-16 0 -73 -39q-63 -45 -123 -98q-169 -152 -357 -351q-201 -212 -326 -355q-137 -158 -137 -160t42 -2zM741 -1014q-3 0 -8 3q-3 2 -9 8q-5 5 -5 10q0 12 27 48q17 28 175 313q1 -1 37 63
t110 200t179 329q1 0 2 2l1 2q0 2 2 4v1q1 1 1 2l1 1q0 2 1 2t1 1t1 2v2h1q0 2 2 4q0 1 1 2l1 2q0 1 1 1v2h1l3 6q2 7 7 13q1 1 1 2t1 1v2h1q0 2 3 5q0 3 1 4l2 2q1 1 1 3q8 13 8 15h1q0 5 3 8t7 12l1 2h1v2q1 0 1 1t1 1v2q4 6 5 9q1 0 2 1q0 1 1 2v2q0 1 1 2l3 6h1q0 1 1 2
t1 2t2 5h1l5 10q8 14 9 15v2q0 2 1 3l1 1q1 1 1 2t1 1l1 2q1 1 1 2l2 4q3 3 4 6q0 1 0.5 2.5t1.5 2.5l2 2l1 1v1q1 1 1 2q1 1 1 3q0 1 1 1v2h1l1 2q10 21 27 49v1l-591 -29q-11 -11 -22 -26q-3 -4 -18 -23t-25 -31l-51 -66q-14 -18 -47 -56q-20 -23 -26 -23q-9 0 -16 7
q-8 6 -8 16q0 7 20 35q20 27 51 69q45 60 71 96q-215 -11 -395 -16q-247 -2 -263 -24q-7 -10 -19 -10q-15 0 -32 11t-17 21q0 18 25 24q24 6 55 9l5 1q171 18 302 18q45 0 124 3q203 8 235 13q18 1 45 41q125 179 399 549q333 448 365 448q7 0 15 -14l1 -1q1 -1 1 -2
q1 -1 3 -4q1 -2 1 -6q0 -5 -8 -23q-5 -12 -29 -49q-58 -88 -62 -95q-76 -117 -82 -127q-13 -22 -29 -46q-10 -13 -18 -13q-10 0 -14 7q-6 6 -6 14q0 5 3 11q3 4 3 7q-11 -6 -154 -198l-155 -211q209 225 425 444q323 326 419 326q44 0 45 -52q0 -82 -106 -310l-13 -28
q94 73 232 143q312 159 734 284q428 125 654 125q135 0 135 -75q0 -71 -59 -172q-60 -101 -148 -205q-91 -108 -178 -195q-91 -91 -157 -148q-68 -57 -79 -57q-60 0 -60 22q2 19 11 34q9 16 31 16q13 0 29 10l17 10q1 0 2 1q24 15 84 69q147 133 282 298q165 202 165 305
q0 39 -69 39q-155 0 -373 -51q-225 -53 -445 -130q-222 -78 -423 -170q-195 -91 -319 -174q-123 -84 -123 -138q0 -62 145 -129q87 -43 291 -114q224 -73 245 -108q6 -10 6 -18q0 -34 -27 -54l-32 -22q-230 -162 -395 -292q-239 -191 -239 -256q0 -22 35 -22q175 0 497 152
q238 111 490 264q133 79 160 98q4 3 8 3q10 0 10 -18q0 -21 -18 -24l-63 -41q-293 -189 -500 -298q-376 -200 -586 -200q-96 0 -96 77q0 83 177 235q116 100 326 249q172 120 172 137q0 14 -54 37q-46 18 -136 49q-194 64 -312 124q-117 58 -151 117q-81 -164 -217 -421
l78 1q36 0 55 -3q20 -5 20 -23q0 -12 -9 -22q-11 -11 -21 -11q-7 0 -12 5t-47 5l-82 -2q-3 -1 -11 -1l-642 -1162q-17 -30 -36 -52q-18 -21 -26 -21z" />
    <glyph glyph-name="Ccedilla" unicode="&#xc7;" horiz-adv-x="1420" 
d="M319 -424q-3 0 -5 8q-4 10 -5 16q-2 10 -2 11q8 0 32 2q49 3 49 29q0 7 -33 7q-14 0 -22 11t-8 24q0 20 14 34q-85 1 -160 33q-81 34 -130 96q-51 63 -51 152q0 103 81 220q78 115 212 235q128 115 290 226q161 109 318 191q157 83 295 133q135 49 219 49q57 0 98 -30
q40 -30 40 -91q0 -76 -69 -173q-72 -100 -176 -195q-108 -99 -220 -180q-120 -85 -211 -134q-97 -51 -141 -51q-18 0 -37 14q-18 13 -18 34q0 46 64 129q63 83 155 170q92 88 185 149q92 61 153 61q46 0 46 -35q0 -10 -5 -18q-6 -9 -15 -9q-6 0 -10 3q-12 6 -12 12t-9 6
q-45 0 -128 -59q-80 -56 -169 -140q-88 -83 -146 -156q-61 -74 -61 -107q0 -6 11 -6q38 0 126 49q92 51 196 128q105 76 210 170q100 92 168 183q67 89 67 159q0 68 -92 68q-83 0 -217 -48q-138 -51 -286 -131q-161 -86 -306 -185q-151 -103 -277 -217q-127 -115 -203 -225
q-77 -112 -77 -206q0 -76 45 -125q44 -50 116 -76t149 -26q193 0 511 152q263 124 483 283q61 45 68 45q3 0 8 -3q2 -2 4.5 -5t3.5 -4q3 -5 3 -10q0 -11 -56 -53q-201 -150 -478 -287q-312 -152 -522 -164q-2 -6 -8 -12q-13 -14 -13 -18q0 -3 7 -3q29 0 48 -11
q17 -12 17 -26q0 -27 -30 -50q-31 -23 -84 -23z" />
    <glyph glyph-name="Egrave" unicode="&#xc8;" horiz-adv-x="1245" 
d="M675 366q0 15 -68.5 41.5t-166.5 60.5t-196 74t-166.5 93t-68.5 106q0 78 135 178.5t345.5 192.5t445.5 171.5t455.5 127t355.5 47.5q25 0 47 -3.5t42.5 -11.5t33 -23.5t12.5 -36.5q0 -68 -60.5 -172t-147.5 -206t-177 -193.5t-157 -148.5t-79 -57q-60 0 -60 24
q0 17 11 32.5t31 15.5q8 0 20 5t20 11l8 5q31 19 115 98.5t178 182t166 214t72 177.5q0 39 -69 39q-187 0 -482 -78.5t-557 -185t-453 -220.5t-191 -179q0 -38 55.5 -78.5t142 -75.5t175.5 -66t173 -62t117 -51q10 -6 17 -17t7 -19q0 -36 -27 -54q-332 -235 -467 -346
q-199 -165 -199 -224q0 -22 36 -22q63 0 147.5 21t170 54.5t184 79.5t181 90t169 93t141 82t103.5 63t50 31q5 3 8 3q10 0 10 -18q0 -20 -18 -24q-11 -6 -93.5 -59.5t-168.5 -107.5t-212.5 -124t-238 -122.5t-231.5 -89t-206 -36.5q-95 0 -95 77q0 44 50 107.5t125 126.5
t162.5 129.5t162.5 118t125 90.5t50 49zM1564 1533q-8 0 -68.5 39.5t-60.5 50.5q0 10 6.5 17t15.5 7q18 -1 69 -28.5t61 -53.5q0 -11 -7 -21t-16 -11z" />
    <glyph glyph-name="Eacute" unicode="&#xc9;" horiz-adv-x="1245" 
d="M675 366q0 15 -68.5 41.5t-166.5 60.5t-196 74t-166.5 93t-68.5 106q0 78 135 178.5t345.5 192.5t445.5 171.5t455.5 127t355.5 47.5q25 0 47 -3.5t42.5 -11.5t33 -23.5t12.5 -36.5q0 -68 -60.5 -172t-147.5 -206t-177 -193.5t-157 -148.5t-79 -57q-60 0 -60 24
q0 17 11 32.5t31 15.5q8 0 20 5t20 11l8 5q31 19 115 98.5t178 182t166 214t72 177.5q0 39 -69 39q-187 0 -482 -78.5t-557 -185t-453 -220.5t-191 -179q0 -38 55.5 -78.5t142 -75.5t175.5 -66t173 -62t117 -51q10 -6 17 -17t7 -19q0 -36 -27 -54q-332 -235 -467 -346
q-199 -165 -199 -224q0 -22 36 -22q63 0 147.5 21t170 54.5t184 79.5t181 90t169 93t141 82t103.5 63t50 31q5 3 8 3q10 0 10 -18q0 -20 -18 -24q-11 -6 -93.5 -59.5t-168.5 -107.5t-212.5 -124t-238 -122.5t-231.5 -89t-206 -36.5q-95 0 -95 77q0 44 50 107.5t125 126.5
t162.5 129.5t162.5 118t125 90.5t50 49zM1472 1534q-10 0 -17.5 9t-7.5 20l2 9q0 6 60.5 38.5t70.5 32.5q8 0 14 -7.5t6 -16.5q0 -12 -50 -45t-78 -40z" />
    <glyph glyph-name="Ecircumflex" unicode="&#xca;" horiz-adv-x="1245" 
d="M675 366q0 15 -68.5 41.5t-166.5 60.5t-196 74t-166.5 93t-68.5 106q0 78 135 178.5t345.5 192.5t445.5 171.5t455.5 127t355.5 47.5q25 0 47 -3.5t42.5 -11.5t33 -23.5t12.5 -36.5q0 -68 -60.5 -172t-147.5 -206t-177 -193.5t-157 -148.5t-79 -57q-60 0 -60 24
q0 17 11 32.5t31 15.5q8 0 20 5t20 11l8 5q31 19 115 98.5t178 182t166 214t72 177.5q0 39 -69 39q-187 0 -482 -78.5t-557 -185t-453 -220.5t-191 -179q0 -38 55.5 -78.5t142 -75.5t175.5 -66t173 -62t117 -51q10 -6 17 -17t7 -19q0 -36 -27 -54q-332 -235 -467 -346
q-199 -165 -199 -224q0 -22 36 -22q63 0 147.5 21t170 54.5t184 79.5t181 90t169 93t141 82t103.5 63t50 31q5 3 8 3q10 0 10 -18q0 -20 -18 -24q-11 -6 -93.5 -59.5t-168.5 -107.5t-212.5 -124t-238 -122.5t-231.5 -89t-206 -36.5q-95 0 -95 77q0 44 50 107.5t125 126.5
t162.5 129.5t162.5 118t125 90.5t50 49zM1626 1522q-12 0 -20 8q-4 4 -8 16.5t-6 23.5l-1 11l-117 -53q-11 0 -20.5 6.5t-9.5 13.5q0 3 28 17t69 34t44 21q15 15 24 15q10 0 14 -14t9.5 -41t14.5 -45q0 -5 -7 -9t-14 -4z" />
    <glyph glyph-name="Edieresis" unicode="&#xcb;" horiz-adv-x="1245" 
d="M675 366q0 15 -68.5 41.5t-166.5 60.5t-196 74t-166.5 93t-68.5 106q0 78 135 178.5t345.5 192.5t445.5 171.5t455.5 127t355.5 47.5q25 0 47 -3.5t42.5 -11.5t33 -23.5t12.5 -36.5q0 -68 -60.5 -172t-147.5 -206t-177 -193.5t-157 -148.5t-79 -57q-60 0 -60 24
q0 17 11 32.5t31 15.5q8 0 20 5t20 11l8 5q31 19 115 98.5t178 182t166 214t72 177.5q0 39 -69 39q-187 0 -482 -78.5t-557 -185t-453 -220.5t-191 -179q0 -38 55.5 -78.5t142 -75.5t175.5 -66t173 -62t117 -51q10 -6 17 -17t7 -19q0 -36 -27 -54q-332 -235 -467 -346
q-199 -165 -199 -224q0 -22 36 -22q63 0 147.5 21t170 54.5t184 79.5t181 90t169 93t141 82t103.5 63t50 31q5 3 8 3q10 0 10 -18q0 -20 -18 -24q-11 -6 -93.5 -59.5t-168.5 -107.5t-212.5 -124t-238 -122.5t-231.5 -89t-206 -36.5q-95 0 -95 77q0 44 50 107.5t125 126.5
t162.5 129.5t162.5 118t125 90.5t50 49zM1571 1556q-11 0 -19 6t-8 13q0 9 10 15.5t23 6.5q10 0 19.5 -7.5t9.5 -13.5q0 -7 -12 -13.5t-23 -6.5zM1493 1556q-11 0 -19 6t-8 13q0 9 10 15.5t23 6.5q10 0 19.5 -7.5t9.5 -13.5q0 -7 -12 -13.5t-23 -6.5z" />
    <glyph glyph-name="Igrave" unicode="&#xcc;" horiz-adv-x="975" 
d="M444 -129q-21 0 -21 21q0 11 27 57l600 846q36 46 36 62v13q0 28 40 78.5t79.5 91.5t39.5 46q-70 -6 -516 -6q-58 0 -72.5 2.5t-14.5 15.5q0 16 42 30q14 3 144.5 5t286.5 4t193 3q51 45 69 45q8 0 13 -6.5t5 -14.5t-2.5 -15t-4.5 -9l-2 -3q243 -6 258 -21l6 -12
q0 -24 -41 -44.5t-69 -20.5q-3 0 -3 3t5.5 14t5.5 15q0 6 -51.5 9.5t-102.5 3.5l-52 1q-39 -43 -433 -584.5t-414 -596.5q-7 -13 -22 -23t-29 -10zM43 -204q-26 0 -34.5 5t-8.5 19q0 42 309 42l270 2q19 0 34.5 -7t15.5 -23t-23 -20.5t-108 -4.5l-31 1q-150 0 -285.5 -7
t-138.5 -7zM1586 1260q-8 0 -68.5 39.5t-60.5 50.5q0 10 6.5 17t15.5 7q18 -1 69 -28.5t61 -53.5q0 -11 -7 -21t-16 -11z" />
    <glyph glyph-name="Iacute" unicode="&#xcd;" horiz-adv-x="975" 
d="M444 -129q-21 0 -21 21q0 11 27 57l600 846q36 46 36 62v13q0 28 40 78.5t79.5 91.5t39.5 46q-70 -6 -516 -6q-58 0 -72.5 2.5t-14.5 15.5q0 16 42 30q14 3 144.5 5t286.5 4t193 3q51 45 69 45q8 0 13 -6.5t5 -14.5t-2.5 -15t-4.5 -9l-2 -3q243 -6 258 -21l6 -12
q0 -24 -41 -44.5t-69 -20.5q-3 0 -3 3t5.5 14t5.5 15q0 6 -51.5 9.5t-102.5 3.5l-52 1q-39 -43 -433 -584.5t-414 -596.5q-7 -13 -22 -23t-29 -10zM43 -204q-26 0 -34.5 5t-8.5 19q0 42 309 42l270 2q19 0 34.5 -7t15.5 -23t-23 -20.5t-108 -4.5l-31 1q-150 0 -285.5 -7
t-138.5 -7zM1447 1261q-10 0 -17.5 9t-7.5 20l2 9q0 6 60.5 38.5t70.5 32.5q8 0 14 -7.5t6 -16.5q0 -12 -50 -45t-78 -40z" />
    <glyph glyph-name="Icircumflex" unicode="&#xce;" horiz-adv-x="975" 
d="M444 -129q-21 0 -21 21q0 11 27 57l600 846q36 46 36 62v13q0 28 40 78.5t79.5 91.5t39.5 46q-70 -6 -516 -6q-58 0 -72.5 2.5t-14.5 15.5q0 16 42 30q14 3 144.5 5t286.5 4t193 3q51 45 69 45q8 0 13 -6.5t5 -14.5t-2.5 -15t-4.5 -9l-2 -3q243 -6 258 -21l6 -12
q0 -24 -41 -44.5t-69 -20.5q-3 0 -3 3t5.5 14t5.5 15q0 6 -51.5 9.5t-102.5 3.5l-52 1q-39 -43 -433 -584.5t-414 -596.5q-7 -13 -22 -23t-29 -10zM43 -204q-26 0 -34.5 5t-8.5 19q0 42 309 42l270 2q19 0 34.5 -7t15.5 -23t-23 -20.5t-108 -4.5l-31 1q-150 0 -285.5 -7
t-138.5 -7zM1506 1249q-12 0 -20 8q-4 4 -8 16.5t-6 23.5l-1 11l-117 -53q-11 0 -20.5 6.5t-9.5 13.5q0 3 28 17t69 34t44 21q15 15 24 15q10 0 14 -14t9.5 -41t14.5 -45q0 -5 -7 -9t-14 -4z" />
    <glyph glyph-name="Idieresis" unicode="&#xcf;" horiz-adv-x="975" 
d="M444 -129q-21 0 -21 21q0 11 27 57l600 846q36 46 36 62v13q0 28 40 78.5t79.5 91.5t39.5 46q-70 -6 -516 -6q-58 0 -72.5 2.5t-14.5 15.5q0 16 42 30q14 3 144.5 5t286.5 4t193 3q51 45 69 45q8 0 13 -6.5t5 -14.5t-2.5 -15t-4.5 -9l-2 -3q243 -6 258 -21l6 -12
q0 -24 -41 -44.5t-69 -20.5q-3 0 -3 3t5.5 14t5.5 15q0 6 -51.5 9.5t-102.5 3.5l-52 1q-39 -43 -433 -584.5t-414 -596.5q-7 -13 -22 -23t-29 -10zM43 -204q-26 0 -34.5 5t-8.5 19q0 42 309 42l270 2q19 0 34.5 -7t15.5 -23t-23 -20.5t-108 -4.5l-31 1q-150 0 -285.5 -7
t-138.5 -7zM1469 1283q-11 0 -19 6t-8 13q0 9 10 15.5t23 6.5q10 0 19.5 -7.5t9.5 -13.5q0 -7 -12 -13.5t-23 -6.5zM1391 1283q-11 0 -19 6t-8 13q0 9 10 15.5t23 6.5q10 0 19.5 -7.5t9.5 -13.5q0 -7 -12 -13.5t-23 -6.5z" />
    <glyph glyph-name="Eth" unicode="&#xd0;" horiz-adv-x="2417" 
d="M313 -436q295 0 606 81q308 81 592 213q286 133 507 289q223 156 355 313q131 158 131 282q0 78 -42 137q-42 57 -113 96t-159 63q-95 24 -184 34q-91 10 -185 10q-38 0 -57 -1l-7 -12q-15 -22 -80 -128q-142 -235 -142 -309q0 -29 -22 -29q-5 0 -10 3q-6 2 -7 6
q-3 4 -3 12q0 99 166 383q-7 -11 -511 -616q7 -1 117 -1q61 -1 76 -6q14 -5 14 -19t-16 -23q-94 0 -229 3l-140 -171q171 34 384 49q208 15 355 15q140 0 175 -12q16 -9 20 -14q6 -8 6 -24q0 -10 -4 -14q-6 -6 -9 -7q-8 -2 -9 -2q-7 0 -17 10q-30 18 -168 18
q-144 0 -359 -18q-226 -21 -419 -56q-8 -11 -27 -37.5t-30 -41.5q-14 -19 -38.5 -54.5t-26.5 -38.5q-28 -40 -43 -68q-4 -9 -4 -22l1 -7q0 -11 -14 -25t-26 -14q-13 0 -20 9q-8 8 -8 20q4 35 161 259l-1 1q-9 0 -68 -13q-74 -16 -152 -38q-93 -26 -191 -61
q-107 -38 -190 -82q-92 -48 -146 -101q-57 -55 -57 -117q0 -69 97 -99q72 -25 171 -25zM348 -485q-136 0 -227 32q-123 42 -123 138q0 78 63 144q113 119 376 210q188 66 407 111q55 10 66 25q4 5 139 171q-206 1 -245 10q-27 6 -27 23q0 11 15 20q14 9 91 9q22 0 60 -2
q26 -1 39 -7q10 -5 106 -7q560 670 560 684l-5 1q-41 0 -172 -18q-140 -21 -305 -58q-178 -42 -350 -103q-62 -23 -113 -46q-55 -27 -61 -34q0 -5 14 -13q34 -16 34 -31q0 -5 -3 -8q-7 -9 -20 -9q-12 0 -30 9q-48 22 -48 47q0 42 163 109q163 68 412 126q244 57 526 80
q101 107 110 107q2 0 10 -3q8 -5 13 -11q5 -8 5 -17q0 -19 -19 -50l-11 -20q93 -4 197 -15q556 -63 556 -377q0 -120 -99 -257q-101 -139 -270 -274q-173 -138 -392 -262t-467 -222q-252 -99 -497 -155q-251 -57 -478 -57z" />
    <glyph glyph-name="Ntilde" unicode="&#xd1;" horiz-adv-x="1997" 
d="M2162 861q-9 -13 -104 -179.5t-193 -333t-196.5 -309.5t-129.5 -143q-17 0 -29.5 12t-12.5 31q0 11 48.5 224.5t97.5 421.5l49 208l-2 3q-107 -132 -287 -400q-111 -165 -197 -277t-144 -174t-111 -94t-86.5 -39.5t-82.5 -7.5q-108 0 -412 104t-349 147q-21 19 -21 39
q0 19 20 36q48 43 287.5 70.5t476.5 45t268 33.5q8 3 14 3q10 0 16.5 -8t6.5 -18q0 -24 -31 -29q-56 -11 -317.5 -33t-468.5 -49t-207 -56q9 -16 157.5 -72t325 -106.5t245.5 -50.5q47 0 97.5 24.5t105.5 77t106 111.5t118.5 152.5t122.5 173t138 200t147 209.5
q103 143 114 174q68 179 83 189q6 5 14 5q21 0 21 -23q0 -11 -70 -219q-222 -878 -222 -940q13 0 67.5 81.5t126 201t140 237t121.5 209.5t58 100q122 189 156 234q112 152 232 212q110 55 257 55q36 0 36 -22q0 -9 -7 -15.5t-19 -7.5q-47 -3 -87 -8.5t-76 -16t-64 -20
t-58 -29.5t-50.5 -34.5t-47.5 -45t-44 -51t-46.5 -62t-47.5 -69.5t-53 -82zM2254 1433q-22 0 -46 24t-32 24q-3 0 -9 -4.5t-9 -4.5q-15 0 -15 18q0 10 11 18t26 9q11 0 35 -24t33 -24q10 0 19 13.5t20 13.5q12 0 12 -21q0 -10 -14 -25t-31 -17z" />
    <glyph glyph-name="Ograve" unicode="&#xd2;" horiz-adv-x="1525" 
d="M1455 1119q1 0 20 -5.5t26 -8.5t26 -10t28 -14.5t25 -19t24.5 -25.5t18 -32t13.5 -40.5t4 -49.5q0 -94 -55 -231t-143.5 -279.5t-203.5 -286.5t-229.5 -255.5t-227 -181.5t-191.5 -70q-78 0 -107 47.5t-29 136.5q1 100 37.5 225t94 243.5t127 239t138.5 221t126.5 179
t92.5 122.5l36 45q0 6 -17 6q-136 0 -386 -48.5t-449 -109t-212 -92.5q-6 -19 -21 -19q-9 0 -15 7.5t-6 20.5q0 45 168 106.5t443 115t547 70.5q2 2 33 33.5t50 50.5t55 53t63.5 56t59 45.5t57.5 35.5t45 12q40 0 40 -39q0 -21 -12.5 -56.5t-24 -60t-37.5 -74.5t-32 -63z
M1517 1368q-65 -32 -119 -77.5t-169 -156.5q6 0 32.5 -1.5t66 -3.5t62.5 -3h3q16 0 65 102t59 140zM590 -339q70 0 174 67t213 174.5t218.5 245.5t195.5 275t139.5 269t53.5 223q0 43 -10 72t-33 45.5t-46.5 25t-63.5 16.5q-188 -337 -221 -337q-5 0 -12.5 6t-7.5 14
q0 13 30 55q53 68 163 270h-201q-112 -133 -224.5 -293.5t-216.5 -339.5t-169 -356.5t-65 -307.5q0 -124 83 -124zM1541 1418q-8 0 -68.5 39.5t-60.5 50.5q0 10 6.5 17t15.5 7q18 -1 69 -28.5t61 -53.5q0 -11 -7 -21t-16 -11z" />
    <glyph glyph-name="Oacute" unicode="&#xd3;" horiz-adv-x="1525" 
d="M1455 1119q1 0 20 -5.5t26 -8.5t26 -10t28 -14.5t25 -19t24.5 -25.5t18 -32t13.5 -40.5t4 -49.5q0 -94 -55 -231t-143.5 -279.5t-203.5 -286.5t-229.5 -255.5t-227 -181.5t-191.5 -70q-78 0 -107 47.5t-29 136.5q1 100 37.5 225t94 243.5t127 239t138.5 221t126.5 179
t92.5 122.5l36 45q0 6 -17 6q-136 0 -386 -48.5t-449 -109t-212 -92.5q-6 -19 -21 -19q-9 0 -15 7.5t-6 20.5q0 45 168 106.5t443 115t547 70.5q2 2 33 33.5t50 50.5t55 53t63.5 56t59 45.5t57.5 35.5t45 12q40 0 40 -39q0 -21 -12.5 -56.5t-24 -60t-37.5 -74.5t-32 -63z
M1517 1368q-65 -32 -119 -77.5t-169 -156.5q6 0 32.5 -1.5t66 -3.5t62.5 -3h3q16 0 65 102t59 140zM590 -339q70 0 174 67t213 174.5t218.5 245.5t195.5 275t139.5 269t53.5 223q0 43 -10 72t-33 45.5t-46.5 25t-63.5 16.5q-188 -337 -221 -337q-5 0 -12.5 6t-7.5 14
q0 13 30 55q53 68 163 270h-201q-112 -133 -224.5 -293.5t-216.5 -339.5t-169 -356.5t-65 -307.5q0 -124 83 -124zM1487 1419q-10 0 -17.5 9t-7.5 20l2 9q0 6 60.5 38.5t70.5 32.5q8 0 14 -7.5t6 -16.5q0 -12 -50 -45t-78 -40z" />
    <glyph glyph-name="Ocircumflex" unicode="&#xd4;" horiz-adv-x="1525" 
d="M1455 1119q1 0 20 -5.5t26 -8.5t26 -10t28 -14.5t25 -19t24.5 -25.5t18 -32t13.5 -40.5t4 -49.5q0 -94 -55 -231t-143.5 -279.5t-203.5 -286.5t-229.5 -255.5t-227 -181.5t-191.5 -70q-78 0 -107 47.5t-29 136.5q1 100 37.5 225t94 243.5t127 239t138.5 221t126.5 179
t92.5 122.5l36 45q0 6 -17 6q-136 0 -386 -48.5t-449 -109t-212 -92.5q-6 -19 -21 -19q-9 0 -15 7.5t-6 20.5q0 45 168 106.5t443 115t547 70.5q2 2 33 33.5t50 50.5t55 53t63.5 56t59 45.5t57.5 35.5t45 12q40 0 40 -39q0 -21 -12.5 -56.5t-24 -60t-37.5 -74.5t-32 -63z
M1517 1368q-65 -32 -119 -77.5t-169 -156.5q6 0 32.5 -1.5t66 -3.5t62.5 -3h3q16 0 65 102t59 140zM590 -339q70 0 174 67t213 174.5t218.5 245.5t195.5 275t139.5 269t53.5 223q0 43 -10 72t-33 45.5t-46.5 25t-63.5 16.5q-188 -337 -221 -337q-5 0 -12.5 6t-7.5 14
q0 13 30 55q53 68 163 270h-201q-112 -133 -224.5 -293.5t-216.5 -339.5t-169 -356.5t-65 -307.5q0 -124 83 -124zM1593 1407q-12 0 -20 8q-4 4 -7.5 16.5t-5.5 23.5l-2 11l-117 -53q-11 0 -20.5 6.5t-9.5 13.5q0 3 28 17t69 34t44 21q15 15 24 15q10 0 14 -14t9.5 -41
t14.5 -45q0 -5 -7 -9t-14 -4z" />
    <glyph glyph-name="Otilde" unicode="&#xd5;" horiz-adv-x="1525" 
d="M1455 1119q1 0 20 -5.5t26 -8.5t26 -10t28 -14.5t25 -19t24.5 -25.5t18 -32t13.5 -40.5t4 -49.5q0 -94 -55 -231t-143.5 -279.5t-203.5 -286.5t-229.5 -255.5t-227 -181.5t-191.5 -70q-78 0 -107 47.5t-29 136.5q1 100 37.5 225t94 243.5t127 239t138.5 221t126.5 179
t92.5 122.5l36 45q0 6 -17 6q-136 0 -386 -48.5t-449 -109t-212 -92.5q-6 -19 -21 -19q-9 0 -15 7.5t-6 20.5q0 45 168 106.5t443 115t547 70.5q2 2 33 33.5t50 50.5t55 53t63.5 56t59 45.5t57.5 35.5t45 12q40 0 40 -39q0 -21 -12.5 -56.5t-24 -60t-37.5 -74.5t-32 -63z
M1517 1368q-65 -32 -119 -77.5t-169 -156.5q6 0 32.5 -1.5t66 -3.5t62.5 -3h3q16 0 65 102t59 140zM590 -339q70 0 174 67t213 174.5t218.5 245.5t195.5 275t139.5 269t53.5 223q0 43 -10 72t-33 45.5t-46.5 25t-63.5 16.5q-188 -337 -221 -337q-5 0 -12.5 6t-7.5 14
q0 13 30 55q53 68 163 270h-201q-112 -133 -224.5 -293.5t-216.5 -339.5t-169 -356.5t-65 -307.5q0 -124 83 -124zM1546 1433q-22 0 -46 24t-32 24q-3 0 -9 -4.5t-9 -4.5q-15 0 -15 18q0 10 11 18t26 9q11 0 35 -24t33 -24q10 0 19 13.5t20 13.5q12 0 12 -21q0 -10 -14 -25
t-31 -17z" />
    <glyph glyph-name="Odieresis" unicode="&#xd6;" horiz-adv-x="1525" 
d="M1455 1119q1 0 20 -5.5t26 -8.5t26 -10t28 -14.5t25 -19t24.5 -25.5t18 -32t13.5 -40.5t4 -49.5q0 -94 -55 -231t-143.5 -279.5t-203.5 -286.5t-229.5 -255.5t-227 -181.5t-191.5 -70q-78 0 -107 47.5t-29 136.5q1 100 37.5 225t94 243.5t127 239t138.5 221t126.5 179
t92.5 122.5l36 45q0 6 -17 6q-136 0 -386 -48.5t-449 -109t-212 -92.5q-6 -19 -21 -19q-9 0 -15 7.5t-6 20.5q0 45 168 106.5t443 115t547 70.5q2 2 33 33.5t50 50.5t55 53t63.5 56t59 45.5t57.5 35.5t45 12q40 0 40 -39q0 -21 -12.5 -56.5t-24 -60t-37.5 -74.5t-32 -63z
M1517 1368q-65 -32 -119 -77.5t-169 -156.5q6 0 32.5 -1.5t66 -3.5t62.5 -3h3q16 0 65 102t59 140zM590 -339q70 0 174 67t213 174.5t218.5 245.5t195.5 275t139.5 269t53.5 223q0 43 -10 72t-33 45.5t-46.5 25t-63.5 16.5q-188 -337 -221 -337q-5 0 -12.5 6t-7.5 14
q0 13 30 55q53 68 163 270h-201q-112 -133 -224.5 -293.5t-216.5 -339.5t-169 -356.5t-65 -307.5q0 -124 83 -124zM1548 1441q-11 0 -19 6t-8 13q0 9 10 15.5t23 6.5q10 0 19.5 -7.5t9.5 -13.5q0 -7 -12 -13.5t-23 -6.5zM1470 1441q-11 0 -19 6t-8 13q0 9 10 15.5t23 6.5
q10 0 19.5 -7.5t9.5 -13.5q0 -7 -12 -13.5t-23 -6.5z" />
    <glyph glyph-name="multiply" unicode="&#xd7;" horiz-adv-x="524" 
d="M107 103q-23 0 -23 16q0 10 10.5 21t53 41t135.5 91q-121 71 -127 76t-8 13l-1 7q0 8 6 15t13 7q14 -1 158 -92q96 53 106 65q3 6 16 11.5t19 5.5q12 0 12 -26q0 -10 -11 -19.5t-46 -29.5q-48 -30 -50 -33q0 -6 62 -54q40 -32 55 -46.5t15 -24.5q0 -9 -8.5 -15.5
t-20.5 -6.5q-25 0 -33 21q-2 12 -123 96q-35 -24 -66.5 -46.5t-49.5 -35.5t-34 -24.5t-24 -17t-15 -9.5t-11.5 -5t-9.5 -1z" />
    <glyph glyph-name="Oslash" unicode="&#xd8;" horiz-adv-x="1560" 
d="M1518 1368q-66 -33 -129 -87t-159 -147h6q14 -2 66 -4q36 -1 90 -5h3q9 0 27 32q18 31 39 75q27 55 38 82q16 37 19 54zM1576 981q-9 36 -32 53q-39 28 -113 40q-7 -14 -39 -70q-37 -66 -67 -114q-40 -65 -69 -107q-32 -45 -44 -45q-1 0 -9 2q-6 2 -9 6t-3 10q0 18 30 57
q49 64 92 140q41 73 64 118l6 12h-201q-143 -170 -298 -403q-155 -234 -266 -473l-5 -11q74 61 296 239q150 123 291 237q78 66 168 138q79 66 208 171zM1583 887q-33 -26 -65 -53q-54 -45 -54 -63q0 -6 3 -9v-9q0 -27 -24 -27q-12 0 -27 12l-18 15q-165 -132 -315 -255
q-438 -358 -520 -426q-56 -159 -56 -288q0 -75 26 -99q25 -24 58 -24q143 0 381 236q238 237 425 534q173 276 186 456zM529 126q9 25 31 75q99 223 223 416q126 197 225 324l2 2q1 1 2.5 3.5t2.5 3.5l3 3q0 1 1 1l1 2l6 8l2 2l1 2q63 81 75 96l3 4q0 6 -18 6
q-141 0 -385 -48q-249 -49 -441 -106q-197 -59 -221 -95q-9 -18 -21 -18q-5 0 -13 8t-8 19q0 70 357 164q354 94 801 127l27 27q42 45 105 105q61 58 128 108q64 48 103 48q42 0 42 -34v-5q0 -40 -25 -94q-24 -52 -56 -113l-27 -48q6 -3 15 -3q32 -9 71 -27q40 -18 70 -58
l9 -15l12 10q120 96 138 96q16 0 29 -12t13 -24q0 -18 -52 -61q-60 -50 -119 -93v-17q0 -148 -115 -366q-115 -217 -287 -432q-171 -213 -348 -360t-300 -147q-83 0 -109 53q-26 54 -26 130q3 102 35 220q-155 -129 -155 -142q3 -3 3 -9q0 -18 -45 -48q-33 -24 -45 -24
q-5 0 -13 6q-7 5 -15 17q-8 11 -8 19l3 3q18 45 222 216q29 25 91 75z" />
    <glyph glyph-name="Ugrave" unicode="&#xd9;" horiz-adv-x="1375" 
d="M755 -574q-7 0 -15.5 8t-8.5 15q0 27 115.5 251t263.5 484q81 142 209.5 353.5t221.5 371.5q-29 -27 -103 -113t-166 -193t-204.5 -234.5t-231.5 -246t-234 -217t-224.5 -158t-190.5 -59.5q-43 0 -72.5 17.5t-41.5 46t-16 50t-4 44.5v12q1 97 54.5 222.5t132.5 242
t171 239t170 218.5t130.5 175.5t52.5 113.5q0 17 -2.5 23t-12.5 10q-15 5 -35 5q-86 0 -261.5 -67t-317.5 -155q-38 -24 -50 -34t-12 -19q0 -24 -20 -24q-11 0 -19 9t-8 24q0 31 106.5 96t256 127t260.5 84q37 7 63 7q100 0 100 -85q0 -34 -39 -99.5t-101.5 -148t-138 -179
t-151 -201.5t-138.5 -205t-103.5 -200t-42.5 -177v-4q0 -14 2 -29t8.5 -38.5t24.5 -38.5t44 -15q85 1 204 71.5t243 182.5t255 247.5t249.5 270.5t215.5 246.5t164.5 181.5t85.5 70q6 0 16 -10q5 -5 5 -15q0 -32 -49.5 -120.5t-176 -297t-221.5 -373.5q-113 -195 -235 -424
t-145 -289q-19 -50 -33 -50zM1316 1230q-8 0 -68.5 39.5t-60.5 50.5q0 10 6.5 17t15.5 7q18 -1 69 -28.5t61 -53.5q0 -11 -7 -21t-16 -11z" />
    <glyph glyph-name="Uacute" unicode="&#xda;" horiz-adv-x="1375" 
d="M755 -574q-7 0 -15.5 8t-8.5 15q0 27 115.5 251t263.5 484q81 142 209.5 353.5t221.5 371.5q-29 -27 -103 -113t-166 -193t-204.5 -234.5t-231.5 -246t-234 -217t-224.5 -158t-190.5 -59.5q-43 0 -72.5 17.5t-41.5 46t-16 50t-4 44.5v12q1 97 54.5 222.5t132.5 242
t171 239t170 218.5t130.5 175.5t52.5 113.5q0 17 -2.5 23t-12.5 10q-15 5 -35 5q-86 0 -261.5 -67t-317.5 -155q-38 -24 -50 -34t-12 -19q0 -24 -20 -24q-11 0 -19 9t-8 24q0 31 106.5 96t256 127t260.5 84q37 7 63 7q100 0 100 -85q0 -34 -39 -99.5t-101.5 -148t-138 -179
t-151 -201.5t-138.5 -205t-103.5 -200t-42.5 -177v-4q0 -14 2 -29t8.5 -38.5t24.5 -38.5t44 -15q85 1 204 71.5t243 182.5t255 247.5t249.5 270.5t215.5 246.5t164.5 181.5t85.5 70q6 0 16 -10q5 -5 5 -15q0 -32 -49.5 -120.5t-176 -297t-221.5 -373.5q-113 -195 -235 -424
t-145 -289q-19 -50 -33 -50zM1175 1231q-10 0 -17.5 9t-7.5 20l2 9q0 6 60.5 38.5t70.5 32.5q8 0 14 -7.5t6 -16.5q0 -12 -50 -45t-78 -40z" />
    <glyph glyph-name="Ucircumflex" unicode="&#xdb;" horiz-adv-x="1375" 
d="M755 -574q-7 0 -15.5 8t-8.5 15q0 27 115.5 251t263.5 484q81 142 209.5 353.5t221.5 371.5q-29 -27 -103 -113t-166 -193t-204.5 -234.5t-231.5 -246t-234 -217t-224.5 -158t-190.5 -59.5q-43 0 -72.5 17.5t-41.5 46t-16 50t-4 44.5v12q1 97 54.5 222.5t132.5 242
t171 239t170 218.5t130.5 175.5t52.5 113.5q0 17 -2.5 23t-12.5 10q-15 5 -35 5q-86 0 -261.5 -67t-317.5 -155q-38 -24 -50 -34t-12 -19q0 -24 -20 -24q-11 0 -19 9t-8 24q0 31 106.5 96t256 127t260.5 84q37 7 63 7q100 0 100 -85q0 -34 -39 -99.5t-101.5 -148t-138 -179
t-151 -201.5t-138.5 -205t-103.5 -200t-42.5 -177v-4q0 -14 2 -29t8.5 -38.5t24.5 -38.5t44 -15q85 1 204 71.5t243 182.5t255 247.5t249.5 270.5t215.5 246.5t164.5 181.5t85.5 70q6 0 16 -10q5 -5 5 -15q0 -32 -49.5 -120.5t-176 -297t-221.5 -373.5q-113 -195 -235 -424
t-145 -289q-19 -50 -33 -50zM1324 1219q-12 0 -20 8q-4 4 -8 16.5t-6 23.5l-1 11l-117 -53q-11 0 -20.5 6.5t-9.5 13.5q0 3 28 17t69 34t44 21q15 15 24 15q10 0 14 -14t9.5 -41t14.5 -45q0 -5 -7 -9t-14 -4z" />
    <glyph glyph-name="Udieresis" unicode="&#xdc;" horiz-adv-x="1375" 
d="M755 -574q-7 0 -15.5 8t-8.5 15q0 27 115.5 251t263.5 484q81 142 209.5 353.5t221.5 371.5q-29 -27 -103 -113t-166 -193t-204.5 -234.5t-231.5 -246t-234 -217t-224.5 -158t-190.5 -59.5q-43 0 -72.5 17.5t-41.5 46t-16 50t-4 44.5v12q1 97 54.5 222.5t132.5 242
t171 239t170 218.5t130.5 175.5t52.5 113.5q0 17 -2.5 23t-12.5 10q-15 5 -35 5q-86 0 -261.5 -67t-317.5 -155q-38 -24 -50 -34t-12 -19q0 -24 -20 -24q-11 0 -19 9t-8 24q0 31 106.5 96t256 127t260.5 84q37 7 63 7q100 0 100 -85q0 -34 -39 -99.5t-101.5 -148t-138 -179
t-151 -201.5t-138.5 -205t-103.5 -200t-42.5 -177v-4q0 -14 2 -29t8.5 -38.5t24.5 -38.5t44 -15q85 1 204 71.5t243 182.5t255 247.5t249.5 270.5t215.5 246.5t164.5 181.5t85.5 70q6 0 16 -10q5 -5 5 -15q0 -32 -49.5 -120.5t-176 -297t-221.5 -373.5q-113 -195 -235 -424
t-145 -289q-19 -50 -33 -50zM1289 1253q-11 0 -19 6t-8 13q0 9 10 15.5t23 6.5q10 0 19.5 -7.5t9.5 -13.5q0 -7 -12 -13.5t-23 -6.5zM1211 1253q-11 0 -19 6t-8 13q0 9 10 15.5t23 6.5q10 0 19.5 -7.5t9.5 -13.5q0 -7 -12 -13.5t-23 -6.5z" />
    <glyph glyph-name="Yacute" unicode="&#xdd;" horiz-adv-x="2799" 
d="M3112 1125q-24 -60 -174.5 -339.5t-214.5 -381.5q-117 -188 -255.5 -313t-325.5 -203.5t-436 -110.5q-106 -15 -270 -15q-291 0 -626.5 45.5t-573.5 121t-238 151.5q0 82 202.5 136t624.5 106q352 44 773 83t688 39q47 0 117 -2q76 -5 98.5 -10t22.5 -18v-4
q0 -10 -26 -12t-159 -3h-39q-91 0 -333 -14t-567.5 -42.5t-623 -65t-504.5 -89t-207 -107.5q0 -65 248 -129t558.5 -100.5t529.5 -36.5q163 0 302.5 17t250.5 43t212 78.5t174.5 99t149.5 131.5t127 150t117.5 179t109.5 194.5t114 218.5q47 92 72 140q-438 -425 -580 -520
q-77 -52 -129 -52q-62 0 -62 80q0 46 52.5 181.5t104.5 248.5l52 112q-6 0 -82 -93t-76 -111v-1q1 -2 1 -5q0 -8 -7.5 -14.5t-16.5 -6.5t-17 7t-8 19q0 11 5 21q20 42 122.5 165t121.5 128l11 1q23 0 26 -25v-2q0 -39 -105 -257q-67 -143 -96 -218t-33.5 -99.5t-8.5 -82.5
q75 0 225 124t411 381q142 138 150 138q9 0 22 -13q9 -9 9 -14q0 -6 -10 -29zM2788 1325q-10 0 -17.5 9t-7.5 20l2 9q0 6 60.5 38.5t70.5 32.5q8 0 14 -7.5t6 -16.5q0 -12 -50 -45t-78 -40z" />
    <glyph glyph-name="Thorn" unicode="&#xde;" horiz-adv-x="2064" 
d="M1720 831q338 -14 512 -93q210 -96 210 -234q0 -144 -210 -300q-287 -185 -648 -262q-363 -77 -495 -86q-18 -3 -27 -3q-9 -3 -31 -40q-26 -43 -53 -92q-54 -94 -94 -159q-46 -75 -71 -75q-6 0 -15 6t-9 15q0 12 12 27q15 15 59 80q42 63 82 133q39 69 39 90q0 6 -3 6
q-9 0 -58 -4q-56 -4 -144 -9q-98 -5 -185 -5q-131 0 -247 17q-113 17 -113 61q0 39 71 71q68 31 168 52q98 21 187 30q9 0 35 3t40 3q12 0 15 -3q9 -6 9 -15q0 -12 -6 -18q-5 -2 -37 -7q-10 -1 -34.5 -5t-39.5 -6q-36 -5 -121 -21q-84 -15 -158 -36q-75 -21 -75 -42
q0 -12 90 -24t231 -12h111q99 6 183 12q80 6 107 9l3 6q8 16 16 30q3 3 6 9l584 846h-38q-408 0 -735 -60q-330 -61 -517 -118q-190 -58 -200 -68q-6 -6 -28 -10q-30 -6 -44 -8q-21 -3 -27 -3q-27 0 -27 24q0 21 57 30q33 6 111 30q117 39 318 93t477 96t612 42l73 -1l38 55
q17 24 24 32q10 11 11 18q1 5 1 13v12q0 32 41 81q43 51 79 87q19 19 29 32t10 16l63 54h3q20 20 36 32q17 13 30 13q10 0 14 -7t4 -14q0 -11 -1 -15q-1 -5 -5 -9l-3 -3l-45 -51q-17 -20 -142 -190q-77 -105 -115 -158zM1082 -95q615 69 963 247q349 178 349 349
q0 117 -196 201q-168 72 -512 83l-64 -88t-75 -104q-174 -241 -299 -423q-127 -185 -166 -265z" />
    <glyph glyph-name="germandbls" unicode="&#xdf;" horiz-adv-x="657" 
d="M-311 -297q95 0 173 59q79 59 136 148q57 90 84 186l-154 3q-134 0 -221 -38q-84 -37 -124 -95q-39 -57 -39 -115q0 -55 37 -101q35 -47 108 -47zM-312 -339q-59 0 -102 29q-42 28 -63 72t-21 88q0 68 44 135q44 66 138 111t244 45l165 -3q12 54 12 102q0 126 -81 126
q-26 0 -58 -9q-29 0 -29 12q0 18 15 24q67 33 101 90q34 56 34 108q0 69 -42 69q-51 0 -72 -36t-36 -96q-54 -240 -162 -312l-12 -6q-24 9 -24 27q0 3 6 9q99 57 156 300q12 45 27 81q30 75 117 75q78 0 84 -111q0 -96 -84 -186q102 -21 102 -165q0 -48 -12 -102l19 -1
q97 0 254 109q3 6 12 6q27 0 27 -15q0 -6 -6 -12q-167 -130 -297 -130l-21 1q-27 -106 -88 -204q-61 -99 -150 -165t-197 -66z" />
    <glyph glyph-name="agrave" unicode="&#xe0;" horiz-adv-x="486" 
d="M-156 75q-23 0 -35.5 17t-12.5 40q0 37 46.5 77.5t106.5 65.5t102 25t42 -31q0 -9 -4 -16t-8 -7l-4 -37q0 -59 46 -59q36 0 101.5 24t112.5 48l47 24q5 0 14.5 -10.5t9.5 -16.5q0 -7 -53.5 -34.5t-125 -53.5t-109.5 -26q-27 0 -46 10.5t-26 27t-9.5 28t-2.5 21.5v3
l-46 -42q-45 -42 -78 -60t-68 -18zM-143 121q10 0 26.5 8.5t31.5 19t35 26.5t32 27t28.5 26t18.5 17h-1q-29 0 -72.5 -15.5t-79 -43.5t-35.5 -55q0 -10 16 -10zM111 301q-8 0 -68.5 39.5t-60.5 50.5q0 10 6.5 17t15.5 7q18 -1 69 -28.5t61 -53.5q0 -11 -7 -21t-16 -11z" />
    <glyph glyph-name="aacute" unicode="&#xe1;" horiz-adv-x="486" 
d="M-156 75q-23 0 -35.5 17t-12.5 40q0 37 46.5 77.5t106.5 65.5t102 25t42 -31q0 -9 -4 -16t-8 -7l-4 -37q0 -59 46 -59q36 0 101.5 24t112.5 48l47 24q5 0 14.5 -10.5t9.5 -16.5q0 -7 -53.5 -34.5t-125 -53.5t-109.5 -26q-27 0 -46 10.5t-26 27t-9.5 28t-2.5 21.5v3
l-46 -42q-45 -42 -78 -60t-68 -18zM-143 121q10 0 26.5 8.5t31.5 19t35 26.5t32 27t28.5 26t18.5 17h-1q-29 0 -72.5 -15.5t-79 -43.5t-35.5 -55q0 -10 16 -10zM2 319q-10 0 -17.5 9t-7.5 20l2 9q0 6 60.5 38.5t70.5 32.5q8 0 14 -7.5t6 -16.5q0 -12 -50 -45t-78 -40z" />
    <glyph glyph-name="acircumflex" unicode="&#xe2;" horiz-adv-x="486" 
d="M-156 75q-23 0 -35.5 17t-12.5 40q0 37 46.5 77.5t106.5 65.5t102 25t42 -31q0 -9 -4 -16t-8 -7l-4 -37q0 -59 46 -59q36 0 101.5 24t112.5 48l47 24q5 0 14.5 -10.5t9.5 -16.5q0 -7 -53.5 -34.5t-125 -53.5t-109.5 -26q-27 0 -46 10.5t-26 27t-9.5 28t-2.5 21.5v3
l-46 -42q-45 -42 -78 -60t-68 -18zM-143 121q10 0 26.5 8.5t31.5 19t35 26.5t32 27t28.5 26t18.5 17h-1q-29 0 -72.5 -15.5t-79 -43.5t-35.5 -55q0 -10 16 -10zM105 305q-12 0 -20 8q-4 4 -7.5 16.5t-5.5 23.5l-2 11l-117 -53q-11 0 -20.5 6.5t-9.5 13.5q0 3 28 17t69 34
t44 21q15 15 24 15q10 0 14 -14t9.5 -41t14.5 -45q0 -5 -7 -9t-14 -4z" />
    <glyph glyph-name="atilde" unicode="&#xe3;" horiz-adv-x="486" 
d="M-156 75q-23 0 -35.5 17t-12.5 40q0 37 46.5 77.5t106.5 65.5t102 25t42 -31q0 -9 -4 -16t-8 -7l-4 -37q0 -59 46 -59q36 0 101.5 24t112.5 48l47 24q5 0 14.5 -10.5t9.5 -16.5q0 -7 -53.5 -34.5t-125 -53.5t-109.5 -26q-27 0 -46 10.5t-26 27t-9.5 28t-2.5 21.5v3
l-46 -42q-45 -42 -78 -60t-68 -18zM-143 121q10 0 26.5 8.5t31.5 19t35 26.5t32 27t28.5 26t18.5 17h-1q-29 0 -72.5 -15.5t-79 -43.5t-35.5 -55q0 -10 16 -10zM87 307q-22 0 -46 24t-32 24q-3 0 -9 -4.5t-9 -4.5q-15 0 -15 18q0 10 11 18t26 9q11 0 35 -24t33 -24
q11 0 20 13.5t19 13.5q12 0 12 -21q0 -10 -14 -25t-31 -17z" />
    <glyph glyph-name="adieresis" unicode="&#xe4;" horiz-adv-x="486" 
d="M-156 75q-23 0 -35.5 17t-12.5 40q0 37 46.5 77.5t106.5 65.5t102 25t42 -31q0 -9 -4 -16t-8 -7l-4 -37q0 -59 46 -59q36 0 101.5 24t112.5 48l47 24q5 0 14.5 -10.5t9.5 -16.5q0 -7 -53.5 -34.5t-125 -53.5t-109.5 -26q-27 0 -46 10.5t-26 27t-9.5 28t-2.5 21.5v3
l-46 -42q-45 -42 -78 -60t-68 -18zM-143 121q10 0 26.5 8.5t31.5 19t35 26.5t32 27t28.5 26t18.5 17h-1q-29 0 -72.5 -15.5t-79 -43.5t-35.5 -55q0 -10 16 -10zM94 322q-11 0 -19 6t-8 13q0 9 10 15.5t23 6.5q10 0 19.5 -7.5t9.5 -13.5q0 -7 -12 -13.5t-23 -6.5zM16 322
q-11 0 -19 6t-8 13q0 9 10 15.5t23 6.5q10 0 19.5 -7.5t9.5 -13.5q0 -7 -12 -13.5t-23 -6.5z" />
    <glyph glyph-name="aring" unicode="&#xe5;" horiz-adv-x="486" 
d="M-156 75q-23 0 -35.5 17t-12.5 40q0 37 46.5 77.5t106.5 65.5t102 25t42 -31q0 -9 -4 -16t-8 -7l-4 -37q0 -59 46 -59q36 0 101.5 24t112.5 48l47 24q5 0 14.5 -10.5t9.5 -16.5q0 -7 -53.5 -34.5t-125 -53.5t-109.5 -26q-27 0 -46 10.5t-26 27t-9.5 28t-2.5 21.5v3
l-46 -42q-45 -42 -78 -60t-68 -18zM-143 121q10 0 26.5 8.5t31.5 19t35 26.5t32 27t28.5 26t18.5 17h-1q-29 0 -72.5 -15.5t-79 -43.5t-35.5 -55q0 -10 16 -10zM60 311q-21 0 -36 12t-15 29q0 27 34 54t60 27q20 0 20 -19v-4l2 -3l5 1q8 0 16.5 -11.5t8.5 -22.5
q0 -19 -32 -41t-63 -22zM61 344q16 0 38 10.5t22 20.5q0 3 -3 9.5t-3 10.5l2 6q0 3 -13 3l-28 -9q-10 -6 -23 -20t-13 -20q2 -11 21 -11z" />
    <glyph glyph-name="ae" unicode="&#xe6;" horiz-adv-x="542" 
d="M-143 121q49 7 172 124q-30 0 -72 -16q-46 -17 -80 -42q-36 -25 -36 -56q0 -10 16 -10zM102 202q12 1 38 9q23 7 47 18q21 11 21 16q0 7 -9 7q-10 0 -31 -10q-28 -12 -45 -22q-21 -12 -21 -18zM118 54q-57 0 -84 24q-27 22 -27 51q0 31 22 60l-26 -23q-35 -35 -72 -61
q-41 -30 -87 -30q-26 0 -36 19q-12 18 -12 38q0 39 47 78q48 40 106 65q59 25 102 25q42 0 42 -31q0 -9 -4 -16t-8 -7l-1 -6q23 17 53 33q50 26 84 26q13 0 31 -8q15 -9 15 -30q0 -28 -25 -49q-23 -19 -61 -34q-32 -12 -67 -17q-27 -3 -38 -14q-11 -13 -11 -19q0 -5 5 -13
q4 -6 22 -11t50 -5q104 0 278 129q22 17 24 17q8 0 10 -14q0 -9 -3 -14q-5 -11 -73 -60q-140 -103 -256 -103z" />
    <glyph glyph-name="ccedilla" unicode="&#xe7;" horiz-adv-x="408" 
d="M-74 -84q-3 0 -5 8q-4 10 -5 16q-2 10 -2 11q81 0 81 31q0 7 -33 7q-14 0 -22 11t-8 24q0 19 10 30q-32 2 -50 12t-26 31t-8 46q0 36 35 73q35 36 81 60t84 24q48 0 48 -36q0 -8 -8 -13q-10 -5 -16 -5q-11 0 -19 8q-4 4 -9 4q-17 0 -53 -17q-34 -16 -64 -43
q-29 -27 -29 -54q0 -45 60 -45q54 0 129 29t136 61q63 34 91 50l13 7q21 0 21 -30q-77 -52 -140 -86q-134 -69 -231 -75q-19 -25 -19 -26q0 -3 7 -3q29 0 48 -11q17 -12 17 -26q0 -27 -30 -50q-31 -23 -84 -23z" />
    <glyph glyph-name="egrave" unicode="&#xe8;" horiz-adv-x="348" 
d="M275 229q0 -13 -10 -26l-7 -5q-7 -5 -19 -13.5t-28.5 -20t-37 -24t-42.5 -24.5t-47.5 -23.5t-50 -20t-50.5 -13.5t-49 -5q-48 0 -75 22t-27 53q0 57 76.5 113.5t133.5 56.5q18 0 32 -9.5t14 -28.5q0 -39 -49 -66t-104 -34q-25 -2 -37 -13t-12 -20q0 -25 68 -25
q54 0 129 35.5t128 71t54 35.5q10 0 10 -13v-3zM24 252q-12 0 -54.5 -21t-42.5 -29q19 1 62.5 17.5t43.5 25.5q0 7 -9 7zM87 311q-8 0 -68.5 39.5t-60.5 50.5q0 10 6.5 17t15.5 7q18 -1 69 -28.5t61 -53.5q0 -11 -7 -21t-16 -11z" />
    <glyph glyph-name="eacute" unicode="&#xe9;" horiz-adv-x="348" 
d="M275 229q0 -13 -10 -26l-7 -5q-7 -5 -19 -13.5t-28.5 -20t-37 -24t-42.5 -24.5t-47.5 -23.5t-50 -20t-50.5 -13.5t-49 -5q-48 0 -75 22t-27 53q0 57 76.5 113.5t133.5 56.5q18 0 32 -9.5t14 -28.5q0 -39 -49 -66t-104 -34q-25 -2 -37 -13t-12 -20q0 -25 68 -25
q54 0 129 35.5t128 71t54 35.5q10 0 10 -13v-3zM24 252q-12 0 -54.5 -21t-42.5 -29q19 1 62.5 17.5t43.5 25.5q0 7 -9 7zM8 320q-10 0 -17.5 9t-7.5 20l2 9q0 6 60.5 38.5t70.5 32.5q8 0 14 -7.5t6 -16.5q0 -12 -50 -45t-78 -40z" />
    <glyph glyph-name="ecircumflex" unicode="&#xea;" horiz-adv-x="348" 
d="M275 229q0 -13 -10 -26l-7 -5q-7 -5 -19 -13.5t-28.5 -20t-37 -24t-42.5 -24.5t-47.5 -23.5t-50 -20t-50.5 -13.5t-49 -5q-48 0 -75 22t-27 53q0 57 76.5 113.5t133.5 56.5q18 0 32 -9.5t14 -28.5q0 -39 -49 -66t-104 -34q-25 -2 -37 -13t-12 -20q0 -25 68 -25
q54 0 129 35.5t128 71t54 35.5q10 0 10 -13v-3zM24 252q-12 0 -54.5 -21t-42.5 -29q19 1 62.5 17.5t43.5 25.5q0 7 -9 7zM129 304q-12 0 -20 8q-4 4 -7.5 17t-5.5 23l-2 11l-117 -53q-11 0 -20.5 6.5t-9.5 13.5q0 3 28 17t69 34t44 21q15 15 24 15q10 0 14 -14t9.5 -41
t14.5 -45q0 -5 -7 -9t-14 -4z" />
    <glyph glyph-name="edieresis" unicode="&#xeb;" horiz-adv-x="348" 
d="M275 229q0 -13 -10 -26l-7 -5q-7 -5 -19 -13.5t-28.5 -20t-37 -24t-42.5 -24.5t-47.5 -23.5t-50 -20t-50.5 -13.5t-49 -5q-48 0 -75 22t-27 53q0 57 76.5 113.5t133.5 56.5q18 0 32 -9.5t14 -28.5q0 -39 -49 -66t-104 -34q-25 -2 -37 -13t-12 -20q0 -25 68 -25
q54 0 129 35.5t128 71t54 35.5q10 0 10 -13v-3zM24 252q-12 0 -54.5 -21t-42.5 -29q19 1 62.5 17.5t43.5 25.5q0 7 -9 7zM85 323q-11 0 -19 6t-8 13q0 9 10 15.5t23 6.5q10 0 19.5 -7.5t9.5 -13.5q0 -7 -12 -13.5t-23 -6.5zM7 323q-11 0 -19 6t-8 13q0 9 10 15.5t23 6.5
q10 0 19.5 -7.5t9.5 -13.5q0 -7 -12 -13.5t-23 -6.5z" />
    <glyph glyph-name="igrave" unicode="&#xec;" horiz-adv-x="336" 
d="M-48 97q-26 0 -39 18t-13 39q0 49 50 92q9 14 26 27.5t35 13.5q11 0 19.5 -7t8.5 -21q0 -6 -4.5 -12t-13 -12t-16 -10.5t-18 -10t-14.5 -7.5q-25 -34 -25 -52q0 -6 5.5 -11.5t14.5 -5.5q43 0 158.5 40.5t159.5 67.5q9 0 9 -12q0 -22 -9 -27q-47 -33 -160.5 -71.5
t-173.5 -38.5zM91 289q-8 0 -68.5 39.5t-60.5 50.5q0 10 6.5 17t15.5 7q18 -1 69 -28.5t61 -53.5q0 -11 -7 -21t-16 -11z" />
    <glyph glyph-name="iacute" unicode="&#xed;" horiz-adv-x="336" 
d="M-48 97q-26 0 -39 18t-13 39q0 49 50 92q9 14 26 27.5t35 13.5q11 0 19.5 -7t8.5 -21q0 -6 -4.5 -12t-13 -12t-16 -10.5t-18 -10t-14.5 -7.5q-25 -34 -25 -52q0 -6 5.5 -11.5t14.5 -5.5q43 0 158.5 40.5t159.5 67.5q9 0 9 -12q0 -22 -9 -27q-47 -33 -160.5 -71.5
t-173.5 -38.5zM-7 309q-10 0 -17.5 9t-7.5 20l2 9q0 6 60.5 38.5t70.5 32.5q8 0 14 -7.5t6 -16.5q0 -12 -50 -45t-78 -40z" />
    <glyph glyph-name="icircumflex" unicode="&#xee;" horiz-adv-x="336" 
d="M-48 97q-26 0 -39 18t-13 39q0 49 50 92q9 14 26 27.5t35 13.5q11 0 19.5 -7t8.5 -21q0 -6 -4.5 -12t-13 -12t-16 -10.5t-18 -10t-14.5 -7.5q-25 -34 -25 -52q0 -6 5.5 -11.5t14.5 -5.5q43 0 158.5 40.5t159.5 67.5q9 0 9 -12q0 -22 -9 -27q-47 -33 -160.5 -71.5
t-173.5 -38.5zM124 297q-12 0 -20 8q-4 4 -8 16.5t-6 23.5l-1 11l-117 -53q-11 0 -20.5 6.5t-9.5 13.5q0 3 28 17t69 34t44 21q15 15 24 15q10 0 14 -14t9.5 -41t14.5 -45q0 -5 -7 -9t-14 -4z" />
    <glyph glyph-name="idieresis" unicode="&#xef;" horiz-adv-x="336" 
d="M-48 97q-26 0 -39 18t-13 39q0 49 50 92q9 14 26 27.5t35 13.5q11 0 19.5 -7t8.5 -21q0 -6 -4.5 -12t-13 -12t-16 -10.5t-18 -10t-14.5 -7.5q-25 -34 -25 -52q0 -6 5.5 -11.5t14.5 -5.5q43 0 158.5 40.5t159.5 67.5q9 0 9 -12q0 -22 -9 -27q-47 -33 -160.5 -71.5
t-173.5 -38.5zM88 312q-11 0 -19 6t-8 13q0 9 10 15.5t23 6.5q10 0 19.5 -7.5t9.5 -13.5q0 -7 -12 -13.5t-23 -6.5zM10 312q-11 0 -19 6t-8 13q0 9 10 15.5t23 6.5q10 0 19.5 -7.5t9.5 -13.5q0 -7 -12 -13.5t-23 -6.5z" />
    <glyph glyph-name="ntilde" unicode="&#xf1;" horiz-adv-x="487" 
d="M-123 81q-14 0 -23.5 9t-9.5 24q0 25 36 81.5t54 56.5t18 -18q0 -7 -24.5 -39t-24.5 -41q0 -7 10 -7q1 0 88.5 55.5t119.5 55.5q27 0 27 -23q0 -15 -8.5 -48.5t-8.5 -41.5q0 -11 12 -11q43 0 144.5 46t121.5 66q16 -13 16 -22q-41 -43 -148 -88t-147 -45
q-24 0 -35.5 12.5t-11.5 27.5q0 17 6.5 44t6.5 30l-2 2q-23 0 -114 -63t-103 -63zM134 287q-22 0 -46 24t-32 24q-3 0 -9 -4.5t-9 -4.5q-15 0 -15 18q0 10 11 18t26 9q11 0 35 -24t33 -24q10 0 19 13.5t20 13.5q12 0 12 -21q0 -10 -14 -25t-31 -17z" />
    <glyph glyph-name="ograve" unicode="&#xf2;" horiz-adv-x="278" 
d="M-221 66q-31 0 -31 35q0 34 64 96.5t93 62.5q10 0 22 -10q11 -10 47.5 -21.5t80.5 -11.5q26 0 61 14.5t36 14.5q23 0 23 -23q0 -4 -18.5 -15t-49 -22t-56.5 -11q-20 0 -39 2t-32 5t-23 6t-15.5 5t-6.5 2q-9 0 -16 -17q-11 -21 -44 -55.5t-53 -44.5q-21 -12 -43 -12z
M-199 118q22 13 43 35.5t21 28.5h-1q-6 0 -26 -20q-37 -35 -37 -44zM-6 265q-8 0 -68.5 39.5t-60.5 50.5q0 10 6.5 17t15.5 7q18 -1 69 -28.5t61 -53.5q0 -11 -7 -21t-16 -11z" />
    <glyph glyph-name="oacute" unicode="&#xf3;" horiz-adv-x="278" 
d="M-221 66q-31 0 -31 35q0 34 64 96.5t93 62.5q10 0 22 -10q11 -10 47.5 -21.5t80.5 -11.5q26 0 61 14.5t36 14.5q23 0 23 -23q0 -4 -18.5 -15t-49 -22t-56.5 -11q-20 0 -39 2t-32 5t-23 6t-15.5 5t-6.5 2q-9 0 -16 -17q-11 -21 -44 -55.5t-53 -44.5q-21 -12 -43 -12z
M-199 118q22 13 43 35.5t21 28.5h-1q-6 0 -26 -20q-37 -35 -37 -44zM-100 278q-10 0 -17.5 9t-7.5 20l2 9q0 6 60.5 38.5t70.5 32.5q8 0 14 -7.5t6 -16.5q0 -12 -50 -45t-78 -40z" />
    <glyph glyph-name="ocircumflex" unicode="&#xf4;" horiz-adv-x="278" 
d="M-221 66q-31 0 -31 35q0 34 64 96.5t93 62.5q10 0 22 -10q11 -10 47.5 -21.5t80.5 -11.5q26 0 61 14.5t36 14.5q23 0 23 -23q0 -4 -18.5 -15t-49 -22t-56.5 -11q-20 0 -39 2t-32 5t-23 6t-15.5 5t-6.5 2q-9 0 -16 -17q-11 -21 -44 -55.5t-53 -44.5q-21 -12 -43 -12z
M-199 118q22 13 43 35.5t21 28.5h-1q-6 0 -26 -20q-37 -35 -37 -44zM31 276q-12 0 -20 8q-4 4 -8 17t-5 23l-2 11l-117 -53q-11 0 -20.5 6.5t-9.5 13.5q0 3 28 17t69 34t44 21q15 15 24 15q10 0 14 -14t9.5 -41t14.5 -45q0 -5 -7 -9t-14 -4z" />
    <glyph glyph-name="otilde" unicode="&#xf5;" horiz-adv-x="278" 
d="M-221 66q-31 0 -31 35q0 34 64 96.5t93 62.5q10 0 22 -10q11 -10 47.5 -21.5t80.5 -11.5q26 0 61 14.5t36 14.5q23 0 23 -23q0 -4 -18.5 -15t-49 -22t-56.5 -11q-20 0 -39 2t-32 5t-23 6t-15.5 5t-6.5 2q-9 0 -16 -17q-11 -21 -44 -55.5t-53 -44.5q-21 -12 -43 -12z
M-199 118q22 13 43 35.5t21 28.5h-1q-6 0 -26 -20q-37 -35 -37 -44zM2 273q-22 0 -46 24t-32 24q-3 0 -9 -4.5t-9 -4.5q-15 0 -15 18q0 10 11 18t26 9q11 0 35 -24t33 -24q10 0 19 13.5t20 13.5q12 0 12 -21q0 -10 -14 -25t-31 -17z" />
    <glyph glyph-name="odieresis" unicode="&#xf6;" horiz-adv-x="278" 
d="M-221 66q-31 0 -31 35q0 34 64 96.5t93 62.5q10 0 22 -10q11 -10 47.5 -21.5t80.5 -11.5q26 0 61 14.5t36 14.5q23 0 23 -23q0 -4 -18.5 -15t-49 -22t-56.5 -11q-20 0 -39 2t-32 5t-23 6t-15.5 5t-6.5 2q-9 0 -16 -17q-11 -21 -44 -55.5t-53 -44.5q-21 -12 -43 -12z
M-199 118q22 13 43 35.5t21 28.5h-1q-6 0 -26 -20q-37 -35 -37 -44zM-9 285q-11 0 -19 6t-8 13q0 9 10 15.5t23 6.5q10 0 19.5 -7.5t9.5 -13.5q0 -7 -12 -13.5t-23 -6.5zM-87 285q-11 0 -19 6t-8 13q0 9 10 15.5t23 6.5q10 0 19.5 -7.5t9.5 -13.5q0 -7 -12 -13.5t-23 -6.5z
" />
    <glyph glyph-name="divide" unicode="&#xf7;" horiz-adv-x="243" 
d="M434 293q0 -9 -7 -16q-7 -4 -200 -8t-199 -7l-4 -1q-8 0 -17 9q-8 10 -8 13t10 13q20 20 343 20q64 0 71 -4q11 -5 11 -19zM185 187q0 -6 -13 -15.5t-29 -9.5q-15 0 -23 6.5t-8 14.5q0 10 12 17t27 7t26 -9q8 -8 8 -11zM274 391q0 -7 -6 -15q-9 -9 -12 -9q-2 1 -3 1
q-8 0 -14 -6q-8 -5 -15 -5q-4 0 -9 3q-9 4 -9 15q0 13 17 32q15 15 22 15q3 0 8 -3q21 -11 21 -28z" />
    <glyph glyph-name="oslash" unicode="&#xf8;" horiz-adv-x="336" 
d="M-249 117q10 8 30 26q16 15 24 25q9 12 9 15q-6 0 -27 -21q-19 -16 -27 -28q-9 -14 -9 -17zM-257 68l-7 -11q-36 -57 -36 -63v-6q0 -15 -18 -36q-15 -18 -21 -18q-3 0 -6 5t-6 12t-3 13v3q6 33 51 102l6 9q-6 12 -6 24q0 24 32 62q30 36 69 67q14 12 31 22l24 32
q18 27 42 57l21 27q6 0 12 -9t6 -18l-36 -48q-18 -26 -27 -40l6 -5q5 -5 57 -19q53 -14 129 -14q20 0 42 8q33 12 36 13q12 9 18 9q18 0 21 -7t3 -17q0 -3 -19 -15q-17 -11 -48 -22q-30 -11 -56 -11q-69 0 -114 8q-11 2 -24 4t-21 3.5t-12 2.5l-6 3q-6 0 -9 -4t-6 -14
q-13 -22 -43 -54q-31 -32 -53 -45q-13 -6 -29 -10z" />
    <glyph glyph-name="ugrave" unicode="&#xf9;" horiz-adv-x="508" 
d="M-34 87q-37 0 -55.5 13.5t-18.5 35.5q0 35 31 81.5t43 46.5q30 0 30 -18q0 -6 -6 -16.5t-12 -10.5q-2 0 -10 -10.5t-15.5 -26.5t-7.5 -27q0 -20 24 -20q25 0 62 20t60 38t70 56l10 3q9 0 16 -7t7 -17q0 -7 -7.5 -23.5t-7.5 -24.5q0 -24 36 -24q49 0 106 22.5t94.5 45
t39.5 22.5q15 0 15 -18q0 -6 -40.5 -33.5t-105.5 -55.5t-115 -28q-72 0 -72 50l3 19q-30 -32 -84.5 -61.5t-89.5 -31.5zM163 281q-8 0 -68.5 39.5t-60.5 50.5q0 10 6.5 17t15.5 7q18 -1 69 -28.5t61 -53.5q0 -11 -7 -21t-16 -11z" />
    <glyph glyph-name="uacute" unicode="&#xfa;" horiz-adv-x="508" 
d="M-34 87q-37 0 -55.5 13.5t-18.5 35.5q0 35 31 81.5t43 46.5q30 0 30 -18q0 -6 -6 -16.5t-12 -10.5q-2 0 -10 -10.5t-15.5 -26.5t-7.5 -27q0 -20 24 -20q25 0 62 20t60 38t70 56l10 3q9 0 16 -7t7 -17q0 -7 -7.5 -23.5t-7.5 -24.5q0 -24 36 -24q49 0 106 22.5t94.5 45
t39.5 22.5q15 0 15 -18q0 -6 -40.5 -33.5t-105.5 -55.5t-115 -28q-72 0 -72 50l3 19q-30 -32 -84.5 -61.5t-89.5 -31.5zM72 288q-10 0 -17.5 9t-7.5 20l2 9q0 6 60.5 38.5t70.5 32.5q8 0 14 -7.5t6 -16.5q0 -12 -50 -45t-78 -40z" />
    <glyph glyph-name="ucircumflex" unicode="&#xfb;" horiz-adv-x="508" 
d="M-34 87q-37 0 -55.5 13.5t-18.5 35.5q0 35 31 81.5t43 46.5q30 0 30 -18q0 -6 -6 -16.5t-12 -10.5q-2 0 -10 -10.5t-15.5 -26.5t-7.5 -27q0 -20 24 -20q25 0 62 20t60 38t70 56l10 3q9 0 16 -7t7 -17q0 -7 -7.5 -23.5t-7.5 -24.5q0 -24 36 -24q49 0 106 22.5t94.5 45
t39.5 22.5q15 0 15 -18q0 -6 -40.5 -33.5t-105.5 -55.5t-115 -28q-72 0 -72 50l3 19q-30 -32 -84.5 -61.5t-89.5 -31.5zM193 285q-12 0 -20 8q-4 4 -7.5 16.5t-5.5 23.5l-2 11l-117 -53q-11 0 -20.5 6.5t-9.5 13.5q0 3 28 17t69 34t44 21q15 15 24 15q10 0 14 -14t9.5 -41
t14.5 -45q0 -5 -7 -9t-14 -4z" />
    <glyph glyph-name="udieresis" unicode="&#xfc;" horiz-adv-x="508" 
d="M-34 87q-37 0 -55.5 13.5t-18.5 35.5q0 35 31 81.5t43 46.5q30 0 30 -18q0 -6 -6 -16.5t-12 -10.5q-2 0 -10 -10.5t-15.5 -26.5t-7.5 -27q0 -20 24 -20q25 0 62 20t60 38t70 56l10 3q9 0 16 -7t7 -17q0 -7 -7.5 -23.5t-7.5 -24.5q0 -24 36 -24q49 0 106 22.5t94.5 45
t39.5 22.5q15 0 15 -18q0 -6 -40.5 -33.5t-105.5 -55.5t-115 -28q-72 0 -72 50l3 19q-30 -32 -84.5 -61.5t-89.5 -31.5zM140 285q-11 0 -19 6t-8 13q0 9 10 15.5t23 6.5q10 0 19.5 -7.5t9.5 -13.5q0 -7 -12 -13.5t-23 -6.5zM62 285q-11 0 -19 6t-8 13q0 9 10 15.5t23 6.5
q10 0 19.5 -7.5t9.5 -13.5q0 -7 -12 -13.5t-23 -6.5z" />
    <glyph glyph-name="yacute" unicode="&#xfd;" horiz-adv-x="538" 
d="M40 227q0 -11 -59 -53t-143.5 -102t-126.5 -100q-10 -17 -27.5 -47t-71.5 -117t-106 -165.5t-122.5 -175t-130.5 -165.5t-121 -116.5t-102 -47.5q-20 0 -32 13t-12 33q0 57 70 163.5t170 216.5t200 212.5t170 167.5l70 65q78 153 78 214q0 18 -13 18q-16 0 -67 -43.5
t-108 -86.5t-89 -43q-17 0 -28 10t-11 25q0 52 62 139q20 27 40 27q16 0 16 -16t-19 -38q-13 -15 -32 -48.5t-19 -42.5l1 -2q24 0 93 52q9 7 40 32t50.5 40t43.5 29t37 14q25 0 38 -14.5t13 -53.5q0 -20 -7 -47.5t-15.5 -49t-16 -39.5t-7.5 -19q-1 0 66 43.5t138 88.5t80 48
q10 -8 10 -19zM-377 -90q-24 -23 -63.5 -62.5t-141 -145t-179.5 -193.5t-141.5 -179t-63.5 -130q0 -7 6 -7q41 0 116 74t153 179t150 210.5t118 179.5zM-321 298q-10 0 -17.5 9t-7.5 20l2 9q0 6 60.5 38.5t70.5 32.5q8 0 14 -7.5t6 -16.5q0 -12 -50 -45t-78 -40z" />
    <glyph glyph-name="thorn" unicode="&#xfe;" horiz-adv-x="447" 
d="M-426 21q11 0 88 58q-91 -33 -91 -55zM-786 -441q-24 0 -24 21q0 45 96 195q184 301 366 552q54 77 61 90q12 22 95 143q75 109 84 109q3 0 14 -8q10 -7 10 -16q0 -19 -230 -375q21 12 47 12q36 0 42 -51q0 -6 -3 -21q-4 -20 -7 -30q-4 -12 -8 -21q222 36 285 87
q6 0 15 -11q9 -12 9 -22q-113 -62 -300 -103q-29 -8 -32 -13q-81 -126 -178 -133q-24 0 -37 15q-14 16 -14 27q0 74 181 132q12 3 13 7q28 53 28 74q0 15 -15 15q-71 0 -233 -245q-12 -20 -19 -27q-148 -227 -204 -343q-24 -60 -42 -60z" />
    <glyph glyph-name="ydieresis" unicode="&#xff;" horiz-adv-x="538" 
d="M40 227q0 -11 -59 -53t-143.5 -102t-126.5 -100q-10 -17 -27.5 -47t-71.5 -117t-106 -165.5t-122.5 -175t-130.5 -165.5t-121 -116.5t-102 -47.5q-20 0 -32 13t-12 33q0 57 70 163.5t170 216.5t200 212.5t170 167.5l70 65q78 153 78 214q0 18 -13 18q-16 0 -67 -43.5
t-108 -86.5t-89 -43q-17 0 -28 10t-11 25q0 52 62 139q20 27 40 27q16 0 16 -16t-19 -38q-13 -15 -32 -48.5t-19 -42.5l1 -2q24 0 93 52q9 7 40 32t50.5 40t43.5 29t37 14q25 0 38 -14.5t13 -53.5q0 -20 -7 -47.5t-15.5 -49t-16 -39.5t-7.5 -19q-1 0 66 43.5t138 88.5t80 48
q10 -8 10 -19zM-377 -90q-24 -23 -63.5 -62.5t-141 -145t-179.5 -193.5t-141.5 -179t-63.5 -130q0 -7 6 -7q41 0 116 74t153 179t150 210.5t118 179.5zM-245 290q-11 0 -19 6t-8 13q0 9 10 15.5t23 6.5q10 0 19.5 -7.5t9.5 -13.5q0 -7 -12 -13.5t-23 -6.5zM-323 290
q-11 0 -19 6t-8 13q0 9 10 15.5t23 6.5q10 0 19.5 -7.5t9.5 -13.5q0 -7 -12 -13.5t-23 -6.5z" />
    <glyph glyph-name="idotless" unicode="&#x131;" horiz-adv-x="336" 
d="M-48 97q-26 0 -39 18t-13 39q0 49 50 92q9 14 26 27.5t35 13.5q11 0 19.5 -7t8.5 -21q0 -6 -4.5 -12t-13 -12t-16 -10.5t-18 -10t-14.5 -7.5q-25 -34 -25 -52q0 -6 5.5 -11.5t14.5 -5.5q43 0 158.5 40.5t159.5 67.5q9 0 9 -12q0 -22 -9 -27q-47 -33 -160.5 -71.5
t-173.5 -38.5z" />
    <glyph glyph-name="gravecomb" unicode="&#x300;" horiz-adv-x="0" 
d="M-831 357q-8 0 -68.5 39.5t-60.5 50.5q0 10 6.5 17t15.5 7q18 -1 69 -28.5t61 -53.5q0 -11 -7 -21t-16 -11z" />
    <glyph glyph-name="acutecomb" unicode="&#x301;" horiz-adv-x="253" 
d="M125 358q-10 0 -17.5 9t-7.5 20l2 9q0 6 60.5 38.5t70.5 32.5q8 0 14 -7.5t6 -16.5q0 -12 -50 -45t-78 -40z" />
    <glyph glyph-name="circumflexcomb" unicode="&#x302;" horiz-adv-x="303" 
d="M282 346q-12 0 -20 8q-4 4 -8 16.5t-6 23.5l-1 11l-117 -53q-11 0 -20.5 6.5t-9.5 13.5q0 3 28 17t69 34t44 21q15 15 24 15q10 0 14 -14t9.5 -41t14.5 -45q0 -5 -7 -9t-14 -4z" />
    <glyph glyph-name="tildecomb" unicode="&#x303;" horiz-adv-x="256" 
d="M211 372q-22 0 -46 24t-32 24q-3 0 -9 -4.5t-9 -4.5q-15 0 -15 18q0 10 11 18t26 9q11 0 35 -24t33 -24q11 0 20 13.5t19 13.5q12 0 12 -21q0 -10 -14 -25t-31 -17z" />
    <glyph glyph-name="macroncomb" unicode="&#x304;" horiz-adv-x="355" 
d="M355 446q0 -9 -4 -16q-4 -4 -117 -8t-117 -7l-3 -1q-4 0 -9 9q-5 10 -5 13q0 2 6 13q12 20 201 20q38 0 41 -4q7 -4 7 -19z" />
    <glyph glyph-name="dotaccentcomb" unicode="&#x307;" horiz-adv-x="169" 
d="M148 232q-3 1 -14 2.5t-17 3t-11.5 7t-5.5 14.5q0 12 11.5 21.5t25.5 9.5q4 0 12 -2q20 -8 20 -25q0 -11 -7.5 -21t-13.5 -10z" />
    <glyph glyph-name="dieresiscomb" unicode="&#x308;" horiz-adv-x="240" 
d="M205 380q-11 0 -19 6t-8 13q0 9 10 15.5t23 6.5q10 0 19.5 -7.5t9.5 -13.5q0 -7 -12 -13.5t-23 -6.5zM127 380q-11 0 -19 6t-8 13q0 9 10 15.5t23 6.5q10 0 19.5 -7.5t9.5 -13.5q0 -7 -12 -13.5t-23 -6.5z" />
    <glyph glyph-name="ringcomb" unicode="&#x30a;" horiz-adv-x="246" 
d="M151 349q-21 0 -36 12t-15 29q0 27 34 54t60 27q20 0 20 -19v-4l2 -3l5 1q8 0 16.5 -11.5t8.5 -22.5q0 -19 -32 -41t-63 -22zM152 382q16 0 38 10.5t22 20.5q0 3 -3 9.5t-3 10.5l2 6q0 3 -13 3l-28 -9q-10 -6 -23 -20t-13 -20q2 -11 21 -11z" />
    <glyph glyph-name="caroncomb" unicode="&#x30c;" horiz-adv-x="356" 
d="M199 350q-14 0 -40.5 19t-32.5 19l-4 -1q-7 0 -14.5 8.5t-7.5 18.5q0 35 20 35q10 0 37 -27.5t45 -27.5q16 0 68 23.5t66 23.5q10 0 14 -4.5t6 -16.5q0 -5 -0.5 -7.5t-3 -5.5t-5.5 -4.5t-10 -4.5t-14.5 -6t-21 -8.5t-27.5 -11.5q-43 -22 -75 -22z" />
    <glyph glyph-name="cedillacomb" unicode="&#x327;" horiz-adv-x="0" 
d="M75 4q0 -6 -10.5 -18t-10.5 -15t7 -3q29 0 47 -11t18 -26q0 -29 -31.5 -51t-82.5 -22q-4 0 -8 14.5t-4 20.5h5q76 0 76 31q0 7 -31 7h-4q-12 0 -20 10.5t-8 24.5q0 19 12.5 32.5t26.5 13.5q3 0 10.5 -3t7.5 -5z" />
    <glyph glyph-name="endash" unicode="&#x2013;" horiz-adv-x="535" 
d="M535 293q0 -9 -7 -16q-7 -4 -200 -8t-199 -7l-4 -1q-8 0 -17 9q-8 10 -8 13t10 13q20 20 343 20q64 0 71 -4q11 -5 11 -19z" />
    <glyph glyph-name="emdash" unicode="&#x2014;" horiz-adv-x="655" 
d="M655 293q0 -9 -9 -16q-9 -4 -255 -8t-254 -7l-5 -1q-10 0 -22 9q-10 10 -10 13t13 13q25 20 438 20q82 0 90 -4q14 -5 14 -19z" />
    <glyph glyph-name="quoteleft" unicode="&#x2018;" horiz-adv-x="511" 
d="M761 996q0 -13 -17 -27q-90 -66 -91 -78q-3 -21 -22 -21q-10 0 -23 11q-8 8 -8 16q0 19 60 64q70 53 83 53q5 0 9 -3q9 -6 9 -15z" />
    <glyph glyph-name="quoteright" unicode="&#x2019;" horiz-adv-x="511" 
d="M761 996q0 -13 -17 -27q-90 -66 -91 -78q-3 -21 -22 -21q-10 0 -23 11q-8 8 -8 16q0 19 60 64q70 53 83 53q5 0 9 -3q9 -6 9 -15z" />
    <glyph glyph-name="quotesinglbase" unicode="&#x201a;" horiz-adv-x="261" 
d="M261 -12q0 -13 -17 -27q-90 -66 -91 -78q-3 -21 -22 -21q-10 0 -23 11q-8 8 -8 16q0 19 60 64q70 53 83 53q5 0 9 -3q9 -6 9 -15z" />
    <glyph glyph-name="quotedblleft" unicode="&#x201c;" horiz-adv-x="613" 
d="M761 996q0 -13 -17 -27q-90 -66 -91 -78q-3 -21 -22 -21q-10 0 -23 11q-8 8 -8 16q0 19 60 64q70 53 83 53q5 0 9 -3q9 -6 9 -15zM863 996q0 -13 -17 -27q-90 -66 -91 -78q-3 -21 -22 -21q-10 0 -23 11q-8 8 -8 16q0 19 60 64q70 53 83 53q5 0 9 -3q9 -6 9 -15z" />
    <glyph glyph-name="quotedblright" unicode="&#x201d;" horiz-adv-x="613" 
d="M761 996q0 -13 -17 -27q-90 -66 -91 -78q-3 -21 -22 -21q-10 0 -23 11q-8 8 -8 16q0 19 60 64q70 53 83 53q5 0 9 -3q9 -6 9 -15zM863 996q0 -13 -17 -27q-90 -66 -91 -78q-3 -21 -22 -21q-10 0 -23 11q-8 8 -8 16q0 19 60 64q70 53 83 53q5 0 9 -3q9 -6 9 -15z" />
    <glyph glyph-name="quotedblbase" unicode="&#x201e;" horiz-adv-x="363" 
d="M261 -69q0 -13 -17 -27q-90 -66 -91 -78q-3 -21 -22 -21q-10 0 -23 11q-8 8 -8 16q0 19 60 64q70 53 83 53q5 0 9 -3q9 -6 9 -15zM363 -69q0 -13 -17 -27q-90 -66 -91 -78q-3 -21 -22 -21q-10 0 -23 11q-8 8 -8 16q0 19 60 64q70 53 83 53q5 0 9 -3q9 -6 9 -15z" />
    <glyph glyph-name="dagger" unicode="&#x2020;" horiz-adv-x="644" 
d="M643 298l1 -6q0 -10 -108 -12q-74 -1 -129 -2q-239 -323 -255 -341q-19 -22 -33 -22q-9 0 -14 8t-5 17q0 4 2 6q2 3 61.5 83t118 158.5t58.5 80.5q0 4 -27 4q-28 0 -62 -4q-20 -2 -26.5 -5.5t-8.5 -12.5q-3 -14 -17 -14t-37.5 12.5t-23.5 25.5q0 23 42.5 30t200.5 17
q29 41 49 70t71 102q-80 -69 -91 -85q-10 -15 -24 -15q-19 0 -19 18q0 7 4 14q8 14 109 116t116 110q14 8 19 8t13 -14q7 -9 7 -16q0 -15 -28 -60t-113 -167q-2 -2 -25 -36t-23 -35q0 -5 26 -5q12 0 50 1.5t57 1.5q39 0 51.5 -6.5t12.5 -24.5z" />
    <glyph glyph-name="daggerdbl" unicode="&#x2021;" horiz-adv-x="698" 
d="M677 614q16 0 20 -13v-1q0 -12 -19 -45.5t-26 -35.5l-13 -1q-8 -1 -55 -53t-47 -60q0 -6 40 -6q37 0 50 -6.5t13 -23.5q0 -19 -18 -28q-12 -6 -16 -6t-13 9q-7 9 -18 11t-47 2h-38q-63 -81 -117 -149l34 -3q45 -4 45 -22q0 -8 -9 -17q-10 -10 -70 -10h-39
q-45 -66 -85 -126t-58 -89t-33 -51.5t-22.5 -29t-14.5 -6.5t-14 7.5t-7 14.5q0 6 26 50t70 111t87 125q-102 2 -123 4t-22 10l-1 8q0 14 20.5 17.5t87.5 3.5h67l122 156l-64 4h-91h-5t-4.5 1.5t-4 2.5t-5 3.5t-6 4.5t-8 7t-9.5 9q3 2 7 5.5t5.5 5t4.5 4t5 3.5t4.5 2t5 1.5
t5.5 1t7 0.5q46 -4 192 -12q36 45 81.5 95t75 79.5t34.5 32.5q8 3 13 3z" />
    <glyph glyph-name="bullet" unicode="&#x2022;" horiz-adv-x="287" 
d="M255 836l21 -40q11 -19 11 -38q0 -29 -26.5 -47.5t-61.5 -18.5q-27 0 -51 13q-48 28 -48 76q0 38 28 68.5t64 30.5q16 0 36 -14t27 -30z" />
    <glyph glyph-name="ellipsis" unicode="&#x2026;" horiz-adv-x="459" 
d="M435 249q15 0 20 -8q4 -5 4 -12q0 -13 -14.5 -24t-33.5 -11l-6 1q-20 2 -27 11l-4 8q0 4 12 16q24 19 49 19zM277 263q19 0 33 -13q13 -13 13 -24q0 -16 -21 -16q-14 0 -30 9q-18 12 -18 26q0 18 23 18zM136 275q14 0 31.5 -8t19.5 -15l1 -5q0 -8 -6.5 -14.5t-15.5 -6.5
q-12 0 -15 -12t-19 -12q-14 0 -23 10q-9 9 -9 20q0 12 13 27.5t23 15.5z" />
    <glyph glyph-name="guilsinglleft" unicode="&#x2039;" horiz-adv-x="657" 
d="M632 949q11 0 18 -6t7 -16q0 -11 -34 -43.5t-76.5 -72t-55.5 -60.5q-18 -28 -35 -28q-10 0 -14 13l-1 5q0 3 1 6.5t3.5 8.5l4.5 9t7.5 12t8.5 12.5t11 15.5t12 17q-157 -108 -334 -242q-1 -1 -1 -3q0 -11 40 -55t103.5 -110.5t96.5 -106.5q26 -32 34 -38q11 -11 11 -20
q0 -5 -7 -14q-8 -8 -16 -8q-17 0 -55 45q-64 77 -135.5 150.5t-98.5 104.5t-27 51q0 15 13 28q40 38 220 167q52 38 153 99.5t129 74.5q12 4 17 4z" />
    <glyph glyph-name="guilsinglright" unicode="&#x203a;" horiz-adv-x="539" 
d="M539 588q0 -22 -54.5 -72t-152.5 -130t-151 -131q-49 -47 -55 -47t-16 9.5t-10 17.5q0 17 194 180.5t194 169.5q0 7 -70 89t-84 92q-12 8 -41 49t-29 51q0 7 7 11.5t15 4.5q7 0 10 -2q15 -9 129 -143.5t114 -148.5z" />
    <glyph glyph-name="fraction" unicode="&#x2044;" horiz-adv-x="1284" 
d="M1284 1012q0 -18 -128.5 -116.5t-128.5 -117.5q0 -4 1 -7l1 -7q0 -19 -17 -19q-11 0 -20 8l-15 12q-96 -78 -242.5 -197t-224 -182.5t-162.5 -133.5t-121.5 -103t-36.5 -38q2 -2 2 -6q0 -15 -34 -36q-26 -18 -33 -18t-16 10.5t-9 20.5v3q4 14 49 56.5t131.5 115
t163.5 135.5t200 162.5t186 150.5q36 29 100.5 82.5t111 91.5t96 77.5t79.5 60.5t37 21q10 0 20 -9t10 -17z" />
    <glyph glyph-name="fraction" unicode="&#x2215;" horiz-adv-x="1284" 
d="M1284 1012q0 -18 -128.5 -116.5t-128.5 -117.5q0 -4 1 -7l1 -7q0 -19 -17 -19q-11 0 -20 8l-15 12q-96 -78 -242.5 -197t-224 -182.5t-162.5 -133.5t-121.5 -103t-36.5 -38q2 -2 2 -6q0 -15 -34 -36q-26 -18 -33 -18t-16 10.5t-9 20.5v3q4 14 49 56.5t131.5 115
t163.5 135.5t200 162.5t186 150.5q36 29 100.5 82.5t111 91.5t96 77.5t79.5 60.5t37 21q10 0 20 -9t10 -17z" />
    <glyph glyph-name="euro" unicode="&#x20ac;" horiz-adv-x="1048" 
d="M1048 597q0 -24 -27 -60q-44 -54 -69 -54h-6q-12 4 -12 15q0 14 18 27q12 9 33 36t21 33q0 3 -12 3q-47 0 -123 -27q-104 -38 -231 -109.5t-213 -148.5q117 3 246 3h31q83 0 83 -24q0 -6 -3 -9q-5 -12 -240 -16q-32 0 -51.5 -0.5t-54 -1t-65.5 -0.5q-28 -24 -74 -82.5
t-46 -91.5q0 -34 63 -42q12 -3 39 -3q78 0 188 21t154 45q16 12 24 12q5 0 13 -8t8 -16q0 -36 -130 -67.5t-248 -31.5q-58 0 -90 9q-66 22 -66 81q0 58 72 144q15 15 15 21q0 3 -9 3q-25 0 -84 -8.5t-66 -12.5q-6 -6 -12 -6t-15 9t-9 15t3 9q7 13 16 16q20 9 227 29l60 48
q120 100 280.5 183t265.5 99q9 3 30 3q31 0 48.5 -12t17.5 -33z" />
    <glyph glyph-name="lessthanorequalto" unicode="&#x2264;" horiz-adv-x="733" 
d="M133 491q21 0 85 -64q43 -43 112.5 -132t69.5 -101q0 -8 -7.5 -15t-15.5 -7q-11 0 -30 26.5t-73 96t-124 143.5q-23 -29 -29 -29t-13.5 11.5t-7.5 26.5q0 18 11 31t22 13zM708 949q11 0 18 -6t7 -16q0 -11 -34 -43.5t-76.5 -72t-55.5 -60.5q-18 -28 -35 -28q-10 0 -14 13
l-1 5q0 3 1 6.5t3.5 8.5l4.5 9t7.5 12t8.5 12.5t11 15.5t12 17q-157 -108 -334 -242q-1 -1 -1 -3q0 -11 40 -55t103.5 -110.5t96.5 -106.5q26 -32 34 -38q11 -11 11 -20q0 -5 -7 -14q-8 -8 -16 -8q-17 0 -55 45q-64 77 -135.5 150.5t-98.5 104.5t-27 51q0 15 13 28
q40 38 220 167q52 38 153 99.5t129 74.5q12 4 17 4z" />
    <glyph glyph-name="greaterthanorequalto" unicode="&#x2265;" horiz-adv-x="560" 
d="M539 588q0 -22 -54.5 -72t-152.5 -130t-151 -131q-49 -47 -55 -47t-16 9.5t-10 17.5q0 17 194 180.5t194 169.5q0 7 -70 89t-84 92q-12 8 -41 49t-29 51q0 7 7 11.5t15 4.5q7 0 10 -2q15 -9 129 -143.5t114 -148.5zM560 438v-5q-3 -16 -42 -40q-79 -48 -255 -210
q-64 -60 -83 -60q-6 0 -9 4q-4 4 -4 17q0 29 233 217q75 60 101.5 79t37.5 19q6 0 13.5 -5.5t7.5 -15.5z" />
    <glyph glyph-name="t.s" unicode="&#xe022;" horiz-adv-x="226" 
d="M759 395q0 -10 -6.5 -16.5t-16.5 -6.5q-24 7 -68 17.5t-186 27.5t-289 17q-47 0 -75 -1q-61 -59 -138 -123t-115 -85q-157 -312 -157 -426q0 -3 6.5 -21.5t6.5 -28.5q0 -23 -28 -23q-43 0 -43 71q0 56 87.5 269t186.5 354q-63 -7 -128 -18.5t-98 -19.5l-34 -7
q-9 0 -15.5 6.5t-6.5 15.5q0 19 17 22q147 35 297 49l3 6q88 136 201 255t150 119q19 0 33.5 -13t14.5 -42q0 -50 -60 -138t-142 -175v-1h36q44 0 129 -4.5t187.5 -14t176.5 -26.5t74 -39zM304 801q-10 0 -55.5 -45t-111.5 -124.5t-117 -157.5q12 0 41.5 1t41.5 2
q71 74 141.5 175t70.5 131q0 18 -11 18zM-13 426l-92 -134q143 115 166 140q-17 -1 -74 -6z" />
    </font>
</defs>
</svg>
